G75*
%MOIN*%
%OFA0B0*%
%FSLAX25Y25*%
%IPPOS*%
%LPD*%
%AMOC8*
5,1,8,0,0,1.08239X$1,22.5*
%
%ADD10OC8,0.12400*%
%ADD11C,0.12400*%
%ADD12OC8,0.05200*%
%ADD13C,0.05937*%
%ADD14C,0.10000*%
%ADD15OC8,0.06200*%
%ADD16C,0.06200*%
%ADD17C,0.06600*%
%ADD18C,0.06000*%
%ADD19C,0.02400*%
%ADD20C,0.00600*%
%ADD21C,0.01600*%
%ADD22OC8,0.02978*%
D10*
X0402000Y0110000D03*
D11*
X0402000Y0140000D03*
D12*
X0357000Y0133000D03*
X0357000Y0123000D03*
X0332000Y0103000D03*
X0332000Y0153000D03*
X0293000Y0171000D03*
X0293000Y0186000D03*
X0288000Y0207000D03*
X0291000Y0215000D03*
X0279500Y0225000D03*
X0272000Y0220000D03*
X0272000Y0230000D03*
X0291000Y0245000D03*
X0326000Y0232000D03*
X0333500Y0227000D03*
X0326000Y0222000D03*
X0345000Y0213000D03*
X0343000Y0205000D03*
X0363000Y0209000D03*
X0374000Y0227000D03*
X0381500Y0232000D03*
X0374000Y0237000D03*
X0393000Y0249000D03*
X0393000Y0219000D03*
X0393000Y0209000D03*
X0345000Y0243000D03*
X0313000Y0205000D03*
X0263000Y0186000D03*
X0263000Y0171000D03*
X0245000Y0171000D03*
X0245000Y0186000D03*
X0215000Y0186000D03*
X0215000Y0171000D03*
X0210000Y0208000D03*
X0221000Y0223000D03*
X0228500Y0228000D03*
X0221000Y0233000D03*
X0242000Y0246000D03*
X0242000Y0216000D03*
X0240000Y0208000D03*
X0258000Y0207000D03*
X0187000Y0209000D03*
X0178000Y0207000D03*
X0166000Y0222000D03*
X0173500Y0227000D03*
X0166000Y0232000D03*
X0187000Y0239000D03*
X0148000Y0207000D03*
X0158000Y0174000D03*
X0158000Y0144000D03*
X0156000Y0129000D03*
X0156000Y0099000D03*
D13*
X0222000Y0083969D02*
X0222000Y0078031D01*
X0232000Y0078031D02*
X0232000Y0083969D01*
X0242000Y0083969D02*
X0242000Y0078031D01*
X0252000Y0078031D02*
X0252000Y0083969D01*
X0262000Y0083969D02*
X0262000Y0078031D01*
X0272000Y0078031D02*
X0272000Y0083969D01*
X0272000Y0268031D02*
X0272000Y0273969D01*
X0282000Y0273969D02*
X0282000Y0268031D01*
X0292000Y0268031D02*
X0292000Y0273969D01*
X0302000Y0273969D02*
X0302000Y0268031D01*
X0312000Y0268031D02*
X0312000Y0273969D01*
X0322000Y0273969D02*
X0322000Y0268031D01*
X0332000Y0268031D02*
X0332000Y0273969D01*
X0342000Y0273969D02*
X0342000Y0268031D01*
X0256000Y0268031D02*
X0256000Y0273969D01*
X0246000Y0273969D02*
X0246000Y0268031D01*
X0236000Y0268031D02*
X0236000Y0273969D01*
X0226000Y0273969D02*
X0226000Y0268031D01*
X0216000Y0268031D02*
X0216000Y0273969D01*
X0206000Y0273969D02*
X0206000Y0268031D01*
X0196000Y0268031D02*
X0196000Y0273969D01*
X0186000Y0273969D02*
X0186000Y0268031D01*
D14*
X0204700Y0138000D02*
X0204700Y0128000D01*
X0303300Y0128000D02*
X0303300Y0138000D01*
D15*
X0184000Y0167000D03*
X0175000Y0117000D03*
D16*
X0175000Y0107000D03*
X0184000Y0157000D03*
D17*
X0312000Y0173000D03*
X0352000Y0173000D03*
D18*
X0438000Y0171000D02*
X0444000Y0171000D01*
X0444000Y0181000D02*
X0438000Y0181000D01*
X0438000Y0191000D02*
X0444000Y0191000D01*
X0444000Y0201000D02*
X0438000Y0201000D01*
X0438000Y0211000D02*
X0444000Y0211000D01*
X0444000Y0224000D02*
X0438000Y0224000D01*
X0438000Y0234000D02*
X0444000Y0234000D01*
X0432000Y0268000D02*
X0432000Y0274000D01*
X0422000Y0274000D02*
X0422000Y0268000D01*
X0412000Y0268000D02*
X0412000Y0274000D01*
X0402000Y0274000D02*
X0402000Y0268000D01*
X0392000Y0268000D02*
X0392000Y0274000D01*
X0382000Y0274000D02*
X0382000Y0268000D01*
X0372000Y0268000D02*
X0372000Y0274000D01*
X0362000Y0274000D02*
X0362000Y0268000D01*
X0438000Y0161000D02*
X0444000Y0161000D01*
X0444000Y0151000D02*
X0438000Y0151000D01*
X0442000Y0084000D02*
X0442000Y0078000D01*
X0432000Y0078000D02*
X0432000Y0084000D01*
X0422000Y0084000D02*
X0422000Y0078000D01*
X0412000Y0078000D02*
X0412000Y0084000D01*
X0402000Y0084000D02*
X0402000Y0078000D01*
X0392000Y0078000D02*
X0392000Y0084000D01*
X0382000Y0084000D02*
X0382000Y0078000D01*
X0362000Y0078000D02*
X0362000Y0084000D01*
X0352000Y0084000D02*
X0352000Y0078000D01*
X0342000Y0078000D02*
X0342000Y0084000D01*
X0332000Y0084000D02*
X0332000Y0078000D01*
X0322000Y0078000D02*
X0322000Y0084000D01*
X0312000Y0084000D02*
X0312000Y0078000D01*
X0302000Y0078000D02*
X0302000Y0084000D01*
X0292000Y0084000D02*
X0292000Y0078000D01*
X0452000Y0078000D02*
X0452000Y0084000D01*
X0129000Y0168000D02*
X0123000Y0168000D01*
X0123000Y0178000D02*
X0129000Y0178000D01*
X0130000Y0196000D02*
X0124000Y0196000D01*
X0124000Y0206000D02*
X0130000Y0206000D01*
X0130000Y0216000D02*
X0124000Y0216000D01*
X0124000Y0227000D02*
X0130000Y0227000D01*
X0130000Y0237000D02*
X0124000Y0237000D01*
D19*
X0134000Y0206000D02*
X0160200Y0232200D01*
X0160200Y0234402D01*
X0163598Y0237800D01*
X0168402Y0237800D01*
X0171800Y0234402D01*
X0171800Y0228700D01*
X0173500Y0227000D01*
X0178000Y0207000D02*
X0178000Y0204000D01*
X0186000Y0196000D01*
X0213000Y0196000D01*
X0225000Y0208000D01*
X0240000Y0208000D01*
X0240000Y0205000D01*
X0247000Y0198000D01*
X0288000Y0198000D01*
X0288500Y0197500D01*
X0288000Y0198000D01*
X0288000Y0207000D01*
X0288500Y0197500D02*
X0291000Y0195000D01*
X0296000Y0195000D01*
X0312000Y0179000D01*
X0338000Y0205000D01*
X0343000Y0205000D01*
X0343000Y0197000D01*
X0351000Y0189000D01*
X0386000Y0189000D01*
X0393000Y0196000D01*
X0393000Y0209000D01*
X0395000Y0209000D01*
X0420000Y0234000D01*
X0441000Y0234000D01*
X0441000Y0224000D02*
X0451000Y0224000D01*
X0460000Y0215000D01*
X0460000Y0122000D01*
X0448000Y0110000D01*
X0402000Y0110000D01*
X0392000Y0110000D01*
X0379000Y0123000D01*
X0357000Y0123000D01*
X0357000Y0110000D01*
X0351000Y0104000D01*
X0333000Y0104000D01*
X0332000Y0103000D01*
X0276000Y0103000D01*
X0276000Y0110000D01*
X0269000Y0117000D01*
X0175000Y0117000D01*
X0184000Y0133000D02*
X0204700Y0133000D01*
X0184000Y0133000D02*
X0164000Y0153000D01*
X0141000Y0153000D01*
X0126000Y0168000D01*
X0126000Y0178000D02*
X0158000Y0174000D01*
X0171000Y0174000D01*
X0178000Y0167000D01*
X0184000Y0167000D01*
X0188000Y0171000D01*
X0215000Y0171000D01*
X0215000Y0186000D01*
X0203000Y0163000D02*
X0203000Y0156000D01*
X0208000Y0151000D01*
X0232000Y0112000D02*
X0232000Y0091278D01*
X0239722Y0091278D01*
X0242000Y0089000D01*
X0242000Y0081000D01*
X0252000Y0081000D02*
X0252000Y0094000D01*
X0261000Y0103000D01*
X0276000Y0103000D01*
X0303300Y0133000D02*
X0303300Y0152300D01*
X0312000Y0161000D01*
X0351000Y0161000D01*
X0357000Y0155000D01*
X0357000Y0133000D01*
X0395000Y0133000D01*
X0402000Y0140000D01*
X0312000Y0161000D02*
X0312000Y0173000D01*
X0312000Y0179000D01*
X0134000Y0206000D02*
X0127000Y0206000D01*
D20*
X0097100Y0246000D02*
X0097100Y0076100D01*
X0217097Y0076100D01*
X0216731Y0076984D01*
X0216731Y0085016D01*
X0217534Y0086953D01*
X0219016Y0088435D01*
X0220952Y0089237D01*
X0223048Y0089237D01*
X0224984Y0088435D01*
X0226466Y0086953D01*
X0227000Y0085665D01*
X0227534Y0086953D01*
X0229016Y0088435D01*
X0229636Y0088692D01*
X0229033Y0089295D01*
X0228500Y0090582D01*
X0228500Y0110142D01*
X0228211Y0110431D01*
X0228211Y0113569D01*
X0230431Y0115789D01*
X0233569Y0115789D01*
X0235789Y0113569D01*
X0235789Y0110431D01*
X0235500Y0110142D01*
X0235500Y0094778D01*
X0240418Y0094778D01*
X0241705Y0094245D01*
X0244967Y0090983D01*
X0245500Y0089696D01*
X0245500Y0087919D01*
X0246466Y0086953D01*
X0247268Y0085016D01*
X0247268Y0076984D01*
X0246903Y0076100D01*
X0248194Y0076100D01*
X0248044Y0076393D01*
X0247837Y0077032D01*
X0247731Y0077696D01*
X0247731Y0080700D01*
X0251700Y0080700D01*
X0251700Y0081300D01*
X0251700Y0088237D01*
X0251664Y0088237D01*
X0251000Y0088132D01*
X0250361Y0087924D01*
X0249763Y0087619D01*
X0249219Y0087224D01*
X0248744Y0086749D01*
X0248349Y0086206D01*
X0248044Y0085607D01*
X0247837Y0084968D01*
X0247731Y0084304D01*
X0247731Y0081300D01*
X0251700Y0081300D01*
X0252300Y0081300D01*
X0252300Y0088237D01*
X0252336Y0088237D01*
X0253000Y0088132D01*
X0253639Y0087924D01*
X0254237Y0087619D01*
X0254781Y0087224D01*
X0255256Y0086749D01*
X0255651Y0086206D01*
X0255956Y0085607D01*
X0256163Y0084968D01*
X0256268Y0084304D01*
X0256268Y0081300D01*
X0252300Y0081300D01*
X0252300Y0080700D01*
X0256268Y0080700D01*
X0256268Y0077696D01*
X0256163Y0077032D01*
X0255956Y0076393D01*
X0255806Y0076100D01*
X0257097Y0076100D01*
X0256731Y0076984D01*
X0256731Y0085016D01*
X0257534Y0086953D01*
X0259016Y0088435D01*
X0260952Y0089237D01*
X0263048Y0089237D01*
X0264984Y0088435D01*
X0266466Y0086953D01*
X0267000Y0085665D01*
X0267534Y0086953D01*
X0269016Y0088435D01*
X0270952Y0089237D01*
X0273048Y0089237D01*
X0274984Y0088435D01*
X0276466Y0086953D01*
X0277268Y0085016D01*
X0277268Y0076984D01*
X0276903Y0076100D01*
X0287050Y0076100D01*
X0286700Y0076946D01*
X0286700Y0085054D01*
X0287507Y0087002D01*
X0288998Y0088493D01*
X0290946Y0089300D01*
X0293054Y0089300D01*
X0295002Y0088493D01*
X0296493Y0087002D01*
X0297000Y0085778D01*
X0297507Y0087002D01*
X0298998Y0088493D01*
X0300946Y0089300D01*
X0303054Y0089300D01*
X0305002Y0088493D01*
X0306493Y0087002D01*
X0307000Y0085778D01*
X0307507Y0087002D01*
X0308998Y0088493D01*
X0310946Y0089300D01*
X0313054Y0089300D01*
X0315002Y0088493D01*
X0316493Y0087002D01*
X0317000Y0085778D01*
X0317507Y0087002D01*
X0318998Y0088493D01*
X0320946Y0089300D01*
X0323054Y0089300D01*
X0325002Y0088493D01*
X0326493Y0087002D01*
X0327000Y0085778D01*
X0327507Y0087002D01*
X0328998Y0088493D01*
X0330946Y0089300D01*
X0333054Y0089300D01*
X0335002Y0088493D01*
X0336493Y0087002D01*
X0337000Y0085778D01*
X0337507Y0087002D01*
X0338998Y0088493D01*
X0340946Y0089300D01*
X0343054Y0089300D01*
X0345002Y0088493D01*
X0346493Y0087002D01*
X0347000Y0085778D01*
X0347507Y0087002D01*
X0348998Y0088493D01*
X0350946Y0089300D01*
X0353054Y0089300D01*
X0355002Y0088493D01*
X0356493Y0087002D01*
X0357000Y0085778D01*
X0357507Y0087002D01*
X0358998Y0088493D01*
X0360946Y0089300D01*
X0363054Y0089300D01*
X0365002Y0088493D01*
X0366493Y0087002D01*
X0367300Y0085054D01*
X0367300Y0076946D01*
X0366950Y0076100D01*
X0377050Y0076100D01*
X0376700Y0076946D01*
X0376700Y0085054D01*
X0377507Y0087002D01*
X0378998Y0088493D01*
X0380946Y0089300D01*
X0383054Y0089300D01*
X0385002Y0088493D01*
X0386493Y0087002D01*
X0387000Y0085778D01*
X0387507Y0087002D01*
X0388998Y0088493D01*
X0390946Y0089300D01*
X0393054Y0089300D01*
X0395002Y0088493D01*
X0396493Y0087002D01*
X0397000Y0085778D01*
X0397507Y0087002D01*
X0398998Y0088493D01*
X0400946Y0089300D01*
X0403054Y0089300D01*
X0405002Y0088493D01*
X0406493Y0087002D01*
X0407000Y0085778D01*
X0407507Y0087002D01*
X0408998Y0088493D01*
X0410946Y0089300D01*
X0413054Y0089300D01*
X0415002Y0088493D01*
X0416493Y0087002D01*
X0417000Y0085778D01*
X0417507Y0087002D01*
X0418998Y0088493D01*
X0420946Y0089300D01*
X0423054Y0089300D01*
X0425002Y0088493D01*
X0426493Y0087002D01*
X0427000Y0085778D01*
X0427507Y0087002D01*
X0428998Y0088493D01*
X0430946Y0089300D01*
X0433054Y0089300D01*
X0435002Y0088493D01*
X0436493Y0087002D01*
X0437000Y0085778D01*
X0437507Y0087002D01*
X0438998Y0088493D01*
X0440946Y0089300D01*
X0443054Y0089300D01*
X0445002Y0088493D01*
X0446493Y0087002D01*
X0447000Y0085778D01*
X0447507Y0087002D01*
X0448998Y0088493D01*
X0450946Y0089300D01*
X0453054Y0089300D01*
X0455002Y0088493D01*
X0456493Y0087002D01*
X0457300Y0085054D01*
X0457300Y0076946D01*
X0456950Y0076100D01*
X0460000Y0076100D01*
X0460000Y0275900D01*
X0436950Y0275900D01*
X0437300Y0275054D01*
X0437300Y0266946D01*
X0436493Y0264998D01*
X0435002Y0263507D01*
X0433054Y0262700D01*
X0430946Y0262700D01*
X0428998Y0263507D01*
X0427507Y0264998D01*
X0427000Y0266222D01*
X0426493Y0264998D01*
X0425002Y0263507D01*
X0423054Y0262700D01*
X0420946Y0262700D01*
X0418998Y0263507D01*
X0417507Y0264998D01*
X0417000Y0266222D01*
X0416493Y0264998D01*
X0415002Y0263507D01*
X0413054Y0262700D01*
X0410946Y0262700D01*
X0408998Y0263507D01*
X0407507Y0264998D01*
X0407000Y0266222D01*
X0406493Y0264998D01*
X0405002Y0263507D01*
X0403054Y0262700D01*
X0400946Y0262700D01*
X0398998Y0263507D01*
X0397507Y0264998D01*
X0397000Y0266222D01*
X0396493Y0264998D01*
X0395002Y0263507D01*
X0393054Y0262700D01*
X0390946Y0262700D01*
X0388998Y0263507D01*
X0387507Y0264998D01*
X0387000Y0266222D01*
X0386493Y0264998D01*
X0385002Y0263507D01*
X0383054Y0262700D01*
X0380946Y0262700D01*
X0378998Y0263507D01*
X0377507Y0264998D01*
X0377000Y0266222D01*
X0376493Y0264998D01*
X0375002Y0263507D01*
X0373054Y0262700D01*
X0370946Y0262700D01*
X0368998Y0263507D01*
X0367507Y0264998D01*
X0367000Y0266222D01*
X0366493Y0264998D01*
X0365002Y0263507D01*
X0363054Y0262700D01*
X0360946Y0262700D01*
X0358998Y0263507D01*
X0357507Y0264998D01*
X0356700Y0266946D01*
X0356700Y0275054D01*
X0357050Y0275900D01*
X0346903Y0275900D01*
X0347268Y0275016D01*
X0347268Y0266984D01*
X0346466Y0265047D01*
X0344984Y0263565D01*
X0343048Y0262763D01*
X0342621Y0262763D01*
X0365284Y0240100D01*
X0370170Y0240100D01*
X0371970Y0241900D01*
X0374516Y0241900D01*
X0383372Y0250756D01*
X0384244Y0251628D01*
X0385383Y0252100D01*
X0389170Y0252100D01*
X0390970Y0253900D01*
X0395030Y0253900D01*
X0397900Y0251030D01*
X0397900Y0246970D01*
X0395030Y0244100D01*
X0390970Y0244100D01*
X0389170Y0245900D01*
X0387284Y0245900D01*
X0378900Y0237516D01*
X0378900Y0236330D01*
X0379470Y0236900D01*
X0383530Y0236900D01*
X0386400Y0234030D01*
X0386400Y0230100D01*
X0400742Y0230100D01*
X0401431Y0230789D01*
X0404569Y0230789D01*
X0406789Y0228569D01*
X0406789Y0225739D01*
X0417033Y0235983D01*
X0418017Y0236967D01*
X0419304Y0237500D01*
X0434005Y0237500D01*
X0434998Y0238493D01*
X0436946Y0239300D01*
X0445054Y0239300D01*
X0447002Y0238493D01*
X0448493Y0237002D01*
X0449300Y0235054D01*
X0449300Y0232946D01*
X0448493Y0230998D01*
X0447002Y0229507D01*
X0445054Y0228700D01*
X0436946Y0228700D01*
X0434998Y0229507D01*
X0434005Y0230500D01*
X0421450Y0230500D01*
X0396983Y0206033D01*
X0396948Y0206019D01*
X0396500Y0205570D01*
X0396500Y0195304D01*
X0395967Y0194017D01*
X0394983Y0193033D01*
X0387983Y0186033D01*
X0386696Y0185500D01*
X0352884Y0185500D01*
X0353284Y0185100D01*
X0362617Y0185100D01*
X0363756Y0184628D01*
X0364628Y0183756D01*
X0374284Y0174100D01*
X0433605Y0174100D01*
X0434998Y0175493D01*
X0436222Y0176000D01*
X0434998Y0176507D01*
X0433605Y0177900D01*
X0405383Y0177900D01*
X0404244Y0178372D01*
X0403372Y0179244D01*
X0400372Y0182244D01*
X0399900Y0183383D01*
X0399900Y0202742D01*
X0399211Y0203431D01*
X0399211Y0206569D01*
X0401431Y0208789D01*
X0404569Y0208789D01*
X0406789Y0206569D01*
X0406789Y0203431D01*
X0406100Y0202742D01*
X0406100Y0185284D01*
X0407284Y0184100D01*
X0433605Y0184100D01*
X0434998Y0185493D01*
X0436222Y0186000D01*
X0434998Y0186507D01*
X0433507Y0187998D01*
X0432700Y0189946D01*
X0432700Y0192054D01*
X0433507Y0194002D01*
X0434998Y0195493D01*
X0436222Y0196000D01*
X0434998Y0196507D01*
X0433507Y0197998D01*
X0432700Y0199946D01*
X0432700Y0202054D01*
X0433507Y0204002D01*
X0434998Y0205493D01*
X0436222Y0206000D01*
X0434998Y0206507D01*
X0433507Y0207998D01*
X0432700Y0209946D01*
X0432700Y0212054D01*
X0433507Y0214002D01*
X0434998Y0215493D01*
X0436946Y0216300D01*
X0445054Y0216300D01*
X0447002Y0215493D01*
X0448493Y0214002D01*
X0449300Y0212054D01*
X0449300Y0209946D01*
X0448493Y0207998D01*
X0447002Y0206507D01*
X0445778Y0206000D01*
X0447002Y0205493D01*
X0448493Y0204002D01*
X0449300Y0202054D01*
X0449300Y0199946D01*
X0448493Y0197998D01*
X0447002Y0196507D01*
X0445778Y0196000D01*
X0447002Y0195493D01*
X0448493Y0194002D01*
X0449300Y0192054D01*
X0449300Y0189946D01*
X0448493Y0187998D01*
X0447002Y0186507D01*
X0445778Y0186000D01*
X0447002Y0185493D01*
X0448493Y0184002D01*
X0449300Y0182054D01*
X0449300Y0179946D01*
X0448493Y0177998D01*
X0447002Y0176507D01*
X0445778Y0176000D01*
X0447002Y0175493D01*
X0448493Y0174002D01*
X0449300Y0172054D01*
X0449300Y0169946D01*
X0448493Y0167998D01*
X0447002Y0166507D01*
X0445778Y0166000D01*
X0447002Y0165493D01*
X0448493Y0164002D01*
X0449300Y0162054D01*
X0449300Y0159946D01*
X0448493Y0157998D01*
X0447002Y0156507D01*
X0445778Y0156000D01*
X0447002Y0155493D01*
X0448493Y0154002D01*
X0449300Y0152054D01*
X0449300Y0149946D01*
X0448493Y0147998D01*
X0447002Y0146507D01*
X0445054Y0145700D01*
X0436946Y0145700D01*
X0434998Y0146507D01*
X0433507Y0147998D01*
X0432700Y0149946D01*
X0432700Y0152054D01*
X0433507Y0154002D01*
X0434998Y0155493D01*
X0436222Y0156000D01*
X0434998Y0156507D01*
X0433507Y0157998D01*
X0432700Y0159946D01*
X0432700Y0162054D01*
X0433507Y0164002D01*
X0434998Y0165493D01*
X0436222Y0166000D01*
X0434998Y0166507D01*
X0433605Y0167900D01*
X0372383Y0167900D01*
X0371244Y0168372D01*
X0360716Y0178900D01*
X0351383Y0178900D01*
X0350244Y0179372D01*
X0336405Y0193211D01*
X0335431Y0193211D01*
X0333296Y0195346D01*
X0315500Y0177550D01*
X0315500Y0177420D01*
X0316747Y0176172D01*
X0317600Y0174114D01*
X0317600Y0171886D01*
X0316747Y0169828D01*
X0315500Y0168580D01*
X0315500Y0164500D01*
X0351696Y0164500D01*
X0352983Y0163967D01*
X0359967Y0156983D01*
X0360500Y0155696D01*
X0360500Y0136500D01*
X0393550Y0136500D01*
X0394045Y0136994D01*
X0393500Y0138309D01*
X0393500Y0141691D01*
X0394794Y0144815D01*
X0397185Y0147206D01*
X0400309Y0148500D01*
X0403691Y0148500D01*
X0406815Y0147206D01*
X0409206Y0144815D01*
X0410500Y0141691D01*
X0410500Y0138309D01*
X0409206Y0135185D01*
X0406815Y0132794D01*
X0403691Y0131500D01*
X0400309Y0131500D01*
X0398994Y0132045D01*
X0397967Y0131017D01*
X0396983Y0130033D01*
X0395696Y0129500D01*
X0360430Y0129500D01*
X0359030Y0128100D01*
X0354970Y0128100D01*
X0352100Y0130970D01*
X0352100Y0135030D01*
X0353500Y0136430D01*
X0353500Y0153550D01*
X0349550Y0157500D01*
X0334430Y0157500D01*
X0336900Y0155030D01*
X0336900Y0150970D01*
X0334030Y0148100D01*
X0329970Y0148100D01*
X0327100Y0150970D01*
X0327100Y0155030D01*
X0329570Y0157500D01*
X0313450Y0157500D01*
X0306800Y0150850D01*
X0306800Y0144452D01*
X0307435Y0144189D01*
X0309489Y0142135D01*
X0310600Y0139452D01*
X0310600Y0126548D01*
X0309489Y0123865D01*
X0307435Y0121811D01*
X0304752Y0120700D01*
X0301848Y0120700D01*
X0299165Y0121811D01*
X0297111Y0123865D01*
X0296000Y0126548D01*
X0296000Y0139452D01*
X0297111Y0142135D01*
X0299165Y0144189D01*
X0299800Y0144452D01*
X0299800Y0152996D01*
X0300333Y0154283D01*
X0308500Y0162450D01*
X0308500Y0168580D01*
X0307253Y0169828D01*
X0306400Y0171886D01*
X0306400Y0174114D01*
X0307253Y0176172D01*
X0308500Y0177420D01*
X0308500Y0177550D01*
X0294550Y0191500D01*
X0290304Y0191500D01*
X0289017Y0192033D01*
X0286550Y0194500D01*
X0246304Y0194500D01*
X0245017Y0195033D01*
X0244033Y0196017D01*
X0237033Y0203017D01*
X0236500Y0204304D01*
X0236500Y0204500D01*
X0226450Y0204500D01*
X0214983Y0193033D01*
X0213696Y0192500D01*
X0185304Y0192500D01*
X0184017Y0193033D01*
X0183033Y0194017D01*
X0175033Y0202017D01*
X0174500Y0203304D01*
X0174500Y0203570D01*
X0173100Y0204970D01*
X0173100Y0209030D01*
X0175970Y0211900D01*
X0180030Y0211900D01*
X0182100Y0209830D01*
X0182100Y0211030D01*
X0184970Y0213900D01*
X0189030Y0213900D01*
X0191900Y0211030D01*
X0191900Y0206970D01*
X0189030Y0204100D01*
X0184970Y0204100D01*
X0182900Y0206170D01*
X0182900Y0204970D01*
X0182440Y0204510D01*
X0187450Y0199500D01*
X0200142Y0199500D01*
X0199211Y0200431D01*
X0199211Y0203569D01*
X0200900Y0205258D01*
X0200900Y0232617D01*
X0201372Y0233756D01*
X0202244Y0234628D01*
X0223819Y0256203D01*
X0223368Y0263419D01*
X0223016Y0263565D01*
X0221534Y0265047D01*
X0221000Y0266335D01*
X0220466Y0265047D01*
X0218984Y0263565D01*
X0217048Y0262763D01*
X0214952Y0262763D01*
X0213016Y0263565D01*
X0211534Y0265047D01*
X0211000Y0266335D01*
X0210466Y0265047D01*
X0208984Y0263565D01*
X0207048Y0262763D01*
X0204952Y0262763D01*
X0203016Y0263565D01*
X0201534Y0265047D01*
X0201000Y0266335D01*
X0200466Y0265047D01*
X0198984Y0263565D01*
X0197048Y0262763D01*
X0194952Y0262763D01*
X0193016Y0263565D01*
X0191534Y0265047D01*
X0191000Y0266335D01*
X0190466Y0265047D01*
X0188984Y0263565D01*
X0187048Y0262763D01*
X0184952Y0262763D01*
X0183016Y0263565D01*
X0181534Y0265047D01*
X0180731Y0266984D01*
X0180731Y0275016D01*
X0181097Y0275900D01*
X0167900Y0275900D01*
X0138000Y0246000D01*
X0097100Y0246000D01*
X0097100Y0245791D02*
X0213407Y0245791D01*
X0212809Y0245193D02*
X0097100Y0245193D01*
X0097100Y0244594D02*
X0212210Y0244594D01*
X0211612Y0243996D02*
X0097100Y0243996D01*
X0097100Y0243397D02*
X0184467Y0243397D01*
X0184970Y0243900D02*
X0182100Y0241030D01*
X0182100Y0236970D01*
X0184970Y0234100D01*
X0189030Y0234100D01*
X0191900Y0236970D01*
X0191900Y0241030D01*
X0189030Y0243900D01*
X0184970Y0243900D01*
X0183869Y0242799D02*
X0097100Y0242799D01*
X0097100Y0242200D02*
X0122705Y0242200D01*
X0122946Y0242300D02*
X0120998Y0241493D01*
X0119507Y0240002D01*
X0118700Y0238054D01*
X0118700Y0235946D01*
X0119507Y0233998D01*
X0120998Y0232507D01*
X0122222Y0232000D01*
X0120998Y0231493D01*
X0119507Y0230002D01*
X0118700Y0228054D01*
X0118700Y0225946D01*
X0119507Y0223998D01*
X0120998Y0222507D01*
X0122946Y0221700D01*
X0131054Y0221700D01*
X0133002Y0222507D01*
X0134493Y0223998D01*
X0135300Y0225946D01*
X0135300Y0228054D01*
X0134493Y0230002D01*
X0133002Y0231493D01*
X0131778Y0232000D01*
X0133002Y0232507D01*
X0134493Y0233998D01*
X0135300Y0235946D01*
X0135300Y0238054D01*
X0134493Y0240002D01*
X0133002Y0241493D01*
X0131054Y0242300D01*
X0122946Y0242300D01*
X0121260Y0241602D02*
X0097100Y0241602D01*
X0097100Y0241003D02*
X0120508Y0241003D01*
X0119909Y0240405D02*
X0097100Y0240405D01*
X0097100Y0239806D02*
X0119426Y0239806D01*
X0119178Y0239208D02*
X0097100Y0239208D01*
X0097100Y0238609D02*
X0118930Y0238609D01*
X0118700Y0238010D02*
X0097100Y0238010D01*
X0097100Y0237412D02*
X0118700Y0237412D01*
X0118700Y0236813D02*
X0097100Y0236813D01*
X0097100Y0236215D02*
X0118700Y0236215D01*
X0118836Y0235616D02*
X0097100Y0235616D01*
X0097100Y0235018D02*
X0119084Y0235018D01*
X0119332Y0234419D02*
X0097100Y0234419D01*
X0097100Y0233821D02*
X0119684Y0233821D01*
X0120282Y0233222D02*
X0097100Y0233222D01*
X0097100Y0232624D02*
X0120881Y0232624D01*
X0120932Y0231427D02*
X0097100Y0231427D01*
X0097100Y0232025D02*
X0122160Y0232025D01*
X0120333Y0230828D02*
X0097100Y0230828D01*
X0097100Y0230230D02*
X0119735Y0230230D01*
X0119353Y0229631D02*
X0097100Y0229631D01*
X0097100Y0229033D02*
X0119105Y0229033D01*
X0118857Y0228434D02*
X0097100Y0228434D01*
X0097100Y0227836D02*
X0118700Y0227836D01*
X0118700Y0227237D02*
X0097100Y0227237D01*
X0097100Y0226639D02*
X0118700Y0226639D01*
X0118700Y0226040D02*
X0097100Y0226040D01*
X0097100Y0225442D02*
X0118909Y0225442D01*
X0119157Y0224843D02*
X0097100Y0224843D01*
X0097100Y0224245D02*
X0119405Y0224245D01*
X0119858Y0223646D02*
X0097100Y0223646D01*
X0097100Y0223048D02*
X0120457Y0223048D01*
X0121137Y0222449D02*
X0097100Y0222449D01*
X0097100Y0221851D02*
X0122582Y0221851D01*
X0122830Y0221252D02*
X0097100Y0221252D01*
X0097100Y0220654D02*
X0121385Y0220654D01*
X0120998Y0220493D02*
X0119507Y0219002D01*
X0118700Y0217054D01*
X0118700Y0214946D01*
X0119507Y0212998D01*
X0120998Y0211507D01*
X0122222Y0211000D01*
X0120998Y0210493D01*
X0119507Y0209002D01*
X0118700Y0207054D01*
X0118700Y0204946D01*
X0119507Y0202998D01*
X0120998Y0201507D01*
X0122222Y0201000D01*
X0120998Y0200493D01*
X0119507Y0199002D01*
X0118700Y0197054D01*
X0118700Y0194946D01*
X0119507Y0192998D01*
X0120998Y0191507D01*
X0122946Y0190700D01*
X0131054Y0190700D01*
X0133002Y0191507D01*
X0134493Y0192998D01*
X0135300Y0194946D01*
X0135300Y0197054D01*
X0134493Y0199002D01*
X0133002Y0200493D01*
X0131778Y0201000D01*
X0133002Y0201507D01*
X0133995Y0202500D01*
X0134696Y0202500D01*
X0135983Y0203033D01*
X0162010Y0229060D01*
X0163970Y0227100D01*
X0168030Y0227100D01*
X0168486Y0227556D01*
X0168600Y0227280D01*
X0168600Y0226330D01*
X0168030Y0226900D01*
X0163970Y0226900D01*
X0161100Y0224030D01*
X0161100Y0219970D01*
X0162900Y0218170D01*
X0162900Y0197383D01*
X0163372Y0196244D01*
X0164244Y0195372D01*
X0180244Y0179372D01*
X0181383Y0178900D01*
X0193742Y0178900D01*
X0194431Y0178211D01*
X0197569Y0178211D01*
X0199789Y0180431D01*
X0199789Y0183569D01*
X0197569Y0185789D01*
X0194431Y0185789D01*
X0193742Y0185100D01*
X0183284Y0185100D01*
X0169100Y0199284D01*
X0169100Y0218170D01*
X0170900Y0219970D01*
X0170900Y0222670D01*
X0171470Y0222100D01*
X0175530Y0222100D01*
X0178400Y0224970D01*
X0178400Y0229030D01*
X0175530Y0231900D01*
X0175300Y0231900D01*
X0175300Y0235099D01*
X0174767Y0236385D01*
X0173783Y0237370D01*
X0170385Y0240767D01*
X0169099Y0241300D01*
X0162901Y0241300D01*
X0161615Y0240767D01*
X0160630Y0239783D01*
X0158217Y0237370D01*
X0157233Y0236385D01*
X0156700Y0235099D01*
X0156700Y0233650D01*
X0133273Y0210223D01*
X0133002Y0210493D01*
X0131778Y0211000D01*
X0133002Y0211507D01*
X0134493Y0212998D01*
X0135300Y0214946D01*
X0135300Y0217054D01*
X0134493Y0219002D01*
X0133002Y0220493D01*
X0131054Y0221300D01*
X0122946Y0221300D01*
X0120998Y0220493D01*
X0120560Y0220055D02*
X0097100Y0220055D01*
X0097100Y0219457D02*
X0119961Y0219457D01*
X0119447Y0218858D02*
X0097100Y0218858D01*
X0097100Y0218260D02*
X0119199Y0218260D01*
X0118951Y0217661D02*
X0097100Y0217661D01*
X0097100Y0217063D02*
X0118703Y0217063D01*
X0118700Y0216464D02*
X0097100Y0216464D01*
X0097100Y0215866D02*
X0118700Y0215866D01*
X0118700Y0215267D02*
X0097100Y0215267D01*
X0097100Y0214669D02*
X0118815Y0214669D01*
X0119063Y0214070D02*
X0097100Y0214070D01*
X0097100Y0213472D02*
X0119311Y0213472D01*
X0119632Y0212873D02*
X0097100Y0212873D01*
X0097100Y0212274D02*
X0120230Y0212274D01*
X0120829Y0211676D02*
X0097100Y0211676D01*
X0097100Y0211077D02*
X0122034Y0211077D01*
X0120984Y0210479D02*
X0097100Y0210479D01*
X0097100Y0209880D02*
X0120385Y0209880D01*
X0119787Y0209282D02*
X0097100Y0209282D01*
X0097100Y0208683D02*
X0119375Y0208683D01*
X0119127Y0208085D02*
X0097100Y0208085D01*
X0097100Y0207486D02*
X0118879Y0207486D01*
X0118700Y0206888D02*
X0097100Y0206888D01*
X0097100Y0206289D02*
X0118700Y0206289D01*
X0118700Y0205691D02*
X0097100Y0205691D01*
X0097100Y0205092D02*
X0118700Y0205092D01*
X0118887Y0204494D02*
X0097100Y0204494D01*
X0097100Y0203895D02*
X0119135Y0203895D01*
X0119383Y0203297D02*
X0097100Y0203297D01*
X0097100Y0202698D02*
X0119806Y0202698D01*
X0120405Y0202100D02*
X0097100Y0202100D01*
X0097100Y0201501D02*
X0121011Y0201501D01*
X0121987Y0200903D02*
X0097100Y0200903D01*
X0097100Y0200304D02*
X0120809Y0200304D01*
X0120210Y0199706D02*
X0097100Y0199706D01*
X0097100Y0199107D02*
X0119612Y0199107D01*
X0119302Y0198509D02*
X0097100Y0198509D01*
X0097100Y0197910D02*
X0119055Y0197910D01*
X0118807Y0197312D02*
X0097100Y0197312D01*
X0097100Y0196713D02*
X0118700Y0196713D01*
X0118700Y0196115D02*
X0097100Y0196115D01*
X0097100Y0195516D02*
X0118700Y0195516D01*
X0118712Y0194918D02*
X0097100Y0194918D01*
X0097100Y0194319D02*
X0118960Y0194319D01*
X0119207Y0193721D02*
X0097100Y0193721D01*
X0097100Y0193122D02*
X0119455Y0193122D01*
X0119981Y0192524D02*
X0097100Y0192524D01*
X0097100Y0191925D02*
X0120580Y0191925D01*
X0121433Y0191327D02*
X0097100Y0191327D01*
X0097100Y0190728D02*
X0122878Y0190728D01*
X0131122Y0190728D02*
X0168888Y0190728D01*
X0169486Y0190130D02*
X0097100Y0190130D01*
X0097100Y0189531D02*
X0170085Y0189531D01*
X0170683Y0188933D02*
X0097100Y0188933D01*
X0097100Y0188334D02*
X0171282Y0188334D01*
X0171880Y0187736D02*
X0097100Y0187736D01*
X0097100Y0187137D02*
X0172479Y0187137D01*
X0173077Y0186539D02*
X0097100Y0186539D01*
X0097100Y0185940D02*
X0173676Y0185940D01*
X0174274Y0185341D02*
X0097100Y0185341D01*
X0097100Y0184743D02*
X0174873Y0184743D01*
X0175471Y0184144D02*
X0097100Y0184144D01*
X0097100Y0183546D02*
X0176070Y0183546D01*
X0176668Y0182947D02*
X0097100Y0182947D01*
X0097100Y0182349D02*
X0177267Y0182349D01*
X0177866Y0181750D02*
X0131111Y0181750D01*
X0131254Y0181678D02*
X0130651Y0181985D01*
X0130007Y0182194D01*
X0129338Y0182300D01*
X0126300Y0182300D01*
X0126300Y0178300D01*
X0125700Y0178300D01*
X0125700Y0182300D01*
X0122662Y0182300D01*
X0121993Y0182194D01*
X0121349Y0181985D01*
X0120746Y0181678D01*
X0120199Y0181280D01*
X0119720Y0180801D01*
X0119322Y0180254D01*
X0119015Y0179651D01*
X0118806Y0179007D01*
X0118700Y0178338D01*
X0118700Y0178300D01*
X0125700Y0178300D01*
X0125700Y0177700D01*
X0126300Y0177700D01*
X0126300Y0178300D01*
X0133300Y0178300D01*
X0133300Y0178338D01*
X0133194Y0179007D01*
X0132985Y0179651D01*
X0132678Y0180254D01*
X0132280Y0180801D01*
X0131801Y0181280D01*
X0131254Y0181678D01*
X0131929Y0181152D02*
X0178464Y0181152D01*
X0179063Y0180553D02*
X0132460Y0180553D01*
X0132830Y0179955D02*
X0179661Y0179955D01*
X0180282Y0179356D02*
X0133081Y0179356D01*
X0133234Y0178758D02*
X0193884Y0178758D01*
X0198116Y0178758D02*
X0307292Y0178758D01*
X0306694Y0179356D02*
X0198715Y0179356D01*
X0199313Y0179955D02*
X0306095Y0179955D01*
X0305497Y0180553D02*
X0199789Y0180553D01*
X0199789Y0181152D02*
X0242918Y0181152D01*
X0242970Y0181100D02*
X0247030Y0181100D01*
X0249900Y0183970D01*
X0249900Y0188030D01*
X0247030Y0190900D01*
X0242970Y0190900D01*
X0240100Y0188030D01*
X0240100Y0183970D01*
X0242970Y0181100D01*
X0242320Y0181750D02*
X0199789Y0181750D01*
X0199789Y0182349D02*
X0213136Y0182349D01*
X0213385Y0182100D02*
X0214700Y0182100D01*
X0214700Y0185700D01*
X0215300Y0185700D01*
X0215300Y0186300D01*
X0218900Y0186300D01*
X0218900Y0187615D01*
X0216615Y0189900D01*
X0215300Y0189900D01*
X0215300Y0186300D01*
X0214700Y0186300D01*
X0214700Y0189900D01*
X0213385Y0189900D01*
X0211100Y0187615D01*
X0211100Y0186300D01*
X0214700Y0186300D01*
X0214700Y0185700D01*
X0211100Y0185700D01*
X0211100Y0184385D01*
X0213385Y0182100D01*
X0212537Y0182947D02*
X0199789Y0182947D01*
X0199789Y0183546D02*
X0211939Y0183546D01*
X0211340Y0184144D02*
X0199214Y0184144D01*
X0198615Y0184743D02*
X0211100Y0184743D01*
X0211100Y0185341D02*
X0198017Y0185341D01*
X0193983Y0185341D02*
X0183043Y0185341D01*
X0182444Y0185940D02*
X0214700Y0185940D01*
X0214700Y0186539D02*
X0215300Y0186539D01*
X0215300Y0187137D02*
X0214700Y0187137D01*
X0214700Y0187736D02*
X0215300Y0187736D01*
X0215300Y0188334D02*
X0214700Y0188334D01*
X0214700Y0188933D02*
X0215300Y0188933D01*
X0215300Y0189531D02*
X0214700Y0189531D01*
X0213016Y0189531D02*
X0178853Y0189531D01*
X0179451Y0188933D02*
X0212417Y0188933D01*
X0211819Y0188334D02*
X0180050Y0188334D01*
X0180649Y0187736D02*
X0211220Y0187736D01*
X0211100Y0187137D02*
X0181247Y0187137D01*
X0181846Y0186539D02*
X0211100Y0186539D01*
X0214700Y0185341D02*
X0215300Y0185341D01*
X0215300Y0185700D02*
X0215300Y0182100D01*
X0216615Y0182100D01*
X0218900Y0184385D01*
X0218900Y0185700D01*
X0215300Y0185700D01*
X0215300Y0185940D02*
X0240100Y0185940D01*
X0240100Y0186539D02*
X0218900Y0186539D01*
X0218900Y0187137D02*
X0240100Y0187137D01*
X0240100Y0187736D02*
X0218780Y0187736D01*
X0218181Y0188334D02*
X0240404Y0188334D01*
X0241003Y0188933D02*
X0217583Y0188933D01*
X0216984Y0189531D02*
X0241601Y0189531D01*
X0242200Y0190130D02*
X0178254Y0190130D01*
X0177656Y0190728D02*
X0242798Y0190728D01*
X0247202Y0190728D02*
X0260798Y0190728D01*
X0260970Y0190900D02*
X0258100Y0188030D01*
X0258100Y0183970D01*
X0260970Y0181100D01*
X0265030Y0181100D01*
X0267900Y0183970D01*
X0267900Y0188030D01*
X0265030Y0190900D01*
X0260970Y0190900D01*
X0260200Y0190130D02*
X0247800Y0190130D01*
X0248399Y0189531D02*
X0259601Y0189531D01*
X0259003Y0188933D02*
X0248997Y0188933D01*
X0249596Y0188334D02*
X0258404Y0188334D01*
X0258100Y0187736D02*
X0249900Y0187736D01*
X0249900Y0187137D02*
X0258100Y0187137D01*
X0258100Y0186539D02*
X0249900Y0186539D01*
X0249900Y0185940D02*
X0258100Y0185940D01*
X0258100Y0185341D02*
X0249900Y0185341D01*
X0249900Y0184743D02*
X0258100Y0184743D01*
X0258100Y0184144D02*
X0249900Y0184144D01*
X0249476Y0183546D02*
X0258524Y0183546D01*
X0259123Y0182947D02*
X0248877Y0182947D01*
X0248279Y0182349D02*
X0259721Y0182349D01*
X0260320Y0181750D02*
X0247680Y0181750D01*
X0247082Y0181152D02*
X0260918Y0181152D01*
X0265082Y0181152D02*
X0290918Y0181152D01*
X0290970Y0181100D02*
X0295030Y0181100D01*
X0297900Y0183970D01*
X0297900Y0188030D01*
X0295030Y0190900D01*
X0290970Y0190900D01*
X0288100Y0188030D01*
X0288100Y0183970D01*
X0290970Y0181100D01*
X0290320Y0181750D02*
X0265680Y0181750D01*
X0266279Y0182349D02*
X0289721Y0182349D01*
X0289123Y0182947D02*
X0266877Y0182947D01*
X0267476Y0183546D02*
X0288524Y0183546D01*
X0288100Y0184144D02*
X0267900Y0184144D01*
X0267900Y0184743D02*
X0288100Y0184743D01*
X0288100Y0185341D02*
X0267900Y0185341D01*
X0267900Y0185940D02*
X0288100Y0185940D01*
X0288100Y0186539D02*
X0267900Y0186539D01*
X0267900Y0187137D02*
X0288100Y0187137D01*
X0288100Y0187736D02*
X0267900Y0187736D01*
X0267596Y0188334D02*
X0288404Y0188334D01*
X0289003Y0188933D02*
X0266997Y0188933D01*
X0266399Y0189531D02*
X0289601Y0189531D01*
X0290200Y0190130D02*
X0265800Y0190130D01*
X0265202Y0190728D02*
X0290798Y0190728D01*
X0289277Y0191925D02*
X0176459Y0191925D01*
X0177057Y0191327D02*
X0294724Y0191327D01*
X0295202Y0190728D02*
X0295322Y0190728D01*
X0295800Y0190130D02*
X0295921Y0190130D01*
X0296399Y0189531D02*
X0296519Y0189531D01*
X0296997Y0188933D02*
X0297118Y0188933D01*
X0297596Y0188334D02*
X0297716Y0188334D01*
X0297900Y0187736D02*
X0298315Y0187736D01*
X0297900Y0187137D02*
X0298913Y0187137D01*
X0299512Y0186539D02*
X0297900Y0186539D01*
X0297900Y0185940D02*
X0300110Y0185940D01*
X0300709Y0185341D02*
X0297900Y0185341D01*
X0297900Y0184743D02*
X0301307Y0184743D01*
X0301906Y0184144D02*
X0297900Y0184144D01*
X0297476Y0183546D02*
X0302504Y0183546D01*
X0303103Y0182947D02*
X0296877Y0182947D01*
X0296279Y0182349D02*
X0303701Y0182349D01*
X0304300Y0181750D02*
X0295680Y0181750D01*
X0295082Y0181152D02*
X0304898Y0181152D01*
X0307891Y0178159D02*
X0126300Y0178159D01*
X0126300Y0177700D02*
X0133300Y0177700D01*
X0133300Y0177662D01*
X0133194Y0176993D01*
X0132985Y0176349D01*
X0132678Y0175746D01*
X0132280Y0175199D01*
X0131801Y0174720D01*
X0131254Y0174322D01*
X0130651Y0174015D01*
X0130007Y0173806D01*
X0129338Y0173700D01*
X0126300Y0173700D01*
X0126300Y0177700D01*
X0126300Y0177561D02*
X0125700Y0177561D01*
X0125700Y0177700D02*
X0125700Y0173700D01*
X0122662Y0173700D01*
X0121993Y0173806D01*
X0121349Y0174015D01*
X0120746Y0174322D01*
X0120199Y0174720D01*
X0119720Y0175199D01*
X0119322Y0175746D01*
X0119015Y0176349D01*
X0118806Y0176993D01*
X0118700Y0177662D01*
X0118700Y0177700D01*
X0125700Y0177700D01*
X0125700Y0178159D02*
X0097100Y0178159D01*
X0097100Y0177561D02*
X0118716Y0177561D01*
X0118816Y0176962D02*
X0097100Y0176962D01*
X0097100Y0176364D02*
X0119010Y0176364D01*
X0119313Y0175765D02*
X0097100Y0175765D01*
X0097100Y0175167D02*
X0119752Y0175167D01*
X0120408Y0174568D02*
X0097100Y0174568D01*
X0097100Y0173970D02*
X0121489Y0173970D01*
X0121946Y0173300D02*
X0119998Y0172493D01*
X0118507Y0171002D01*
X0117700Y0169054D01*
X0117700Y0166946D01*
X0118507Y0164998D01*
X0119998Y0163507D01*
X0121946Y0162700D01*
X0126350Y0162700D01*
X0138033Y0151017D01*
X0139017Y0150033D01*
X0140304Y0149500D01*
X0162550Y0149500D01*
X0181033Y0131017D01*
X0182017Y0130033D01*
X0183304Y0129500D01*
X0197400Y0129500D01*
X0197400Y0126548D01*
X0198511Y0123865D01*
X0200565Y0121811D01*
X0203248Y0120700D01*
X0206152Y0120700D01*
X0208835Y0121811D01*
X0210889Y0123865D01*
X0212000Y0126548D01*
X0212000Y0139452D01*
X0210889Y0142135D01*
X0208835Y0144189D01*
X0206152Y0145300D01*
X0203248Y0145300D01*
X0200565Y0144189D01*
X0198511Y0142135D01*
X0197400Y0139452D01*
X0197400Y0136500D01*
X0185450Y0136500D01*
X0166967Y0154983D01*
X0165983Y0155967D01*
X0164696Y0156500D01*
X0142450Y0156500D01*
X0133627Y0165322D01*
X0134300Y0166946D01*
X0134300Y0169054D01*
X0133493Y0171002D01*
X0132002Y0172493D01*
X0130054Y0173300D01*
X0121946Y0173300D01*
X0120673Y0172773D02*
X0097100Y0172773D01*
X0097100Y0173371D02*
X0154100Y0173371D01*
X0154100Y0173700D02*
X0154100Y0172385D01*
X0156385Y0170100D01*
X0157700Y0170100D01*
X0157700Y0173700D01*
X0154100Y0173700D01*
X0154100Y0174300D02*
X0157700Y0174300D01*
X0157700Y0177900D01*
X0156385Y0177900D01*
X0154100Y0175615D01*
X0154100Y0174300D01*
X0154100Y0174568D02*
X0131592Y0174568D01*
X0132248Y0175167D02*
X0154100Y0175167D01*
X0154250Y0175765D02*
X0132687Y0175765D01*
X0132990Y0176364D02*
X0154848Y0176364D01*
X0155447Y0176962D02*
X0133184Y0176962D01*
X0133284Y0177561D02*
X0156045Y0177561D01*
X0157700Y0177561D02*
X0158300Y0177561D01*
X0158300Y0177900D02*
X0158300Y0174300D01*
X0157700Y0174300D01*
X0157700Y0173700D01*
X0158300Y0173700D01*
X0158300Y0174300D01*
X0161900Y0174300D01*
X0161900Y0175615D01*
X0159615Y0177900D01*
X0158300Y0177900D01*
X0158300Y0176962D02*
X0157700Y0176962D01*
X0157700Y0176364D02*
X0158300Y0176364D01*
X0158300Y0175765D02*
X0157700Y0175765D01*
X0157700Y0175167D02*
X0158300Y0175167D01*
X0158300Y0174568D02*
X0157700Y0174568D01*
X0157700Y0173970D02*
X0130511Y0173970D01*
X0131327Y0172773D02*
X0154100Y0172773D01*
X0154310Y0172174D02*
X0132321Y0172174D01*
X0132920Y0171576D02*
X0154909Y0171576D01*
X0155507Y0170977D02*
X0133503Y0170977D01*
X0133751Y0170379D02*
X0156106Y0170379D01*
X0157700Y0170379D02*
X0158300Y0170379D01*
X0158300Y0170100D02*
X0159615Y0170100D01*
X0161900Y0172385D01*
X0161900Y0173700D01*
X0158300Y0173700D01*
X0158300Y0170100D01*
X0158300Y0170977D02*
X0157700Y0170977D01*
X0157700Y0171576D02*
X0158300Y0171576D01*
X0158300Y0172174D02*
X0157700Y0172174D01*
X0157700Y0172773D02*
X0158300Y0172773D01*
X0158300Y0173371D02*
X0157700Y0173371D01*
X0158300Y0173970D02*
X0212454Y0173970D01*
X0211856Y0173371D02*
X0161900Y0173371D01*
X0161900Y0172773D02*
X0211257Y0172773D01*
X0211100Y0172615D02*
X0211100Y0171300D01*
X0214700Y0171300D01*
X0214700Y0174900D01*
X0213385Y0174900D01*
X0211100Y0172615D01*
X0211100Y0172174D02*
X0161690Y0172174D01*
X0161091Y0171576D02*
X0211100Y0171576D01*
X0211100Y0170700D02*
X0211100Y0169385D01*
X0213385Y0167100D01*
X0214700Y0167100D01*
X0214700Y0170700D01*
X0215300Y0170700D01*
X0215300Y0171300D01*
X0218900Y0171300D01*
X0218900Y0172615D01*
X0216615Y0174900D01*
X0215300Y0174900D01*
X0215300Y0171300D01*
X0214700Y0171300D01*
X0214700Y0170700D01*
X0211100Y0170700D01*
X0211100Y0170379D02*
X0186844Y0170379D01*
X0186245Y0170977D02*
X0214700Y0170977D01*
X0214700Y0170379D02*
X0215300Y0170379D01*
X0215300Y0170700D02*
X0215300Y0167100D01*
X0216615Y0167100D01*
X0218900Y0169385D01*
X0218900Y0170700D01*
X0215300Y0170700D01*
X0215300Y0170977D02*
X0240100Y0170977D01*
X0240100Y0170379D02*
X0218900Y0170379D01*
X0218900Y0169780D02*
X0240100Y0169780D01*
X0240100Y0169182D02*
X0218697Y0169182D01*
X0218099Y0168583D02*
X0240487Y0168583D01*
X0240100Y0168970D02*
X0242970Y0166100D01*
X0247030Y0166100D01*
X0249900Y0168970D01*
X0249900Y0173030D01*
X0247030Y0175900D01*
X0242970Y0175900D01*
X0240100Y0173030D01*
X0240100Y0168970D01*
X0241086Y0167985D02*
X0217500Y0167985D01*
X0216902Y0167386D02*
X0241684Y0167386D01*
X0242283Y0166788D02*
X0204571Y0166788D01*
X0204569Y0166789D02*
X0201431Y0166789D01*
X0199211Y0164569D01*
X0199211Y0161431D01*
X0199500Y0161142D01*
X0199500Y0155304D01*
X0200033Y0154017D01*
X0201017Y0153033D01*
X0204211Y0149839D01*
X0204211Y0149431D01*
X0172519Y0149431D01*
X0171920Y0150029D02*
X0204021Y0150029D01*
X0204211Y0149431D02*
X0206431Y0147211D01*
X0209569Y0147211D01*
X0211789Y0149431D01*
X0299800Y0149431D01*
X0299800Y0150029D02*
X0211789Y0150029D01*
X0211789Y0149431D02*
X0211789Y0152569D01*
X0209569Y0154789D01*
X0209161Y0154789D01*
X0206500Y0157450D01*
X0206500Y0161142D01*
X0206789Y0161431D01*
X0206789Y0164569D01*
X0204569Y0166789D01*
X0205169Y0166189D02*
X0242881Y0166189D01*
X0247119Y0166189D02*
X0260881Y0166189D01*
X0260970Y0166100D02*
X0265030Y0166100D01*
X0267900Y0168970D01*
X0267900Y0173030D01*
X0265030Y0175900D01*
X0260970Y0175900D01*
X0258100Y0173030D01*
X0258100Y0168970D01*
X0260970Y0166100D01*
X0260283Y0166788D02*
X0247717Y0166788D01*
X0248316Y0167386D02*
X0259684Y0167386D01*
X0259086Y0167985D02*
X0248914Y0167985D01*
X0249513Y0168583D02*
X0258487Y0168583D01*
X0258100Y0169182D02*
X0249900Y0169182D01*
X0249900Y0169780D02*
X0258100Y0169780D01*
X0258100Y0170379D02*
X0249900Y0170379D01*
X0249900Y0170977D02*
X0258100Y0170977D01*
X0258100Y0171576D02*
X0249900Y0171576D01*
X0249900Y0172174D02*
X0258100Y0172174D01*
X0258100Y0172773D02*
X0249900Y0172773D01*
X0249558Y0173371D02*
X0258442Y0173371D01*
X0259040Y0173970D02*
X0248960Y0173970D01*
X0248361Y0174568D02*
X0259639Y0174568D01*
X0260237Y0175167D02*
X0247763Y0175167D01*
X0247164Y0175765D02*
X0260836Y0175765D01*
X0265164Y0175765D02*
X0290836Y0175765D01*
X0290970Y0175900D02*
X0288100Y0173030D01*
X0288100Y0168970D01*
X0290970Y0166100D01*
X0295030Y0166100D01*
X0297900Y0168970D01*
X0297900Y0173030D01*
X0295030Y0175900D01*
X0290970Y0175900D01*
X0290237Y0175167D02*
X0265763Y0175167D01*
X0266361Y0174568D02*
X0289639Y0174568D01*
X0289040Y0173970D02*
X0266960Y0173970D01*
X0267558Y0173371D02*
X0288442Y0173371D01*
X0288100Y0172773D02*
X0267900Y0172773D01*
X0267900Y0172174D02*
X0288100Y0172174D01*
X0288100Y0171576D02*
X0267900Y0171576D01*
X0267900Y0170977D02*
X0288100Y0170977D01*
X0288100Y0170379D02*
X0267900Y0170379D01*
X0267900Y0169780D02*
X0288100Y0169780D01*
X0288100Y0169182D02*
X0267900Y0169182D01*
X0267513Y0168583D02*
X0288487Y0168583D01*
X0289086Y0167985D02*
X0266914Y0167985D01*
X0266316Y0167386D02*
X0289684Y0167386D01*
X0290283Y0166788D02*
X0265717Y0166788D01*
X0265119Y0166189D02*
X0290881Y0166189D01*
X0295119Y0166189D02*
X0308500Y0166189D01*
X0308500Y0165591D02*
X0205768Y0165591D01*
X0206366Y0164992D02*
X0308500Y0164992D01*
X0308500Y0164394D02*
X0206789Y0164394D01*
X0206789Y0163795D02*
X0308500Y0163795D01*
X0308500Y0163197D02*
X0206789Y0163197D01*
X0206789Y0162598D02*
X0308500Y0162598D01*
X0308050Y0162000D02*
X0206789Y0162000D01*
X0206759Y0161401D02*
X0307451Y0161401D01*
X0306853Y0160803D02*
X0206500Y0160803D01*
X0206500Y0160204D02*
X0306254Y0160204D01*
X0305656Y0159605D02*
X0206500Y0159605D01*
X0206500Y0159007D02*
X0305057Y0159007D01*
X0304459Y0158408D02*
X0206500Y0158408D01*
X0206500Y0157810D02*
X0303860Y0157810D01*
X0303262Y0157211D02*
X0206738Y0157211D01*
X0207337Y0156613D02*
X0302663Y0156613D01*
X0302065Y0156014D02*
X0207935Y0156014D01*
X0208534Y0155416D02*
X0301466Y0155416D01*
X0300868Y0154817D02*
X0209132Y0154817D01*
X0210140Y0154219D02*
X0300306Y0154219D01*
X0300059Y0153620D02*
X0210738Y0153620D01*
X0211337Y0153022D02*
X0299811Y0153022D01*
X0299800Y0152423D02*
X0211789Y0152423D01*
X0211789Y0151825D02*
X0299800Y0151825D01*
X0299800Y0151226D02*
X0211789Y0151226D01*
X0211789Y0150628D02*
X0299800Y0150628D01*
X0299800Y0148832D02*
X0211191Y0148832D01*
X0210592Y0148234D02*
X0299800Y0148234D01*
X0299800Y0147635D02*
X0209994Y0147635D01*
X0208980Y0144044D02*
X0299020Y0144044D01*
X0298422Y0143446D02*
X0209578Y0143446D01*
X0210177Y0142847D02*
X0297823Y0142847D01*
X0297225Y0142249D02*
X0210775Y0142249D01*
X0211090Y0141650D02*
X0296910Y0141650D01*
X0296663Y0141052D02*
X0211337Y0141052D01*
X0211585Y0140453D02*
X0296415Y0140453D01*
X0296167Y0139855D02*
X0211833Y0139855D01*
X0212000Y0139256D02*
X0296000Y0139256D01*
X0296000Y0138658D02*
X0212000Y0138658D01*
X0212000Y0138059D02*
X0296000Y0138059D01*
X0296000Y0137461D02*
X0212000Y0137461D01*
X0212000Y0136862D02*
X0296000Y0136862D01*
X0296000Y0136264D02*
X0212000Y0136264D01*
X0212000Y0135665D02*
X0296000Y0135665D01*
X0296000Y0135067D02*
X0212000Y0135067D01*
X0212000Y0134468D02*
X0296000Y0134468D01*
X0296000Y0133870D02*
X0212000Y0133870D01*
X0212000Y0133271D02*
X0296000Y0133271D01*
X0296000Y0132672D02*
X0212000Y0132672D01*
X0212000Y0132074D02*
X0296000Y0132074D01*
X0296000Y0131475D02*
X0212000Y0131475D01*
X0212000Y0130877D02*
X0296000Y0130877D01*
X0296000Y0130278D02*
X0212000Y0130278D01*
X0212000Y0129680D02*
X0296000Y0129680D01*
X0296000Y0129081D02*
X0212000Y0129081D01*
X0212000Y0128483D02*
X0296000Y0128483D01*
X0296000Y0127884D02*
X0212000Y0127884D01*
X0212000Y0127286D02*
X0296000Y0127286D01*
X0296000Y0126687D02*
X0212000Y0126687D01*
X0211810Y0126089D02*
X0296190Y0126089D01*
X0296438Y0125490D02*
X0211562Y0125490D01*
X0211314Y0124892D02*
X0296686Y0124892D01*
X0296934Y0124293D02*
X0211066Y0124293D01*
X0210719Y0123695D02*
X0297281Y0123695D01*
X0297880Y0123096D02*
X0210120Y0123096D01*
X0209522Y0122498D02*
X0298478Y0122498D01*
X0299077Y0121899D02*
X0208923Y0121899D01*
X0207602Y0121301D02*
X0300398Y0121301D01*
X0301842Y0120702D02*
X0206158Y0120702D01*
X0203242Y0120702D02*
X0177520Y0120702D01*
X0178119Y0120104D02*
X0354381Y0120104D01*
X0353782Y0120702D02*
X0304758Y0120702D01*
X0306202Y0121301D02*
X0353184Y0121301D01*
X0353100Y0121385D02*
X0355385Y0119100D01*
X0356700Y0119100D01*
X0356700Y0122700D01*
X0353100Y0122700D01*
X0353100Y0121385D01*
X0353100Y0121899D02*
X0307523Y0121899D01*
X0308122Y0122498D02*
X0353100Y0122498D01*
X0353100Y0123300D02*
X0356700Y0123300D01*
X0356700Y0126900D01*
X0355385Y0126900D01*
X0353100Y0124615D01*
X0353100Y0123300D01*
X0353100Y0123695D02*
X0309319Y0123695D01*
X0309666Y0124293D02*
X0353100Y0124293D01*
X0353376Y0124892D02*
X0309914Y0124892D01*
X0310162Y0125490D02*
X0353975Y0125490D01*
X0354573Y0126089D02*
X0310410Y0126089D01*
X0310600Y0126687D02*
X0355172Y0126687D01*
X0356700Y0126687D02*
X0357300Y0126687D01*
X0357300Y0126900D02*
X0357300Y0123300D01*
X0356700Y0123300D01*
X0356700Y0122700D01*
X0357300Y0122700D01*
X0357300Y0123300D01*
X0360900Y0123300D01*
X0360900Y0124615D01*
X0358615Y0126900D01*
X0357300Y0126900D01*
X0357300Y0126089D02*
X0356700Y0126089D01*
X0356700Y0125490D02*
X0357300Y0125490D01*
X0357300Y0124892D02*
X0356700Y0124892D01*
X0356700Y0124293D02*
X0357300Y0124293D01*
X0357300Y0123695D02*
X0356700Y0123695D01*
X0356700Y0123096D02*
X0308720Y0123096D01*
X0310600Y0127286D02*
X0460000Y0127286D01*
X0460000Y0127884D02*
X0310600Y0127884D01*
X0310600Y0128483D02*
X0354587Y0128483D01*
X0353989Y0129081D02*
X0310600Y0129081D01*
X0310600Y0129680D02*
X0353390Y0129680D01*
X0352792Y0130278D02*
X0310600Y0130278D01*
X0310600Y0130877D02*
X0352193Y0130877D01*
X0352100Y0131475D02*
X0310600Y0131475D01*
X0310600Y0132074D02*
X0352100Y0132074D01*
X0352100Y0132672D02*
X0310600Y0132672D01*
X0310600Y0133271D02*
X0352100Y0133271D01*
X0352100Y0133870D02*
X0310600Y0133870D01*
X0310600Y0134468D02*
X0352100Y0134468D01*
X0352137Y0135067D02*
X0310600Y0135067D01*
X0310600Y0135665D02*
X0352735Y0135665D01*
X0353334Y0136264D02*
X0310600Y0136264D01*
X0310600Y0136862D02*
X0353500Y0136862D01*
X0353500Y0137461D02*
X0310600Y0137461D01*
X0310600Y0138059D02*
X0353500Y0138059D01*
X0353500Y0138658D02*
X0310600Y0138658D01*
X0310600Y0139256D02*
X0353500Y0139256D01*
X0353500Y0139855D02*
X0310433Y0139855D01*
X0310185Y0140453D02*
X0353500Y0140453D01*
X0353500Y0141052D02*
X0309937Y0141052D01*
X0309690Y0141650D02*
X0353500Y0141650D01*
X0353500Y0142249D02*
X0309375Y0142249D01*
X0308777Y0142847D02*
X0353500Y0142847D01*
X0353500Y0143446D02*
X0308178Y0143446D01*
X0307580Y0144044D02*
X0353500Y0144044D01*
X0353500Y0144643D02*
X0306800Y0144643D01*
X0306800Y0145241D02*
X0353500Y0145241D01*
X0353500Y0145840D02*
X0306800Y0145840D01*
X0306800Y0146438D02*
X0353500Y0146438D01*
X0353500Y0147037D02*
X0306800Y0147037D01*
X0306800Y0147635D02*
X0353500Y0147635D01*
X0353500Y0148234D02*
X0334163Y0148234D01*
X0334762Y0148832D02*
X0353500Y0148832D01*
X0353500Y0149431D02*
X0335360Y0149431D01*
X0335959Y0150029D02*
X0353500Y0150029D01*
X0353500Y0150628D02*
X0336557Y0150628D01*
X0336900Y0151226D02*
X0353500Y0151226D01*
X0353500Y0151825D02*
X0336900Y0151825D01*
X0336900Y0152423D02*
X0353500Y0152423D01*
X0353500Y0153022D02*
X0336900Y0153022D01*
X0336900Y0153620D02*
X0353430Y0153620D01*
X0352831Y0154219D02*
X0336900Y0154219D01*
X0336900Y0154817D02*
X0352233Y0154817D01*
X0351634Y0155416D02*
X0336514Y0155416D01*
X0335915Y0156014D02*
X0351036Y0156014D01*
X0350437Y0156613D02*
X0335317Y0156613D01*
X0334718Y0157211D02*
X0349839Y0157211D01*
X0354950Y0162000D02*
X0432700Y0162000D01*
X0432700Y0161401D02*
X0355549Y0161401D01*
X0356147Y0160803D02*
X0432700Y0160803D01*
X0432700Y0160204D02*
X0356746Y0160204D01*
X0357344Y0159605D02*
X0432841Y0159605D01*
X0433089Y0159007D02*
X0357943Y0159007D01*
X0358541Y0158408D02*
X0433337Y0158408D01*
X0433695Y0157810D02*
X0359140Y0157810D01*
X0359738Y0157211D02*
X0434293Y0157211D01*
X0434892Y0156613D02*
X0360120Y0156613D01*
X0360368Y0156014D02*
X0436187Y0156014D01*
X0434921Y0155416D02*
X0360500Y0155416D01*
X0360500Y0154817D02*
X0434322Y0154817D01*
X0433724Y0154219D02*
X0360500Y0154219D01*
X0360500Y0153620D02*
X0433349Y0153620D01*
X0433101Y0153022D02*
X0360500Y0153022D01*
X0360500Y0152423D02*
X0432853Y0152423D01*
X0432700Y0151825D02*
X0360500Y0151825D01*
X0360500Y0151226D02*
X0432700Y0151226D01*
X0432700Y0150628D02*
X0360500Y0150628D01*
X0360500Y0150029D02*
X0432700Y0150029D01*
X0432913Y0149431D02*
X0360500Y0149431D01*
X0360500Y0148832D02*
X0433161Y0148832D01*
X0433409Y0148234D02*
X0404333Y0148234D01*
X0405778Y0147635D02*
X0433869Y0147635D01*
X0434468Y0147037D02*
X0406984Y0147037D01*
X0407583Y0146438D02*
X0435163Y0146438D01*
X0436608Y0145840D02*
X0408181Y0145840D01*
X0408780Y0145241D02*
X0460000Y0145241D01*
X0460000Y0144643D02*
X0409277Y0144643D01*
X0409525Y0144044D02*
X0460000Y0144044D01*
X0460000Y0143446D02*
X0409773Y0143446D01*
X0410021Y0142847D02*
X0460000Y0142847D01*
X0460000Y0142249D02*
X0410269Y0142249D01*
X0410500Y0141650D02*
X0460000Y0141650D01*
X0460000Y0141052D02*
X0410500Y0141052D01*
X0410500Y0140453D02*
X0460000Y0140453D01*
X0460000Y0139855D02*
X0410500Y0139855D01*
X0410500Y0139256D02*
X0460000Y0139256D01*
X0460000Y0138658D02*
X0410500Y0138658D01*
X0410396Y0138059D02*
X0460000Y0138059D01*
X0460000Y0137461D02*
X0410148Y0137461D01*
X0409901Y0136862D02*
X0460000Y0136862D01*
X0460000Y0136264D02*
X0409653Y0136264D01*
X0409405Y0135665D02*
X0460000Y0135665D01*
X0460000Y0135067D02*
X0409087Y0135067D01*
X0408489Y0134468D02*
X0460000Y0134468D01*
X0460000Y0133870D02*
X0407890Y0133870D01*
X0407292Y0133271D02*
X0460000Y0133271D01*
X0460000Y0132672D02*
X0406521Y0132672D01*
X0405076Y0132074D02*
X0460000Y0132074D01*
X0460000Y0131475D02*
X0398425Y0131475D01*
X0397827Y0130877D02*
X0460000Y0130877D01*
X0460000Y0130278D02*
X0397228Y0130278D01*
X0396131Y0129680D02*
X0460000Y0129680D01*
X0460000Y0129081D02*
X0360011Y0129081D01*
X0359413Y0128483D02*
X0460000Y0128483D01*
X0460000Y0126687D02*
X0358828Y0126687D01*
X0359427Y0126089D02*
X0460000Y0126089D01*
X0460000Y0125490D02*
X0360025Y0125490D01*
X0360624Y0124892D02*
X0460000Y0124892D01*
X0460000Y0124293D02*
X0360900Y0124293D01*
X0360900Y0123695D02*
X0460000Y0123695D01*
X0460000Y0123096D02*
X0357300Y0123096D01*
X0357300Y0122700D02*
X0360900Y0122700D01*
X0360900Y0121385D01*
X0358615Y0119100D01*
X0357300Y0119100D01*
X0357300Y0122700D01*
X0357300Y0122498D02*
X0356700Y0122498D01*
X0356700Y0121899D02*
X0357300Y0121899D01*
X0357300Y0121301D02*
X0356700Y0121301D01*
X0356700Y0120702D02*
X0357300Y0120702D01*
X0357300Y0120104D02*
X0356700Y0120104D01*
X0356700Y0119505D02*
X0357300Y0119505D01*
X0359021Y0119505D02*
X0460000Y0119505D01*
X0460000Y0118907D02*
X0179316Y0118907D01*
X0179400Y0118823D02*
X0176823Y0121400D01*
X0175300Y0121400D01*
X0175300Y0117300D01*
X0174700Y0117300D01*
X0174700Y0121400D01*
X0173177Y0121400D01*
X0170600Y0118823D01*
X0170600Y0117300D01*
X0174700Y0117300D01*
X0174700Y0116700D01*
X0170600Y0116700D01*
X0170600Y0115177D01*
X0173177Y0112600D01*
X0174700Y0112600D01*
X0174700Y0116700D01*
X0175300Y0116700D01*
X0175300Y0117300D01*
X0179400Y0117300D01*
X0179400Y0118823D01*
X0179400Y0118308D02*
X0460000Y0118308D01*
X0460000Y0117710D02*
X0179400Y0117710D01*
X0179400Y0116700D02*
X0175300Y0116700D01*
X0175300Y0112600D01*
X0176823Y0112600D01*
X0179400Y0115177D01*
X0179400Y0116700D01*
X0179400Y0116513D02*
X0397906Y0116513D01*
X0398505Y0117111D02*
X0175300Y0117111D01*
X0175300Y0116513D02*
X0174700Y0116513D01*
X0174700Y0117111D02*
X0097100Y0117111D01*
X0097100Y0116513D02*
X0170600Y0116513D01*
X0170600Y0115914D02*
X0097100Y0115914D01*
X0097100Y0115316D02*
X0170600Y0115316D01*
X0171060Y0114717D02*
X0097100Y0114717D01*
X0097100Y0114119D02*
X0171659Y0114119D01*
X0172257Y0113520D02*
X0097100Y0113520D01*
X0097100Y0112922D02*
X0172856Y0112922D01*
X0173740Y0112323D02*
X0097100Y0112323D01*
X0097100Y0111725D02*
X0172295Y0111725D01*
X0171941Y0111578D02*
X0170422Y0110059D01*
X0169600Y0108074D01*
X0169600Y0105926D01*
X0170422Y0103941D01*
X0171941Y0102422D01*
X0173926Y0101600D01*
X0176074Y0101600D01*
X0178059Y0102422D01*
X0179578Y0103941D01*
X0180400Y0105926D01*
X0180400Y0108074D01*
X0179578Y0110059D01*
X0178059Y0111578D01*
X0176074Y0112400D01*
X0173926Y0112400D01*
X0171941Y0111578D01*
X0171489Y0111126D02*
X0097100Y0111126D01*
X0097100Y0110528D02*
X0170891Y0110528D01*
X0170368Y0109929D02*
X0097100Y0109929D01*
X0097100Y0109331D02*
X0170120Y0109331D01*
X0169873Y0108732D02*
X0097100Y0108732D01*
X0097100Y0108134D02*
X0169625Y0108134D01*
X0169600Y0107535D02*
X0097100Y0107535D01*
X0097100Y0106937D02*
X0169600Y0106937D01*
X0169600Y0106338D02*
X0097100Y0106338D01*
X0097100Y0105739D02*
X0169677Y0105739D01*
X0169925Y0105141D02*
X0097100Y0105141D01*
X0097100Y0104542D02*
X0170173Y0104542D01*
X0170421Y0103944D02*
X0097100Y0103944D01*
X0097100Y0103345D02*
X0153416Y0103345D01*
X0153970Y0103900D02*
X0151100Y0101030D01*
X0151100Y0096970D01*
X0153970Y0094100D01*
X0158030Y0094100D01*
X0160900Y0096970D01*
X0160900Y0101030D01*
X0158030Y0103900D01*
X0153970Y0103900D01*
X0152817Y0102747D02*
X0097100Y0102747D01*
X0097100Y0102148D02*
X0152219Y0102148D01*
X0151620Y0101550D02*
X0097100Y0101550D01*
X0097100Y0100951D02*
X0151100Y0100951D01*
X0151100Y0100353D02*
X0097100Y0100353D01*
X0097100Y0099754D02*
X0151100Y0099754D01*
X0151100Y0099156D02*
X0097100Y0099156D01*
X0097100Y0098557D02*
X0151100Y0098557D01*
X0151100Y0097959D02*
X0097100Y0097959D01*
X0097100Y0097360D02*
X0151100Y0097360D01*
X0151309Y0096762D02*
X0097100Y0096762D01*
X0097100Y0096163D02*
X0151907Y0096163D01*
X0152506Y0095565D02*
X0097100Y0095565D01*
X0097100Y0094966D02*
X0153104Y0094966D01*
X0153703Y0094368D02*
X0097100Y0094368D01*
X0097100Y0093769D02*
X0228500Y0093769D01*
X0228500Y0093171D02*
X0097100Y0093171D01*
X0097100Y0092572D02*
X0228500Y0092572D01*
X0228500Y0091974D02*
X0097100Y0091974D01*
X0097100Y0091375D02*
X0228500Y0091375D01*
X0228500Y0090777D02*
X0097100Y0090777D01*
X0097100Y0090178D02*
X0228667Y0090178D01*
X0228915Y0089580D02*
X0097100Y0089580D01*
X0097100Y0088981D02*
X0220334Y0088981D01*
X0218963Y0088383D02*
X0097100Y0088383D01*
X0097100Y0087784D02*
X0218365Y0087784D01*
X0217766Y0087186D02*
X0097100Y0087186D01*
X0097100Y0086587D02*
X0217382Y0086587D01*
X0217134Y0085989D02*
X0097100Y0085989D01*
X0097100Y0085390D02*
X0216886Y0085390D01*
X0216731Y0084792D02*
X0097100Y0084792D01*
X0097100Y0084193D02*
X0216731Y0084193D01*
X0216731Y0083595D02*
X0097100Y0083595D01*
X0097100Y0082996D02*
X0216731Y0082996D01*
X0216731Y0082398D02*
X0097100Y0082398D01*
X0097100Y0081799D02*
X0216731Y0081799D01*
X0216731Y0081201D02*
X0097100Y0081201D01*
X0097100Y0080602D02*
X0216731Y0080602D01*
X0216731Y0080003D02*
X0097100Y0080003D01*
X0097100Y0079405D02*
X0216731Y0079405D01*
X0216731Y0078806D02*
X0097100Y0078806D01*
X0097100Y0078208D02*
X0216731Y0078208D01*
X0216731Y0077609D02*
X0097100Y0077609D01*
X0097100Y0077011D02*
X0216731Y0077011D01*
X0216968Y0076412D02*
X0097100Y0076412D01*
X0097100Y0117710D02*
X0170600Y0117710D01*
X0170600Y0118308D02*
X0097100Y0118308D01*
X0097100Y0118907D02*
X0170684Y0118907D01*
X0171283Y0119505D02*
X0097100Y0119505D01*
X0097100Y0120104D02*
X0171881Y0120104D01*
X0172480Y0120702D02*
X0097100Y0120702D01*
X0097100Y0121301D02*
X0173078Y0121301D01*
X0174700Y0121301D02*
X0175300Y0121301D01*
X0175300Y0120702D02*
X0174700Y0120702D01*
X0174700Y0120104D02*
X0175300Y0120104D01*
X0175300Y0119505D02*
X0174700Y0119505D01*
X0174700Y0118907D02*
X0175300Y0118907D01*
X0175300Y0118308D02*
X0174700Y0118308D01*
X0174700Y0117710D02*
X0175300Y0117710D01*
X0175300Y0115914D02*
X0174700Y0115914D01*
X0174700Y0115316D02*
X0175300Y0115316D01*
X0175300Y0114717D02*
X0174700Y0114717D01*
X0174700Y0114119D02*
X0175300Y0114119D01*
X0175300Y0113520D02*
X0174700Y0113520D01*
X0174700Y0112922D02*
X0175300Y0112922D01*
X0176260Y0112323D02*
X0228211Y0112323D01*
X0228211Y0111725D02*
X0177705Y0111725D01*
X0178511Y0111126D02*
X0228211Y0111126D01*
X0228211Y0110528D02*
X0179109Y0110528D01*
X0179632Y0109929D02*
X0228500Y0109929D01*
X0228500Y0109331D02*
X0179880Y0109331D01*
X0180127Y0108732D02*
X0228500Y0108732D01*
X0228500Y0108134D02*
X0180375Y0108134D01*
X0180400Y0107535D02*
X0228500Y0107535D01*
X0228500Y0106937D02*
X0180400Y0106937D01*
X0180400Y0106338D02*
X0228500Y0106338D01*
X0228500Y0105739D02*
X0180323Y0105739D01*
X0180075Y0105141D02*
X0228500Y0105141D01*
X0228500Y0104542D02*
X0179827Y0104542D01*
X0179579Y0103944D02*
X0228500Y0103944D01*
X0228500Y0103345D02*
X0178982Y0103345D01*
X0178384Y0102747D02*
X0228500Y0102747D01*
X0228500Y0102148D02*
X0177398Y0102148D01*
X0172602Y0102148D02*
X0159781Y0102148D01*
X0160380Y0101550D02*
X0228500Y0101550D01*
X0228500Y0100951D02*
X0160900Y0100951D01*
X0160900Y0100353D02*
X0228500Y0100353D01*
X0228500Y0099754D02*
X0160900Y0099754D01*
X0160900Y0099156D02*
X0228500Y0099156D01*
X0228500Y0098557D02*
X0160900Y0098557D01*
X0160900Y0097959D02*
X0228500Y0097959D01*
X0228500Y0097360D02*
X0160900Y0097360D01*
X0160691Y0096762D02*
X0228500Y0096762D01*
X0228500Y0096163D02*
X0160093Y0096163D01*
X0159494Y0095565D02*
X0228500Y0095565D01*
X0228500Y0094966D02*
X0158896Y0094966D01*
X0158297Y0094368D02*
X0228500Y0094368D01*
X0235500Y0094966D02*
X0460000Y0094966D01*
X0460000Y0094368D02*
X0241408Y0094368D01*
X0242180Y0093769D02*
X0460000Y0093769D01*
X0460000Y0093171D02*
X0242779Y0093171D01*
X0243377Y0092572D02*
X0460000Y0092572D01*
X0460000Y0091974D02*
X0243976Y0091974D01*
X0244575Y0091375D02*
X0460000Y0091375D01*
X0460000Y0090777D02*
X0245052Y0090777D01*
X0245300Y0090178D02*
X0460000Y0090178D01*
X0460000Y0089580D02*
X0245500Y0089580D01*
X0245500Y0088981D02*
X0260334Y0088981D01*
X0258963Y0088383D02*
X0245500Y0088383D01*
X0245635Y0087784D02*
X0250086Y0087784D01*
X0249181Y0087186D02*
X0246234Y0087186D01*
X0246618Y0086587D02*
X0248626Y0086587D01*
X0248239Y0085989D02*
X0246866Y0085989D01*
X0247114Y0085390D02*
X0247974Y0085390D01*
X0247809Y0084792D02*
X0247268Y0084792D01*
X0247268Y0084193D02*
X0247731Y0084193D01*
X0247731Y0083595D02*
X0247268Y0083595D01*
X0247268Y0082996D02*
X0247731Y0082996D01*
X0247731Y0082398D02*
X0247268Y0082398D01*
X0247268Y0081799D02*
X0247731Y0081799D01*
X0247268Y0081201D02*
X0251700Y0081201D01*
X0251700Y0081799D02*
X0252300Y0081799D01*
X0252300Y0081201D02*
X0256731Y0081201D01*
X0256731Y0081799D02*
X0256268Y0081799D01*
X0256268Y0082398D02*
X0256731Y0082398D01*
X0256731Y0082996D02*
X0256268Y0082996D01*
X0256268Y0083595D02*
X0256731Y0083595D01*
X0256731Y0084193D02*
X0256268Y0084193D01*
X0256191Y0084792D02*
X0256731Y0084792D01*
X0256886Y0085390D02*
X0256026Y0085390D01*
X0255761Y0085989D02*
X0257134Y0085989D01*
X0257382Y0086587D02*
X0255374Y0086587D01*
X0254819Y0087186D02*
X0257766Y0087186D01*
X0258365Y0087784D02*
X0253914Y0087784D01*
X0252300Y0087784D02*
X0251700Y0087784D01*
X0251700Y0087186D02*
X0252300Y0087186D01*
X0252300Y0086587D02*
X0251700Y0086587D01*
X0251700Y0085989D02*
X0252300Y0085989D01*
X0252300Y0085390D02*
X0251700Y0085390D01*
X0251700Y0084792D02*
X0252300Y0084792D01*
X0252300Y0084193D02*
X0251700Y0084193D01*
X0251700Y0083595D02*
X0252300Y0083595D01*
X0252300Y0082996D02*
X0251700Y0082996D01*
X0251700Y0082398D02*
X0252300Y0082398D01*
X0256268Y0080602D02*
X0256731Y0080602D01*
X0256731Y0080003D02*
X0256268Y0080003D01*
X0256268Y0079405D02*
X0256731Y0079405D01*
X0256731Y0078806D02*
X0256268Y0078806D01*
X0256268Y0078208D02*
X0256731Y0078208D01*
X0256731Y0077609D02*
X0256255Y0077609D01*
X0256157Y0077011D02*
X0256731Y0077011D01*
X0256968Y0076412D02*
X0255962Y0076412D01*
X0248038Y0076412D02*
X0247032Y0076412D01*
X0247268Y0077011D02*
X0247843Y0077011D01*
X0247745Y0077609D02*
X0247268Y0077609D01*
X0247268Y0078208D02*
X0247731Y0078208D01*
X0247731Y0078806D02*
X0247268Y0078806D01*
X0247268Y0079405D02*
X0247731Y0079405D01*
X0247731Y0080003D02*
X0247268Y0080003D01*
X0247268Y0080602D02*
X0247731Y0080602D01*
X0263666Y0088981D02*
X0270334Y0088981D01*
X0268963Y0088383D02*
X0265037Y0088383D01*
X0265635Y0087784D02*
X0268365Y0087784D01*
X0267766Y0087186D02*
X0266234Y0087186D01*
X0266618Y0086587D02*
X0267382Y0086587D01*
X0267134Y0085989D02*
X0266866Y0085989D01*
X0273666Y0088981D02*
X0290176Y0088981D01*
X0288887Y0088383D02*
X0275037Y0088383D01*
X0275635Y0087784D02*
X0288289Y0087784D01*
X0287690Y0087186D02*
X0276234Y0087186D01*
X0276618Y0086587D02*
X0287335Y0086587D01*
X0287087Y0085989D02*
X0276866Y0085989D01*
X0277114Y0085390D02*
X0286839Y0085390D01*
X0286700Y0084792D02*
X0277268Y0084792D01*
X0277268Y0084193D02*
X0286700Y0084193D01*
X0286700Y0083595D02*
X0277268Y0083595D01*
X0277268Y0082996D02*
X0286700Y0082996D01*
X0286700Y0082398D02*
X0277268Y0082398D01*
X0277268Y0081799D02*
X0286700Y0081799D01*
X0286700Y0081201D02*
X0277268Y0081201D01*
X0277268Y0080602D02*
X0286700Y0080602D01*
X0286700Y0080003D02*
X0277268Y0080003D01*
X0277268Y0079405D02*
X0286700Y0079405D01*
X0286700Y0078806D02*
X0277268Y0078806D01*
X0277268Y0078208D02*
X0286700Y0078208D01*
X0286700Y0077609D02*
X0277268Y0077609D01*
X0277268Y0077011D02*
X0286700Y0077011D01*
X0286921Y0076412D02*
X0277032Y0076412D01*
X0293824Y0088981D02*
X0300176Y0088981D01*
X0298887Y0088383D02*
X0295113Y0088383D01*
X0295711Y0087784D02*
X0298289Y0087784D01*
X0297690Y0087186D02*
X0296310Y0087186D01*
X0296665Y0086587D02*
X0297335Y0086587D01*
X0297087Y0085989D02*
X0296913Y0085989D01*
X0303824Y0088981D02*
X0310176Y0088981D01*
X0308887Y0088383D02*
X0305113Y0088383D01*
X0305711Y0087784D02*
X0308289Y0087784D01*
X0307690Y0087186D02*
X0306310Y0087186D01*
X0306665Y0086587D02*
X0307335Y0086587D01*
X0307087Y0085989D02*
X0306913Y0085989D01*
X0313824Y0088981D02*
X0320176Y0088981D01*
X0318887Y0088383D02*
X0315113Y0088383D01*
X0315711Y0087784D02*
X0318289Y0087784D01*
X0317690Y0087186D02*
X0316310Y0087186D01*
X0316665Y0086587D02*
X0317335Y0086587D01*
X0317087Y0085989D02*
X0316913Y0085989D01*
X0323824Y0088981D02*
X0330176Y0088981D01*
X0328887Y0088383D02*
X0325113Y0088383D01*
X0325711Y0087784D02*
X0328289Y0087784D01*
X0327690Y0087186D02*
X0326310Y0087186D01*
X0326665Y0086587D02*
X0327335Y0086587D01*
X0327087Y0085989D02*
X0326913Y0085989D01*
X0333824Y0088981D02*
X0340176Y0088981D01*
X0338887Y0088383D02*
X0335113Y0088383D01*
X0335711Y0087784D02*
X0338289Y0087784D01*
X0337690Y0087186D02*
X0336310Y0087186D01*
X0336665Y0086587D02*
X0337335Y0086587D01*
X0337087Y0085989D02*
X0336913Y0085989D01*
X0343824Y0088981D02*
X0350176Y0088981D01*
X0348887Y0088383D02*
X0345113Y0088383D01*
X0345711Y0087784D02*
X0348289Y0087784D01*
X0347690Y0087186D02*
X0346310Y0087186D01*
X0346665Y0086587D02*
X0347335Y0086587D01*
X0347087Y0085989D02*
X0346913Y0085989D01*
X0353824Y0088981D02*
X0360176Y0088981D01*
X0358887Y0088383D02*
X0355113Y0088383D01*
X0355711Y0087784D02*
X0358289Y0087784D01*
X0357690Y0087186D02*
X0356310Y0087186D01*
X0356665Y0086587D02*
X0357335Y0086587D01*
X0357087Y0085989D02*
X0356913Y0085989D01*
X0363824Y0088981D02*
X0380176Y0088981D01*
X0378887Y0088383D02*
X0365113Y0088383D01*
X0365711Y0087784D02*
X0378289Y0087784D01*
X0377690Y0087186D02*
X0366310Y0087186D01*
X0366665Y0086587D02*
X0377335Y0086587D01*
X0377087Y0085989D02*
X0366913Y0085989D01*
X0367161Y0085390D02*
X0376839Y0085390D01*
X0376700Y0084792D02*
X0367300Y0084792D01*
X0367300Y0084193D02*
X0376700Y0084193D01*
X0376700Y0083595D02*
X0367300Y0083595D01*
X0367300Y0082996D02*
X0376700Y0082996D01*
X0376700Y0082398D02*
X0367300Y0082398D01*
X0367300Y0081799D02*
X0376700Y0081799D01*
X0376700Y0081201D02*
X0367300Y0081201D01*
X0367300Y0080602D02*
X0376700Y0080602D01*
X0376700Y0080003D02*
X0367300Y0080003D01*
X0367300Y0079405D02*
X0376700Y0079405D01*
X0376700Y0078806D02*
X0367300Y0078806D01*
X0367300Y0078208D02*
X0376700Y0078208D01*
X0376700Y0077609D02*
X0367300Y0077609D01*
X0367300Y0077011D02*
X0376700Y0077011D01*
X0376921Y0076412D02*
X0367079Y0076412D01*
X0383824Y0088981D02*
X0390176Y0088981D01*
X0388887Y0088383D02*
X0385113Y0088383D01*
X0385711Y0087784D02*
X0388289Y0087784D01*
X0387690Y0087186D02*
X0386310Y0087186D01*
X0386665Y0086587D02*
X0387335Y0086587D01*
X0387087Y0085989D02*
X0386913Y0085989D01*
X0393824Y0088981D02*
X0400176Y0088981D01*
X0398887Y0088383D02*
X0395113Y0088383D01*
X0395711Y0087784D02*
X0398289Y0087784D01*
X0397690Y0087186D02*
X0396310Y0087186D01*
X0396665Y0086587D02*
X0397335Y0086587D01*
X0397087Y0085989D02*
X0396913Y0085989D01*
X0403824Y0088981D02*
X0410176Y0088981D01*
X0408887Y0088383D02*
X0405113Y0088383D01*
X0405711Y0087784D02*
X0408289Y0087784D01*
X0407690Y0087186D02*
X0406310Y0087186D01*
X0406665Y0086587D02*
X0407335Y0086587D01*
X0407087Y0085989D02*
X0406913Y0085989D01*
X0413824Y0088981D02*
X0420176Y0088981D01*
X0418887Y0088383D02*
X0415113Y0088383D01*
X0415711Y0087784D02*
X0418289Y0087784D01*
X0417690Y0087186D02*
X0416310Y0087186D01*
X0416665Y0086587D02*
X0417335Y0086587D01*
X0417087Y0085989D02*
X0416913Y0085989D01*
X0423824Y0088981D02*
X0430176Y0088981D01*
X0428887Y0088383D02*
X0425113Y0088383D01*
X0425711Y0087784D02*
X0428289Y0087784D01*
X0427690Y0087186D02*
X0426310Y0087186D01*
X0426665Y0086587D02*
X0427335Y0086587D01*
X0427087Y0085989D02*
X0426913Y0085989D01*
X0433824Y0088981D02*
X0440176Y0088981D01*
X0438887Y0088383D02*
X0435113Y0088383D01*
X0435711Y0087784D02*
X0438289Y0087784D01*
X0437690Y0087186D02*
X0436310Y0087186D01*
X0436665Y0086587D02*
X0437335Y0086587D01*
X0437087Y0085989D02*
X0436913Y0085989D01*
X0443824Y0088981D02*
X0450176Y0088981D01*
X0448887Y0088383D02*
X0445113Y0088383D01*
X0445711Y0087784D02*
X0448289Y0087784D01*
X0447690Y0087186D02*
X0446310Y0087186D01*
X0446665Y0086587D02*
X0447335Y0086587D01*
X0447087Y0085989D02*
X0446913Y0085989D01*
X0453824Y0088981D02*
X0460000Y0088981D01*
X0460000Y0088383D02*
X0455113Y0088383D01*
X0455711Y0087784D02*
X0460000Y0087784D01*
X0460000Y0087186D02*
X0456310Y0087186D01*
X0456665Y0086587D02*
X0460000Y0086587D01*
X0460000Y0085989D02*
X0456913Y0085989D01*
X0457161Y0085390D02*
X0460000Y0085390D01*
X0460000Y0084792D02*
X0457300Y0084792D01*
X0457300Y0084193D02*
X0460000Y0084193D01*
X0460000Y0083595D02*
X0457300Y0083595D01*
X0457300Y0082996D02*
X0460000Y0082996D01*
X0460000Y0082398D02*
X0457300Y0082398D01*
X0457300Y0081799D02*
X0460000Y0081799D01*
X0460000Y0081201D02*
X0457300Y0081201D01*
X0457300Y0080602D02*
X0460000Y0080602D01*
X0460000Y0080003D02*
X0457300Y0080003D01*
X0457300Y0079405D02*
X0460000Y0079405D01*
X0460000Y0078806D02*
X0457300Y0078806D01*
X0457300Y0078208D02*
X0460000Y0078208D01*
X0460000Y0077609D02*
X0457300Y0077609D01*
X0457300Y0077011D02*
X0460000Y0077011D01*
X0460000Y0076412D02*
X0457079Y0076412D01*
X0460000Y0095565D02*
X0235500Y0095565D01*
X0235500Y0096163D02*
X0460000Y0096163D01*
X0460000Y0096762D02*
X0235500Y0096762D01*
X0235500Y0097360D02*
X0460000Y0097360D01*
X0460000Y0097959D02*
X0235500Y0097959D01*
X0235500Y0098557D02*
X0460000Y0098557D01*
X0460000Y0099156D02*
X0333671Y0099156D01*
X0333615Y0099100D02*
X0335900Y0101385D01*
X0335900Y0102700D01*
X0332300Y0102700D01*
X0332300Y0103300D01*
X0331700Y0103300D01*
X0331700Y0106900D01*
X0330385Y0106900D01*
X0328100Y0104615D01*
X0328100Y0103300D01*
X0331700Y0103300D01*
X0331700Y0102700D01*
X0328100Y0102700D01*
X0328100Y0101385D01*
X0330385Y0099100D01*
X0331700Y0099100D01*
X0331700Y0102700D01*
X0332300Y0102700D01*
X0332300Y0099100D01*
X0333615Y0099100D01*
X0334270Y0099754D02*
X0460000Y0099754D01*
X0460000Y0100353D02*
X0334868Y0100353D01*
X0335467Y0100951D02*
X0460000Y0100951D01*
X0460000Y0101550D02*
X0335900Y0101550D01*
X0335900Y0102148D02*
X0460000Y0102148D01*
X0460000Y0102747D02*
X0405354Y0102747D01*
X0405107Y0102500D02*
X0409500Y0106893D01*
X0409500Y0109700D01*
X0402300Y0109700D01*
X0402300Y0110300D01*
X0401700Y0110300D01*
X0401700Y0117500D01*
X0398893Y0117500D01*
X0394500Y0113107D01*
X0394500Y0110300D01*
X0401700Y0110300D01*
X0401700Y0109700D01*
X0394500Y0109700D01*
X0394500Y0106893D01*
X0398893Y0102500D01*
X0401700Y0102500D01*
X0401700Y0109700D01*
X0402300Y0109700D01*
X0402300Y0102500D01*
X0405107Y0102500D01*
X0405952Y0103345D02*
X0460000Y0103345D01*
X0460000Y0103944D02*
X0406551Y0103944D01*
X0407149Y0104542D02*
X0460000Y0104542D01*
X0460000Y0105141D02*
X0407748Y0105141D01*
X0408346Y0105739D02*
X0460000Y0105739D01*
X0460000Y0106338D02*
X0408945Y0106338D01*
X0409500Y0106937D02*
X0460000Y0106937D01*
X0460000Y0107535D02*
X0409500Y0107535D01*
X0409500Y0108134D02*
X0460000Y0108134D01*
X0460000Y0108732D02*
X0409500Y0108732D01*
X0409500Y0109331D02*
X0460000Y0109331D01*
X0460000Y0109929D02*
X0402300Y0109929D01*
X0402300Y0110300D02*
X0409500Y0110300D01*
X0409500Y0113107D01*
X0405107Y0117500D01*
X0402300Y0117500D01*
X0402300Y0110300D01*
X0402300Y0110528D02*
X0401700Y0110528D01*
X0401700Y0111126D02*
X0402300Y0111126D01*
X0402300Y0111725D02*
X0401700Y0111725D01*
X0401700Y0112323D02*
X0402300Y0112323D01*
X0402300Y0112922D02*
X0401700Y0112922D01*
X0401700Y0113520D02*
X0402300Y0113520D01*
X0402300Y0114119D02*
X0401700Y0114119D01*
X0401700Y0114717D02*
X0402300Y0114717D01*
X0402300Y0115316D02*
X0401700Y0115316D01*
X0401700Y0115914D02*
X0402300Y0115914D01*
X0402300Y0116513D02*
X0401700Y0116513D01*
X0401700Y0117111D02*
X0402300Y0117111D01*
X0405495Y0117111D02*
X0460000Y0117111D01*
X0460000Y0116513D02*
X0406094Y0116513D01*
X0406692Y0115914D02*
X0460000Y0115914D01*
X0460000Y0115316D02*
X0407291Y0115316D01*
X0407889Y0114717D02*
X0460000Y0114717D01*
X0460000Y0114119D02*
X0408488Y0114119D01*
X0409086Y0113520D02*
X0460000Y0113520D01*
X0460000Y0112922D02*
X0409500Y0112922D01*
X0409500Y0112323D02*
X0460000Y0112323D01*
X0460000Y0111725D02*
X0409500Y0111725D01*
X0409500Y0111126D02*
X0460000Y0111126D01*
X0460000Y0110528D02*
X0409500Y0110528D01*
X0402300Y0109331D02*
X0401700Y0109331D01*
X0401700Y0109929D02*
X0235500Y0109929D01*
X0235500Y0109331D02*
X0394500Y0109331D01*
X0394500Y0108732D02*
X0235500Y0108732D01*
X0235500Y0108134D02*
X0394500Y0108134D01*
X0394500Y0107535D02*
X0235500Y0107535D01*
X0235500Y0106937D02*
X0394500Y0106937D01*
X0395055Y0106338D02*
X0334177Y0106338D01*
X0333615Y0106900D02*
X0332300Y0106900D01*
X0332300Y0103300D01*
X0335900Y0103300D01*
X0335900Y0104615D01*
X0333615Y0106900D01*
X0332300Y0106338D02*
X0331700Y0106338D01*
X0331700Y0105739D02*
X0332300Y0105739D01*
X0332300Y0105141D02*
X0331700Y0105141D01*
X0331700Y0104542D02*
X0332300Y0104542D01*
X0332300Y0103944D02*
X0331700Y0103944D01*
X0331700Y0103345D02*
X0332300Y0103345D01*
X0332300Y0102747D02*
X0398646Y0102747D01*
X0398048Y0103345D02*
X0335900Y0103345D01*
X0335900Y0103944D02*
X0397449Y0103944D01*
X0396851Y0104542D02*
X0335900Y0104542D01*
X0335374Y0105141D02*
X0396252Y0105141D01*
X0395654Y0105739D02*
X0334776Y0105739D01*
X0331700Y0102747D02*
X0235500Y0102747D01*
X0235500Y0103345D02*
X0328100Y0103345D01*
X0328100Y0103944D02*
X0235500Y0103944D01*
X0235500Y0104542D02*
X0328100Y0104542D01*
X0328626Y0105141D02*
X0235500Y0105141D01*
X0235500Y0105739D02*
X0329224Y0105739D01*
X0329823Y0106338D02*
X0235500Y0106338D01*
X0235500Y0102148D02*
X0328100Y0102148D01*
X0328100Y0101550D02*
X0235500Y0101550D01*
X0235500Y0100951D02*
X0328533Y0100951D01*
X0329132Y0100353D02*
X0235500Y0100353D01*
X0235500Y0099754D02*
X0329730Y0099754D01*
X0330329Y0099156D02*
X0235500Y0099156D01*
X0235789Y0110528D02*
X0394500Y0110528D01*
X0394500Y0111126D02*
X0235789Y0111126D01*
X0235789Y0111725D02*
X0394500Y0111725D01*
X0394500Y0112323D02*
X0235789Y0112323D01*
X0235789Y0112922D02*
X0394500Y0112922D01*
X0394914Y0113520D02*
X0235789Y0113520D01*
X0235240Y0114119D02*
X0395512Y0114119D01*
X0396111Y0114717D02*
X0234641Y0114717D01*
X0234043Y0115316D02*
X0396709Y0115316D01*
X0397308Y0115914D02*
X0179400Y0115914D01*
X0179400Y0115316D02*
X0229957Y0115316D01*
X0229359Y0114717D02*
X0178940Y0114717D01*
X0178341Y0114119D02*
X0228760Y0114119D01*
X0228211Y0113520D02*
X0177743Y0113520D01*
X0177144Y0112922D02*
X0228211Y0112922D01*
X0201798Y0121301D02*
X0176922Y0121301D01*
X0178717Y0119505D02*
X0354979Y0119505D01*
X0359619Y0120104D02*
X0460000Y0120104D01*
X0460000Y0120702D02*
X0360218Y0120702D01*
X0360816Y0121301D02*
X0460000Y0121301D01*
X0460000Y0121899D02*
X0360900Y0121899D01*
X0360900Y0122498D02*
X0460000Y0122498D01*
X0460000Y0145840D02*
X0445392Y0145840D01*
X0446837Y0146438D02*
X0460000Y0146438D01*
X0460000Y0147037D02*
X0447532Y0147037D01*
X0448131Y0147635D02*
X0460000Y0147635D01*
X0460000Y0148234D02*
X0448591Y0148234D01*
X0448839Y0148832D02*
X0460000Y0148832D01*
X0460000Y0149431D02*
X0449087Y0149431D01*
X0449300Y0150029D02*
X0460000Y0150029D01*
X0460000Y0150628D02*
X0449300Y0150628D01*
X0449300Y0151226D02*
X0460000Y0151226D01*
X0460000Y0151825D02*
X0449300Y0151825D01*
X0449147Y0152423D02*
X0460000Y0152423D01*
X0460000Y0153022D02*
X0448899Y0153022D01*
X0448651Y0153620D02*
X0460000Y0153620D01*
X0460000Y0154219D02*
X0448276Y0154219D01*
X0447678Y0154817D02*
X0460000Y0154817D01*
X0460000Y0155416D02*
X0447079Y0155416D01*
X0447108Y0156613D02*
X0460000Y0156613D01*
X0460000Y0157211D02*
X0447707Y0157211D01*
X0448305Y0157810D02*
X0460000Y0157810D01*
X0460000Y0158408D02*
X0448663Y0158408D01*
X0448911Y0159007D02*
X0460000Y0159007D01*
X0460000Y0159605D02*
X0449159Y0159605D01*
X0449300Y0160204D02*
X0460000Y0160204D01*
X0460000Y0160803D02*
X0449300Y0160803D01*
X0449300Y0161401D02*
X0460000Y0161401D01*
X0460000Y0162000D02*
X0449300Y0162000D01*
X0449075Y0162598D02*
X0460000Y0162598D01*
X0460000Y0163197D02*
X0448827Y0163197D01*
X0448579Y0163795D02*
X0460000Y0163795D01*
X0460000Y0164394D02*
X0448102Y0164394D01*
X0447503Y0164992D02*
X0460000Y0164992D01*
X0460000Y0165591D02*
X0446767Y0165591D01*
X0446235Y0166189D02*
X0460000Y0166189D01*
X0460000Y0166788D02*
X0447283Y0166788D01*
X0447881Y0167386D02*
X0460000Y0167386D01*
X0460000Y0167985D02*
X0448480Y0167985D01*
X0448736Y0168583D02*
X0460000Y0168583D01*
X0460000Y0169182D02*
X0448983Y0169182D01*
X0449231Y0169780D02*
X0460000Y0169780D01*
X0460000Y0170379D02*
X0449300Y0170379D01*
X0449300Y0170977D02*
X0460000Y0170977D01*
X0460000Y0171576D02*
X0449300Y0171576D01*
X0449250Y0172174D02*
X0460000Y0172174D01*
X0460000Y0172773D02*
X0449002Y0172773D01*
X0448754Y0173371D02*
X0460000Y0173371D01*
X0460000Y0173970D02*
X0448507Y0173970D01*
X0447927Y0174568D02*
X0460000Y0174568D01*
X0460000Y0175167D02*
X0447329Y0175167D01*
X0446345Y0175765D02*
X0460000Y0175765D01*
X0460000Y0176364D02*
X0446657Y0176364D01*
X0447458Y0176962D02*
X0460000Y0176962D01*
X0460000Y0177561D02*
X0448056Y0177561D01*
X0448560Y0178159D02*
X0460000Y0178159D01*
X0460000Y0178758D02*
X0448808Y0178758D01*
X0449056Y0179356D02*
X0460000Y0179356D01*
X0460000Y0179955D02*
X0449300Y0179955D01*
X0449300Y0180553D02*
X0460000Y0180553D01*
X0460000Y0181152D02*
X0449300Y0181152D01*
X0449300Y0181750D02*
X0460000Y0181750D01*
X0460000Y0182349D02*
X0449178Y0182349D01*
X0448930Y0182947D02*
X0460000Y0182947D01*
X0460000Y0183546D02*
X0448682Y0183546D01*
X0448351Y0184144D02*
X0460000Y0184144D01*
X0460000Y0184743D02*
X0447752Y0184743D01*
X0447154Y0185341D02*
X0460000Y0185341D01*
X0460000Y0185940D02*
X0445923Y0185940D01*
X0447034Y0186539D02*
X0460000Y0186539D01*
X0460000Y0187137D02*
X0447632Y0187137D01*
X0448231Y0187736D02*
X0460000Y0187736D01*
X0460000Y0188334D02*
X0448632Y0188334D01*
X0448880Y0188933D02*
X0460000Y0188933D01*
X0460000Y0189531D02*
X0449128Y0189531D01*
X0449300Y0190130D02*
X0460000Y0190130D01*
X0460000Y0190728D02*
X0449300Y0190728D01*
X0449300Y0191327D02*
X0460000Y0191327D01*
X0460000Y0191925D02*
X0449300Y0191925D01*
X0449106Y0192524D02*
X0460000Y0192524D01*
X0460000Y0193122D02*
X0448858Y0193122D01*
X0448610Y0193721D02*
X0460000Y0193721D01*
X0460000Y0194319D02*
X0448176Y0194319D01*
X0447578Y0194918D02*
X0460000Y0194918D01*
X0460000Y0195516D02*
X0446947Y0195516D01*
X0446055Y0196115D02*
X0460000Y0196115D01*
X0460000Y0196713D02*
X0447209Y0196713D01*
X0447807Y0197312D02*
X0460000Y0197312D01*
X0460000Y0197910D02*
X0448406Y0197910D01*
X0448705Y0198509D02*
X0460000Y0198509D01*
X0460000Y0199107D02*
X0448953Y0199107D01*
X0449201Y0199706D02*
X0460000Y0199706D01*
X0460000Y0200304D02*
X0449300Y0200304D01*
X0449300Y0200903D02*
X0460000Y0200903D01*
X0460000Y0201501D02*
X0449300Y0201501D01*
X0449281Y0202100D02*
X0460000Y0202100D01*
X0460000Y0202698D02*
X0449033Y0202698D01*
X0448785Y0203297D02*
X0460000Y0203297D01*
X0460000Y0203895D02*
X0448537Y0203895D01*
X0448001Y0204494D02*
X0460000Y0204494D01*
X0460000Y0205092D02*
X0447403Y0205092D01*
X0446525Y0205691D02*
X0460000Y0205691D01*
X0460000Y0206289D02*
X0446477Y0206289D01*
X0447383Y0206888D02*
X0460000Y0206888D01*
X0460000Y0207486D02*
X0447982Y0207486D01*
X0448529Y0208085D02*
X0460000Y0208085D01*
X0460000Y0208683D02*
X0448777Y0208683D01*
X0449025Y0209282D02*
X0460000Y0209282D01*
X0460000Y0209880D02*
X0449273Y0209880D01*
X0449300Y0210479D02*
X0460000Y0210479D01*
X0460000Y0211077D02*
X0449300Y0211077D01*
X0449300Y0211676D02*
X0460000Y0211676D01*
X0460000Y0212274D02*
X0449209Y0212274D01*
X0448961Y0212873D02*
X0460000Y0212873D01*
X0460000Y0213472D02*
X0448713Y0213472D01*
X0448425Y0214070D02*
X0460000Y0214070D01*
X0460000Y0214669D02*
X0447827Y0214669D01*
X0447228Y0215267D02*
X0460000Y0215267D01*
X0460000Y0215866D02*
X0446103Y0215866D01*
X0445007Y0219806D02*
X0445651Y0220015D01*
X0446254Y0220322D01*
X0446801Y0220720D01*
X0447280Y0221199D01*
X0447678Y0221746D01*
X0447985Y0222349D01*
X0448194Y0222993D01*
X0448300Y0223662D01*
X0448300Y0223700D01*
X0441300Y0223700D01*
X0441300Y0224300D01*
X0440700Y0224300D01*
X0440700Y0228300D01*
X0437662Y0228300D01*
X0436993Y0228194D01*
X0436349Y0227985D01*
X0435746Y0227678D01*
X0435199Y0227280D01*
X0434720Y0226801D01*
X0434322Y0226254D01*
X0434015Y0225651D01*
X0433806Y0225007D01*
X0433700Y0224338D01*
X0433700Y0224300D01*
X0440700Y0224300D01*
X0440700Y0223700D01*
X0441300Y0223700D01*
X0441300Y0219700D01*
X0444338Y0219700D01*
X0445007Y0219806D01*
X0445729Y0220055D02*
X0460000Y0220055D01*
X0460000Y0219457D02*
X0410406Y0219457D01*
X0409808Y0218858D02*
X0460000Y0218858D01*
X0460000Y0218260D02*
X0409209Y0218260D01*
X0408611Y0217661D02*
X0460000Y0217661D01*
X0460000Y0217063D02*
X0408012Y0217063D01*
X0407414Y0216464D02*
X0460000Y0216464D01*
X0460000Y0220654D02*
X0446710Y0220654D01*
X0447319Y0221252D02*
X0460000Y0221252D01*
X0460000Y0221851D02*
X0447731Y0221851D01*
X0448017Y0222449D02*
X0460000Y0222449D01*
X0460000Y0223048D02*
X0448203Y0223048D01*
X0448298Y0223646D02*
X0460000Y0223646D01*
X0460000Y0224245D02*
X0441300Y0224245D01*
X0441300Y0224300D02*
X0448300Y0224300D01*
X0448300Y0224338D01*
X0448194Y0225007D01*
X0447985Y0225651D01*
X0447678Y0226254D01*
X0447280Y0226801D01*
X0446801Y0227280D01*
X0446254Y0227678D01*
X0445651Y0227985D01*
X0445007Y0228194D01*
X0444338Y0228300D01*
X0441300Y0228300D01*
X0441300Y0224300D01*
X0441300Y0224843D02*
X0440700Y0224843D01*
X0440700Y0224245D02*
X0415194Y0224245D01*
X0414596Y0223646D02*
X0433702Y0223646D01*
X0433700Y0223662D02*
X0433806Y0222993D01*
X0434015Y0222349D01*
X0434322Y0221746D01*
X0434720Y0221199D01*
X0435199Y0220720D01*
X0435746Y0220322D01*
X0436349Y0220015D01*
X0436993Y0219806D01*
X0437662Y0219700D01*
X0440700Y0219700D01*
X0440700Y0223700D01*
X0433700Y0223700D01*
X0433700Y0223662D01*
X0433797Y0223048D02*
X0413997Y0223048D01*
X0413399Y0222449D02*
X0433983Y0222449D01*
X0434269Y0221851D02*
X0412800Y0221851D01*
X0412202Y0221252D02*
X0434681Y0221252D01*
X0435290Y0220654D02*
X0411603Y0220654D01*
X0411005Y0220055D02*
X0436271Y0220055D01*
X0435897Y0215866D02*
X0406815Y0215866D01*
X0406217Y0215267D02*
X0434772Y0215267D01*
X0434173Y0214669D02*
X0405618Y0214669D01*
X0405020Y0214070D02*
X0433575Y0214070D01*
X0433287Y0213472D02*
X0404421Y0213472D01*
X0403823Y0212873D02*
X0433039Y0212873D01*
X0432791Y0212274D02*
X0403224Y0212274D01*
X0402626Y0211676D02*
X0432700Y0211676D01*
X0432700Y0211077D02*
X0402027Y0211077D01*
X0401429Y0210479D02*
X0432700Y0210479D01*
X0432727Y0209880D02*
X0400830Y0209880D01*
X0400232Y0209282D02*
X0432975Y0209282D01*
X0433223Y0208683D02*
X0404675Y0208683D01*
X0405273Y0208085D02*
X0433471Y0208085D01*
X0434018Y0207486D02*
X0405872Y0207486D01*
X0406471Y0206888D02*
X0434617Y0206888D01*
X0435523Y0206289D02*
X0406789Y0206289D01*
X0406789Y0205691D02*
X0435475Y0205691D01*
X0434597Y0205092D02*
X0406789Y0205092D01*
X0406789Y0204494D02*
X0433999Y0204494D01*
X0433463Y0203895D02*
X0406789Y0203895D01*
X0406655Y0203297D02*
X0433215Y0203297D01*
X0432967Y0202698D02*
X0406100Y0202698D01*
X0406100Y0202100D02*
X0432719Y0202100D01*
X0432700Y0201501D02*
X0406100Y0201501D01*
X0406100Y0200903D02*
X0432700Y0200903D01*
X0432700Y0200304D02*
X0406100Y0200304D01*
X0406100Y0199706D02*
X0432799Y0199706D01*
X0433047Y0199107D02*
X0406100Y0199107D01*
X0406100Y0198509D02*
X0433295Y0198509D01*
X0433594Y0197910D02*
X0406100Y0197910D01*
X0406100Y0197312D02*
X0434193Y0197312D01*
X0434791Y0196713D02*
X0406100Y0196713D01*
X0406100Y0196115D02*
X0435945Y0196115D01*
X0435053Y0195516D02*
X0406100Y0195516D01*
X0406100Y0194918D02*
X0434422Y0194918D01*
X0433824Y0194319D02*
X0406100Y0194319D01*
X0406100Y0193721D02*
X0433390Y0193721D01*
X0433142Y0193122D02*
X0406100Y0193122D01*
X0406100Y0192524D02*
X0432894Y0192524D01*
X0432700Y0191925D02*
X0406100Y0191925D01*
X0406100Y0191327D02*
X0432700Y0191327D01*
X0432700Y0190728D02*
X0406100Y0190728D01*
X0406100Y0190130D02*
X0432700Y0190130D01*
X0432872Y0189531D02*
X0406100Y0189531D01*
X0406100Y0188933D02*
X0433120Y0188933D01*
X0433368Y0188334D02*
X0406100Y0188334D01*
X0406100Y0187736D02*
X0433769Y0187736D01*
X0434368Y0187137D02*
X0406100Y0187137D01*
X0406100Y0186539D02*
X0434966Y0186539D01*
X0434846Y0185341D02*
X0406100Y0185341D01*
X0406100Y0185940D02*
X0436077Y0185940D01*
X0434248Y0184743D02*
X0406641Y0184743D01*
X0407240Y0184144D02*
X0433649Y0184144D01*
X0433944Y0177561D02*
X0370823Y0177561D01*
X0370225Y0178159D02*
X0404757Y0178159D01*
X0403858Y0178758D02*
X0369626Y0178758D01*
X0369028Y0179356D02*
X0403260Y0179356D01*
X0402661Y0179955D02*
X0368429Y0179955D01*
X0367831Y0180553D02*
X0402063Y0180553D01*
X0401464Y0181152D02*
X0367232Y0181152D01*
X0366634Y0181750D02*
X0400866Y0181750D01*
X0400328Y0182349D02*
X0366035Y0182349D01*
X0365437Y0182947D02*
X0400081Y0182947D01*
X0399900Y0183546D02*
X0364838Y0183546D01*
X0364240Y0184144D02*
X0399900Y0184144D01*
X0399900Y0184743D02*
X0363479Y0184743D01*
X0360858Y0178758D02*
X0316708Y0178758D01*
X0317306Y0179356D02*
X0350282Y0179356D01*
X0349661Y0179955D02*
X0317905Y0179955D01*
X0318503Y0180553D02*
X0349063Y0180553D01*
X0348464Y0181152D02*
X0319102Y0181152D01*
X0319700Y0181750D02*
X0347866Y0181750D01*
X0347267Y0182349D02*
X0320299Y0182349D01*
X0320897Y0182947D02*
X0346668Y0182947D01*
X0346070Y0183546D02*
X0321496Y0183546D01*
X0322094Y0184144D02*
X0345471Y0184144D01*
X0344873Y0184743D02*
X0322693Y0184743D01*
X0323291Y0185341D02*
X0344274Y0185341D01*
X0343676Y0185940D02*
X0323890Y0185940D01*
X0324488Y0186539D02*
X0343077Y0186539D01*
X0342479Y0187137D02*
X0325087Y0187137D01*
X0325685Y0187736D02*
X0341880Y0187736D01*
X0341282Y0188334D02*
X0326284Y0188334D01*
X0326882Y0188933D02*
X0340683Y0188933D01*
X0340085Y0189531D02*
X0327481Y0189531D01*
X0328079Y0190130D02*
X0339486Y0190130D01*
X0338888Y0190728D02*
X0328678Y0190728D01*
X0329276Y0191327D02*
X0338289Y0191327D01*
X0337691Y0191925D02*
X0329875Y0191925D01*
X0330473Y0192524D02*
X0337092Y0192524D01*
X0336494Y0193122D02*
X0331072Y0193122D01*
X0331670Y0193721D02*
X0334921Y0193721D01*
X0334322Y0194319D02*
X0332269Y0194319D01*
X0332867Y0194918D02*
X0333724Y0194918D01*
X0353043Y0185341D02*
X0399900Y0185341D01*
X0399900Y0185940D02*
X0387758Y0185940D01*
X0388488Y0186539D02*
X0399900Y0186539D01*
X0399900Y0187137D02*
X0389087Y0187137D01*
X0389685Y0187736D02*
X0399900Y0187736D01*
X0399900Y0188334D02*
X0390284Y0188334D01*
X0390882Y0188933D02*
X0399900Y0188933D01*
X0399900Y0189531D02*
X0391481Y0189531D01*
X0392079Y0190130D02*
X0399900Y0190130D01*
X0399900Y0190728D02*
X0392678Y0190728D01*
X0393276Y0191327D02*
X0399900Y0191327D01*
X0399900Y0191925D02*
X0393875Y0191925D01*
X0394473Y0192524D02*
X0399900Y0192524D01*
X0399900Y0193122D02*
X0395072Y0193122D01*
X0395670Y0193721D02*
X0399900Y0193721D01*
X0399900Y0194319D02*
X0396092Y0194319D01*
X0396340Y0194918D02*
X0399900Y0194918D01*
X0399900Y0195516D02*
X0396500Y0195516D01*
X0396500Y0196115D02*
X0399900Y0196115D01*
X0399900Y0196713D02*
X0396500Y0196713D01*
X0396500Y0197312D02*
X0399900Y0197312D01*
X0399900Y0197910D02*
X0396500Y0197910D01*
X0396500Y0198509D02*
X0399900Y0198509D01*
X0399900Y0199107D02*
X0396500Y0199107D01*
X0396500Y0199706D02*
X0399900Y0199706D01*
X0399900Y0200304D02*
X0396500Y0200304D01*
X0396500Y0200903D02*
X0399900Y0200903D01*
X0399900Y0201501D02*
X0396500Y0201501D01*
X0396500Y0202100D02*
X0399900Y0202100D01*
X0399900Y0202698D02*
X0396500Y0202698D01*
X0396500Y0203297D02*
X0399345Y0203297D01*
X0399211Y0203895D02*
X0396500Y0203895D01*
X0396500Y0204494D02*
X0399211Y0204494D01*
X0399211Y0205092D02*
X0396500Y0205092D01*
X0396620Y0205691D02*
X0399211Y0205691D01*
X0399211Y0206289D02*
X0397239Y0206289D01*
X0397838Y0206888D02*
X0399529Y0206888D01*
X0400128Y0207486D02*
X0398436Y0207486D01*
X0399035Y0208085D02*
X0400727Y0208085D01*
X0401325Y0208683D02*
X0399633Y0208683D01*
X0415793Y0224843D02*
X0433780Y0224843D01*
X0433947Y0225442D02*
X0416391Y0225442D01*
X0416990Y0226040D02*
X0434214Y0226040D01*
X0434602Y0226639D02*
X0417589Y0226639D01*
X0418187Y0227237D02*
X0435156Y0227237D01*
X0436057Y0227836D02*
X0418786Y0227836D01*
X0419384Y0228434D02*
X0460000Y0228434D01*
X0460000Y0227836D02*
X0445943Y0227836D01*
X0446844Y0227237D02*
X0460000Y0227237D01*
X0460000Y0226639D02*
X0447398Y0226639D01*
X0447786Y0226040D02*
X0460000Y0226040D01*
X0460000Y0225442D02*
X0448053Y0225442D01*
X0448220Y0224843D02*
X0460000Y0224843D01*
X0460000Y0229033D02*
X0445858Y0229033D01*
X0447127Y0229631D02*
X0460000Y0229631D01*
X0460000Y0230230D02*
X0447725Y0230230D01*
X0448324Y0230828D02*
X0460000Y0230828D01*
X0460000Y0231427D02*
X0448671Y0231427D01*
X0448919Y0232025D02*
X0460000Y0232025D01*
X0460000Y0232624D02*
X0449167Y0232624D01*
X0449300Y0233222D02*
X0460000Y0233222D01*
X0460000Y0233821D02*
X0449300Y0233821D01*
X0449300Y0234419D02*
X0460000Y0234419D01*
X0460000Y0235018D02*
X0449300Y0235018D01*
X0449067Y0235616D02*
X0460000Y0235616D01*
X0460000Y0236215D02*
X0448819Y0236215D01*
X0448571Y0236813D02*
X0460000Y0236813D01*
X0460000Y0237412D02*
X0448083Y0237412D01*
X0447485Y0238010D02*
X0460000Y0238010D01*
X0460000Y0238609D02*
X0446722Y0238609D01*
X0445278Y0239208D02*
X0460000Y0239208D01*
X0460000Y0239806D02*
X0381190Y0239806D01*
X0380592Y0239208D02*
X0436722Y0239208D01*
X0435278Y0238609D02*
X0379993Y0238609D01*
X0379395Y0238010D02*
X0434515Y0238010D01*
X0434275Y0230230D02*
X0421180Y0230230D01*
X0420581Y0229631D02*
X0434873Y0229631D01*
X0436142Y0229033D02*
X0419983Y0229033D01*
X0414273Y0233222D02*
X0386400Y0233222D01*
X0386400Y0232624D02*
X0413674Y0232624D01*
X0413076Y0232025D02*
X0386400Y0232025D01*
X0386400Y0231427D02*
X0412477Y0231427D01*
X0411879Y0230828D02*
X0386400Y0230828D01*
X0386400Y0230230D02*
X0400871Y0230230D01*
X0405129Y0230230D02*
X0411280Y0230230D01*
X0410682Y0229631D02*
X0405727Y0229631D01*
X0406326Y0229033D02*
X0410083Y0229033D01*
X0409485Y0228434D02*
X0406789Y0228434D01*
X0406789Y0227836D02*
X0408886Y0227836D01*
X0408288Y0227237D02*
X0406789Y0227237D01*
X0406789Y0226639D02*
X0407689Y0226639D01*
X0407091Y0226040D02*
X0406789Y0226040D01*
X0414871Y0233821D02*
X0386400Y0233821D01*
X0386010Y0234419D02*
X0415470Y0234419D01*
X0416068Y0235018D02*
X0385412Y0235018D01*
X0384813Y0235616D02*
X0416667Y0235616D01*
X0417265Y0236215D02*
X0384215Y0236215D01*
X0383616Y0236813D02*
X0417864Y0236813D01*
X0419091Y0237412D02*
X0378900Y0237412D01*
X0378900Y0236813D02*
X0379384Y0236813D01*
X0381789Y0240405D02*
X0460000Y0240405D01*
X0460000Y0241003D02*
X0382387Y0241003D01*
X0382986Y0241602D02*
X0460000Y0241602D01*
X0460000Y0242200D02*
X0383584Y0242200D01*
X0384183Y0242799D02*
X0460000Y0242799D01*
X0460000Y0243397D02*
X0384781Y0243397D01*
X0385380Y0243996D02*
X0460000Y0243996D01*
X0460000Y0244594D02*
X0395524Y0244594D01*
X0396122Y0245193D02*
X0460000Y0245193D01*
X0460000Y0245791D02*
X0396721Y0245791D01*
X0397319Y0246390D02*
X0460000Y0246390D01*
X0460000Y0246988D02*
X0397900Y0246988D01*
X0397900Y0247587D02*
X0460000Y0247587D01*
X0460000Y0248185D02*
X0397900Y0248185D01*
X0397900Y0248784D02*
X0460000Y0248784D01*
X0460000Y0249382D02*
X0397900Y0249382D01*
X0397900Y0249981D02*
X0460000Y0249981D01*
X0460000Y0250579D02*
X0397900Y0250579D01*
X0397752Y0251178D02*
X0460000Y0251178D01*
X0460000Y0251776D02*
X0397153Y0251776D01*
X0396555Y0252375D02*
X0460000Y0252375D01*
X0460000Y0252973D02*
X0395956Y0252973D01*
X0395358Y0253572D02*
X0460000Y0253572D01*
X0460000Y0254170D02*
X0351214Y0254170D01*
X0351812Y0253572D02*
X0390642Y0253572D01*
X0390044Y0252973D02*
X0352411Y0252973D01*
X0353009Y0252375D02*
X0389445Y0252375D01*
X0384602Y0251776D02*
X0353608Y0251776D01*
X0354206Y0251178D02*
X0383794Y0251178D01*
X0383195Y0250579D02*
X0354805Y0250579D01*
X0355403Y0249981D02*
X0382597Y0249981D01*
X0381998Y0249382D02*
X0356002Y0249382D01*
X0356600Y0248784D02*
X0381400Y0248784D01*
X0380801Y0248185D02*
X0357199Y0248185D01*
X0357797Y0247587D02*
X0380203Y0247587D01*
X0379604Y0246988D02*
X0358396Y0246988D01*
X0358994Y0246390D02*
X0379006Y0246390D01*
X0378407Y0245791D02*
X0359593Y0245791D01*
X0360191Y0245193D02*
X0377809Y0245193D01*
X0377210Y0244594D02*
X0360790Y0244594D01*
X0361388Y0243996D02*
X0376612Y0243996D01*
X0376013Y0243397D02*
X0361987Y0243397D01*
X0362585Y0242799D02*
X0375415Y0242799D01*
X0374816Y0242200D02*
X0363184Y0242200D01*
X0363782Y0241602D02*
X0371672Y0241602D01*
X0371073Y0241003D02*
X0364381Y0241003D01*
X0364980Y0240405D02*
X0370475Y0240405D01*
X0385978Y0244594D02*
X0390476Y0244594D01*
X0389878Y0245193D02*
X0386577Y0245193D01*
X0387175Y0245791D02*
X0389279Y0245791D01*
X0389864Y0263148D02*
X0384136Y0263148D01*
X0385242Y0263746D02*
X0388758Y0263746D01*
X0388160Y0264345D02*
X0385840Y0264345D01*
X0386439Y0264943D02*
X0387561Y0264943D01*
X0387281Y0265542D02*
X0386719Y0265542D01*
X0386966Y0266141D02*
X0387034Y0266141D01*
X0394136Y0263148D02*
X0399864Y0263148D01*
X0398758Y0263746D02*
X0395242Y0263746D01*
X0395840Y0264345D02*
X0398160Y0264345D01*
X0397561Y0264943D02*
X0396439Y0264943D01*
X0396719Y0265542D02*
X0397281Y0265542D01*
X0397034Y0266141D02*
X0396966Y0266141D01*
X0404136Y0263148D02*
X0409864Y0263148D01*
X0408758Y0263746D02*
X0405242Y0263746D01*
X0405840Y0264345D02*
X0408160Y0264345D01*
X0407561Y0264943D02*
X0406439Y0264943D01*
X0406719Y0265542D02*
X0407281Y0265542D01*
X0407034Y0266141D02*
X0406966Y0266141D01*
X0414136Y0263148D02*
X0419864Y0263148D01*
X0418758Y0263746D02*
X0415242Y0263746D01*
X0415840Y0264345D02*
X0418160Y0264345D01*
X0417561Y0264943D02*
X0416439Y0264943D01*
X0416719Y0265542D02*
X0417281Y0265542D01*
X0417034Y0266141D02*
X0416966Y0266141D01*
X0424136Y0263148D02*
X0429864Y0263148D01*
X0428758Y0263746D02*
X0425242Y0263746D01*
X0425840Y0264345D02*
X0428160Y0264345D01*
X0427561Y0264943D02*
X0426439Y0264943D01*
X0426719Y0265542D02*
X0427281Y0265542D01*
X0427034Y0266141D02*
X0426966Y0266141D01*
X0434136Y0263148D02*
X0460000Y0263148D01*
X0460000Y0263746D02*
X0435242Y0263746D01*
X0435840Y0264345D02*
X0460000Y0264345D01*
X0460000Y0264943D02*
X0436439Y0264943D01*
X0436719Y0265542D02*
X0460000Y0265542D01*
X0460000Y0266141D02*
X0436966Y0266141D01*
X0437214Y0266739D02*
X0460000Y0266739D01*
X0460000Y0267338D02*
X0437300Y0267338D01*
X0437300Y0267936D02*
X0460000Y0267936D01*
X0460000Y0268535D02*
X0437300Y0268535D01*
X0437300Y0269133D02*
X0460000Y0269133D01*
X0460000Y0269732D02*
X0437300Y0269732D01*
X0437300Y0270330D02*
X0460000Y0270330D01*
X0460000Y0270929D02*
X0437300Y0270929D01*
X0437300Y0271527D02*
X0460000Y0271527D01*
X0460000Y0272126D02*
X0437300Y0272126D01*
X0437300Y0272724D02*
X0460000Y0272724D01*
X0460000Y0273323D02*
X0437300Y0273323D01*
X0437300Y0273921D02*
X0460000Y0273921D01*
X0460000Y0274520D02*
X0437300Y0274520D01*
X0437273Y0275118D02*
X0460000Y0275118D01*
X0460000Y0275717D02*
X0437026Y0275717D01*
X0460000Y0262549D02*
X0342835Y0262549D01*
X0343433Y0261951D02*
X0460000Y0261951D01*
X0460000Y0261352D02*
X0344032Y0261352D01*
X0344630Y0260754D02*
X0460000Y0260754D01*
X0460000Y0260155D02*
X0345229Y0260155D01*
X0345827Y0259557D02*
X0460000Y0259557D01*
X0460000Y0258958D02*
X0346426Y0258958D01*
X0347024Y0258360D02*
X0460000Y0258360D01*
X0460000Y0257761D02*
X0347623Y0257761D01*
X0348221Y0257163D02*
X0460000Y0257163D01*
X0460000Y0256564D02*
X0348820Y0256564D01*
X0349418Y0255966D02*
X0460000Y0255966D01*
X0460000Y0255367D02*
X0350017Y0255367D01*
X0350615Y0254769D02*
X0460000Y0254769D01*
X0441300Y0227836D02*
X0440700Y0227836D01*
X0440700Y0227237D02*
X0441300Y0227237D01*
X0441300Y0226639D02*
X0440700Y0226639D01*
X0440700Y0226040D02*
X0441300Y0226040D01*
X0441300Y0225442D02*
X0440700Y0225442D01*
X0440700Y0223646D02*
X0441300Y0223646D01*
X0441300Y0223048D02*
X0440700Y0223048D01*
X0440700Y0222449D02*
X0441300Y0222449D01*
X0441300Y0221851D02*
X0440700Y0221851D01*
X0440700Y0221252D02*
X0441300Y0221252D01*
X0441300Y0220654D02*
X0440700Y0220654D01*
X0440700Y0220055D02*
X0441300Y0220055D01*
X0434542Y0176962D02*
X0371422Y0176962D01*
X0372020Y0176364D02*
X0435343Y0176364D01*
X0435655Y0175765D02*
X0372619Y0175765D01*
X0373217Y0175167D02*
X0434671Y0175167D01*
X0434073Y0174568D02*
X0373816Y0174568D01*
X0369237Y0170379D02*
X0356976Y0170379D01*
X0356747Y0169828D02*
X0357600Y0171886D01*
X0357600Y0174114D01*
X0356747Y0176172D01*
X0355172Y0177747D01*
X0353114Y0178600D01*
X0350886Y0178600D01*
X0348828Y0177747D01*
X0347253Y0176172D01*
X0346400Y0174114D01*
X0346400Y0171886D01*
X0347253Y0169828D01*
X0348828Y0168253D01*
X0350886Y0167400D01*
X0353114Y0167400D01*
X0355172Y0168253D01*
X0356747Y0169828D01*
X0356700Y0169780D02*
X0369836Y0169780D01*
X0370434Y0169182D02*
X0356101Y0169182D01*
X0355503Y0168583D02*
X0371033Y0168583D01*
X0372179Y0167985D02*
X0354525Y0167985D01*
X0357224Y0170977D02*
X0368639Y0170977D01*
X0368040Y0171576D02*
X0357471Y0171576D01*
X0357600Y0172174D02*
X0367442Y0172174D01*
X0366843Y0172773D02*
X0357600Y0172773D01*
X0357600Y0173371D02*
X0366245Y0173371D01*
X0365646Y0173970D02*
X0357600Y0173970D01*
X0357412Y0174568D02*
X0365048Y0174568D01*
X0364449Y0175167D02*
X0357164Y0175167D01*
X0356916Y0175765D02*
X0363851Y0175765D01*
X0363252Y0176364D02*
X0356556Y0176364D01*
X0355957Y0176962D02*
X0362654Y0176962D01*
X0362055Y0177561D02*
X0355359Y0177561D01*
X0354178Y0178159D02*
X0361457Y0178159D01*
X0349822Y0178159D02*
X0316109Y0178159D01*
X0315511Y0177561D02*
X0348641Y0177561D01*
X0348043Y0176962D02*
X0315957Y0176962D01*
X0316556Y0176364D02*
X0347444Y0176364D01*
X0347084Y0175765D02*
X0316916Y0175765D01*
X0317164Y0175167D02*
X0346836Y0175167D01*
X0346588Y0174568D02*
X0317412Y0174568D01*
X0317600Y0173970D02*
X0346400Y0173970D01*
X0346400Y0173371D02*
X0317600Y0173371D01*
X0317600Y0172773D02*
X0346400Y0172773D01*
X0346400Y0172174D02*
X0317600Y0172174D01*
X0317471Y0171576D02*
X0346529Y0171576D01*
X0346776Y0170977D02*
X0317224Y0170977D01*
X0316976Y0170379D02*
X0347024Y0170379D01*
X0347300Y0169780D02*
X0316700Y0169780D01*
X0316101Y0169182D02*
X0347899Y0169182D01*
X0348497Y0168583D02*
X0315503Y0168583D01*
X0315500Y0167985D02*
X0349475Y0167985D01*
X0351953Y0164394D02*
X0433898Y0164394D01*
X0433421Y0163795D02*
X0353155Y0163795D01*
X0353753Y0163197D02*
X0433173Y0163197D01*
X0432925Y0162598D02*
X0354352Y0162598D01*
X0360500Y0148234D02*
X0399667Y0148234D01*
X0398222Y0147635D02*
X0360500Y0147635D01*
X0360500Y0147037D02*
X0397016Y0147037D01*
X0396417Y0146438D02*
X0360500Y0146438D01*
X0360500Y0145840D02*
X0395819Y0145840D01*
X0395220Y0145241D02*
X0360500Y0145241D01*
X0360500Y0144643D02*
X0394723Y0144643D01*
X0394475Y0144044D02*
X0360500Y0144044D01*
X0360500Y0143446D02*
X0394227Y0143446D01*
X0393979Y0142847D02*
X0360500Y0142847D01*
X0360500Y0142249D02*
X0393731Y0142249D01*
X0393500Y0141650D02*
X0360500Y0141650D01*
X0360500Y0141052D02*
X0393500Y0141052D01*
X0393500Y0140453D02*
X0360500Y0140453D01*
X0360500Y0139855D02*
X0393500Y0139855D01*
X0393500Y0139256D02*
X0360500Y0139256D01*
X0360500Y0138658D02*
X0393500Y0138658D01*
X0393604Y0138059D02*
X0360500Y0138059D01*
X0360500Y0137461D02*
X0393852Y0137461D01*
X0393912Y0136862D02*
X0360500Y0136862D01*
X0329837Y0148234D02*
X0306800Y0148234D01*
X0306800Y0148832D02*
X0329238Y0148832D01*
X0328640Y0149431D02*
X0306800Y0149431D01*
X0306800Y0150029D02*
X0328041Y0150029D01*
X0327443Y0150628D02*
X0306800Y0150628D01*
X0307176Y0151226D02*
X0327100Y0151226D01*
X0327100Y0151825D02*
X0307775Y0151825D01*
X0308373Y0152423D02*
X0327100Y0152423D01*
X0327100Y0153022D02*
X0308972Y0153022D01*
X0309570Y0153620D02*
X0327100Y0153620D01*
X0327100Y0154219D02*
X0310169Y0154219D01*
X0310767Y0154817D02*
X0327100Y0154817D01*
X0327486Y0155416D02*
X0311366Y0155416D01*
X0311964Y0156014D02*
X0328085Y0156014D01*
X0328683Y0156613D02*
X0312563Y0156613D01*
X0313161Y0157211D02*
X0329282Y0157211D01*
X0315500Y0164992D02*
X0434497Y0164992D01*
X0435233Y0165591D02*
X0315500Y0165591D01*
X0315500Y0166189D02*
X0435765Y0166189D01*
X0434717Y0166788D02*
X0315500Y0166788D01*
X0315500Y0167386D02*
X0434119Y0167386D01*
X0445813Y0156014D02*
X0460000Y0156014D01*
X0402300Y0108732D02*
X0401700Y0108732D01*
X0401700Y0108134D02*
X0402300Y0108134D01*
X0402300Y0107535D02*
X0401700Y0107535D01*
X0401700Y0106937D02*
X0402300Y0106937D01*
X0402300Y0106338D02*
X0401700Y0106338D01*
X0401700Y0105739D02*
X0402300Y0105739D01*
X0402300Y0105141D02*
X0401700Y0105141D01*
X0401700Y0104542D02*
X0402300Y0104542D01*
X0402300Y0103944D02*
X0401700Y0103944D01*
X0401700Y0103345D02*
X0402300Y0103345D01*
X0402300Y0102747D02*
X0401700Y0102747D01*
X0332300Y0102148D02*
X0331700Y0102148D01*
X0331700Y0101550D02*
X0332300Y0101550D01*
X0332300Y0100951D02*
X0331700Y0100951D01*
X0331700Y0100353D02*
X0332300Y0100353D01*
X0332300Y0099754D02*
X0331700Y0099754D01*
X0331700Y0099156D02*
X0332300Y0099156D01*
X0299800Y0144643D02*
X0207739Y0144643D01*
X0206294Y0145241D02*
X0299800Y0145241D01*
X0299800Y0145840D02*
X0176110Y0145840D01*
X0175511Y0146438D02*
X0299800Y0146438D01*
X0299800Y0147037D02*
X0174913Y0147037D01*
X0174314Y0147635D02*
X0206006Y0147635D01*
X0205408Y0148234D02*
X0173716Y0148234D01*
X0173117Y0148832D02*
X0204809Y0148832D01*
X0203422Y0150628D02*
X0171322Y0150628D01*
X0170723Y0151226D02*
X0202824Y0151226D01*
X0202225Y0151825D02*
X0185617Y0151825D01*
X0185074Y0151600D02*
X0187059Y0152422D01*
X0188578Y0153941D01*
X0189400Y0155926D01*
X0189400Y0158074D01*
X0188578Y0160059D01*
X0187059Y0161578D01*
X0185074Y0162400D01*
X0182926Y0162400D01*
X0180941Y0161578D01*
X0179422Y0160059D01*
X0178600Y0158074D01*
X0178600Y0155926D01*
X0179422Y0153941D01*
X0180941Y0152422D01*
X0182926Y0151600D01*
X0185074Y0151600D01*
X0187060Y0152423D02*
X0201627Y0152423D01*
X0201028Y0153022D02*
X0187659Y0153022D01*
X0188257Y0153620D02*
X0200430Y0153620D01*
X0199949Y0154219D02*
X0188693Y0154219D01*
X0188941Y0154817D02*
X0199701Y0154817D01*
X0199500Y0155416D02*
X0189189Y0155416D01*
X0189400Y0156014D02*
X0199500Y0156014D01*
X0199500Y0156613D02*
X0189400Y0156613D01*
X0189400Y0157211D02*
X0199500Y0157211D01*
X0199500Y0157810D02*
X0189400Y0157810D01*
X0189262Y0158408D02*
X0199500Y0158408D01*
X0199500Y0159007D02*
X0189014Y0159007D01*
X0188766Y0159605D02*
X0199500Y0159605D01*
X0199500Y0160204D02*
X0188433Y0160204D01*
X0187834Y0160803D02*
X0199500Y0160803D01*
X0199241Y0161401D02*
X0187236Y0161401D01*
X0186041Y0162000D02*
X0199211Y0162000D01*
X0199211Y0162598D02*
X0136352Y0162598D01*
X0136950Y0162000D02*
X0181959Y0162000D01*
X0182177Y0162600D02*
X0179600Y0165177D01*
X0179600Y0166700D01*
X0183700Y0166700D01*
X0183700Y0167300D01*
X0183700Y0171400D01*
X0182177Y0171400D01*
X0179600Y0168823D01*
X0179600Y0167300D01*
X0183700Y0167300D01*
X0184300Y0167300D01*
X0184300Y0171400D01*
X0185823Y0171400D01*
X0188400Y0168823D01*
X0188400Y0167300D01*
X0184300Y0167300D01*
X0184300Y0166700D01*
X0188400Y0166700D01*
X0188400Y0165177D01*
X0185823Y0162600D01*
X0184300Y0162600D01*
X0184300Y0166700D01*
X0183700Y0166700D01*
X0183700Y0162600D01*
X0182177Y0162600D01*
X0181581Y0163197D02*
X0135753Y0163197D01*
X0135155Y0163795D02*
X0180982Y0163795D01*
X0180384Y0164394D02*
X0134556Y0164394D01*
X0133958Y0164992D02*
X0179785Y0164992D01*
X0179600Y0165591D02*
X0133739Y0165591D01*
X0133987Y0166189D02*
X0179600Y0166189D01*
X0179600Y0167386D02*
X0134300Y0167386D01*
X0134300Y0167985D02*
X0179600Y0167985D01*
X0179600Y0168583D02*
X0134300Y0168583D01*
X0134247Y0169182D02*
X0179959Y0169182D01*
X0180558Y0169780D02*
X0133999Y0169780D01*
X0134234Y0166788D02*
X0183700Y0166788D01*
X0183700Y0167386D02*
X0184300Y0167386D01*
X0184300Y0166788D02*
X0201429Y0166788D01*
X0200831Y0166189D02*
X0188400Y0166189D01*
X0188400Y0165591D02*
X0200232Y0165591D01*
X0199634Y0164992D02*
X0188215Y0164992D01*
X0187616Y0164394D02*
X0199211Y0164394D01*
X0199211Y0163795D02*
X0187018Y0163795D01*
X0186419Y0163197D02*
X0199211Y0163197D01*
X0188400Y0167386D02*
X0213098Y0167386D01*
X0212500Y0167985D02*
X0188400Y0167985D01*
X0188400Y0168583D02*
X0211901Y0168583D01*
X0211303Y0169182D02*
X0188041Y0169182D01*
X0187442Y0169780D02*
X0211100Y0169780D01*
X0214700Y0169780D02*
X0215300Y0169780D01*
X0215300Y0169182D02*
X0214700Y0169182D01*
X0214700Y0168583D02*
X0215300Y0168583D01*
X0215300Y0167985D02*
X0214700Y0167985D01*
X0214700Y0167386D02*
X0215300Y0167386D01*
X0215300Y0171576D02*
X0214700Y0171576D01*
X0214700Y0172174D02*
X0215300Y0172174D01*
X0215300Y0172773D02*
X0214700Y0172773D01*
X0214700Y0173371D02*
X0215300Y0173371D01*
X0215300Y0173970D02*
X0214700Y0173970D01*
X0214700Y0174568D02*
X0215300Y0174568D01*
X0216947Y0174568D02*
X0241639Y0174568D01*
X0242237Y0175167D02*
X0161900Y0175167D01*
X0161900Y0174568D02*
X0213053Y0174568D01*
X0217546Y0173970D02*
X0241040Y0173970D01*
X0240442Y0173371D02*
X0218144Y0173371D01*
X0218743Y0172773D02*
X0240100Y0172773D01*
X0240100Y0172174D02*
X0218900Y0172174D01*
X0218900Y0171576D02*
X0240100Y0171576D01*
X0242836Y0175765D02*
X0161750Y0175765D01*
X0161152Y0176364D02*
X0307444Y0176364D01*
X0307084Y0175765D02*
X0295164Y0175765D01*
X0295763Y0175167D02*
X0306836Y0175167D01*
X0306588Y0174568D02*
X0296361Y0174568D01*
X0296960Y0173970D02*
X0306400Y0173970D01*
X0306400Y0173371D02*
X0297558Y0173371D01*
X0297900Y0172773D02*
X0306400Y0172773D01*
X0306400Y0172174D02*
X0297900Y0172174D01*
X0297900Y0171576D02*
X0306529Y0171576D01*
X0306776Y0170977D02*
X0297900Y0170977D01*
X0297900Y0170379D02*
X0307024Y0170379D01*
X0307300Y0169780D02*
X0297900Y0169780D01*
X0297900Y0169182D02*
X0307899Y0169182D01*
X0308497Y0168583D02*
X0297513Y0168583D01*
X0296914Y0167985D02*
X0308500Y0167985D01*
X0308500Y0167386D02*
X0296316Y0167386D01*
X0295717Y0166788D02*
X0308500Y0166788D01*
X0308043Y0176962D02*
X0160553Y0176962D01*
X0159955Y0177561D02*
X0308489Y0177561D01*
X0288527Y0192524D02*
X0213753Y0192524D01*
X0215072Y0193122D02*
X0287928Y0193122D01*
X0287330Y0193721D02*
X0215670Y0193721D01*
X0216269Y0194319D02*
X0286731Y0194319D01*
X0245295Y0194918D02*
X0216867Y0194918D01*
X0217466Y0195516D02*
X0244534Y0195516D01*
X0243936Y0196115D02*
X0218064Y0196115D01*
X0218663Y0196713D02*
X0243337Y0196713D01*
X0242739Y0197312D02*
X0219261Y0197312D01*
X0219860Y0197910D02*
X0242140Y0197910D01*
X0241542Y0198509D02*
X0220458Y0198509D01*
X0221057Y0199107D02*
X0240943Y0199107D01*
X0240344Y0199706D02*
X0221655Y0199706D01*
X0222254Y0200304D02*
X0239746Y0200304D01*
X0239147Y0200903D02*
X0222853Y0200903D01*
X0223451Y0201501D02*
X0238549Y0201501D01*
X0237950Y0202100D02*
X0224050Y0202100D01*
X0224648Y0202698D02*
X0237352Y0202698D01*
X0236917Y0203297D02*
X0225247Y0203297D01*
X0225845Y0203895D02*
X0236669Y0203895D01*
X0236500Y0204494D02*
X0226444Y0204494D01*
X0200900Y0205691D02*
X0190621Y0205691D01*
X0191219Y0206289D02*
X0200900Y0206289D01*
X0200900Y0206888D02*
X0191818Y0206888D01*
X0191900Y0207486D02*
X0200900Y0207486D01*
X0200900Y0208085D02*
X0191900Y0208085D01*
X0191900Y0208683D02*
X0200900Y0208683D01*
X0200900Y0209282D02*
X0191900Y0209282D01*
X0191900Y0209880D02*
X0200900Y0209880D01*
X0200900Y0210479D02*
X0191900Y0210479D01*
X0191852Y0211077D02*
X0200900Y0211077D01*
X0200900Y0211676D02*
X0191254Y0211676D01*
X0190655Y0212274D02*
X0200900Y0212274D01*
X0200900Y0212873D02*
X0190057Y0212873D01*
X0189458Y0213472D02*
X0200900Y0213472D01*
X0200900Y0214070D02*
X0169100Y0214070D01*
X0169100Y0213472D02*
X0184542Y0213472D01*
X0183943Y0212873D02*
X0169100Y0212873D01*
X0169100Y0212274D02*
X0183345Y0212274D01*
X0182746Y0211676D02*
X0180254Y0211676D01*
X0180852Y0211077D02*
X0182148Y0211077D01*
X0182100Y0210479D02*
X0181451Y0210479D01*
X0182049Y0209880D02*
X0182100Y0209880D01*
X0182900Y0205691D02*
X0183379Y0205691D01*
X0182900Y0205092D02*
X0183978Y0205092D01*
X0184577Y0204494D02*
X0182456Y0204494D01*
X0183054Y0203895D02*
X0199537Y0203895D01*
X0199211Y0203297D02*
X0183653Y0203297D01*
X0184251Y0202698D02*
X0199211Y0202698D01*
X0199211Y0202100D02*
X0184850Y0202100D01*
X0185448Y0201501D02*
X0199211Y0201501D01*
X0199211Y0200903D02*
X0186047Y0200903D01*
X0186645Y0200304D02*
X0199337Y0200304D01*
X0199936Y0199706D02*
X0187244Y0199706D01*
X0189423Y0204494D02*
X0200135Y0204494D01*
X0200734Y0205092D02*
X0190022Y0205092D01*
X0180936Y0196115D02*
X0172269Y0196115D01*
X0171671Y0196713D02*
X0180337Y0196713D01*
X0179739Y0197312D02*
X0171072Y0197312D01*
X0170474Y0197910D02*
X0179140Y0197910D01*
X0178542Y0198509D02*
X0169875Y0198509D01*
X0169277Y0199107D02*
X0177943Y0199107D01*
X0177344Y0199706D02*
X0169100Y0199706D01*
X0169100Y0200304D02*
X0176746Y0200304D01*
X0176147Y0200903D02*
X0169100Y0200903D01*
X0169100Y0201501D02*
X0175549Y0201501D01*
X0174999Y0202100D02*
X0169100Y0202100D01*
X0169100Y0202698D02*
X0174751Y0202698D01*
X0174503Y0203297D02*
X0169100Y0203297D01*
X0169100Y0203895D02*
X0174175Y0203895D01*
X0173577Y0204494D02*
X0169100Y0204494D01*
X0169100Y0205092D02*
X0173100Y0205092D01*
X0173100Y0205691D02*
X0169100Y0205691D01*
X0169100Y0206289D02*
X0173100Y0206289D01*
X0173100Y0206888D02*
X0169100Y0206888D01*
X0169100Y0207486D02*
X0173100Y0207486D01*
X0173100Y0208085D02*
X0169100Y0208085D01*
X0169100Y0208683D02*
X0173100Y0208683D01*
X0173352Y0209282D02*
X0169100Y0209282D01*
X0169100Y0209880D02*
X0173951Y0209880D01*
X0174549Y0210479D02*
X0169100Y0210479D01*
X0169100Y0211077D02*
X0175148Y0211077D01*
X0175746Y0211676D02*
X0169100Y0211676D01*
X0169100Y0214669D02*
X0200900Y0214669D01*
X0200900Y0215267D02*
X0169100Y0215267D01*
X0169100Y0215866D02*
X0200900Y0215866D01*
X0200900Y0216464D02*
X0169100Y0216464D01*
X0169100Y0217063D02*
X0200900Y0217063D01*
X0200900Y0217661D02*
X0169100Y0217661D01*
X0169189Y0218260D02*
X0200900Y0218260D01*
X0200900Y0218858D02*
X0169788Y0218858D01*
X0170386Y0219457D02*
X0200900Y0219457D01*
X0200900Y0220055D02*
X0170900Y0220055D01*
X0170900Y0220654D02*
X0200900Y0220654D01*
X0200900Y0221252D02*
X0170900Y0221252D01*
X0170900Y0221851D02*
X0200900Y0221851D01*
X0200900Y0222449D02*
X0175879Y0222449D01*
X0176477Y0223048D02*
X0200900Y0223048D01*
X0200900Y0223646D02*
X0177076Y0223646D01*
X0177674Y0224245D02*
X0200900Y0224245D01*
X0200900Y0224843D02*
X0178273Y0224843D01*
X0178400Y0225442D02*
X0200900Y0225442D01*
X0200900Y0226040D02*
X0178400Y0226040D01*
X0178400Y0226639D02*
X0200900Y0226639D01*
X0200900Y0227237D02*
X0178400Y0227237D01*
X0178400Y0227836D02*
X0200900Y0227836D01*
X0200900Y0228434D02*
X0178400Y0228434D01*
X0178397Y0229033D02*
X0200900Y0229033D01*
X0200900Y0229631D02*
X0177798Y0229631D01*
X0177200Y0230230D02*
X0200900Y0230230D01*
X0200900Y0230828D02*
X0176601Y0230828D01*
X0176003Y0231427D02*
X0200900Y0231427D01*
X0200900Y0232025D02*
X0175300Y0232025D01*
X0175300Y0232624D02*
X0200903Y0232624D01*
X0201151Y0233222D02*
X0175300Y0233222D01*
X0175300Y0233821D02*
X0201437Y0233821D01*
X0202035Y0234419D02*
X0189349Y0234419D01*
X0189948Y0235018D02*
X0202634Y0235018D01*
X0203232Y0235616D02*
X0190546Y0235616D01*
X0191145Y0236215D02*
X0203831Y0236215D01*
X0204429Y0236813D02*
X0191743Y0236813D01*
X0191900Y0237412D02*
X0205028Y0237412D01*
X0205626Y0238010D02*
X0191900Y0238010D01*
X0191900Y0238609D02*
X0206225Y0238609D01*
X0206823Y0239208D02*
X0191900Y0239208D01*
X0191900Y0239806D02*
X0207422Y0239806D01*
X0208020Y0240405D02*
X0191900Y0240405D01*
X0191900Y0241003D02*
X0208619Y0241003D01*
X0209218Y0241602D02*
X0191328Y0241602D01*
X0190730Y0242200D02*
X0209816Y0242200D01*
X0210415Y0242799D02*
X0190131Y0242799D01*
X0189533Y0243397D02*
X0211013Y0243397D01*
X0214006Y0246390D02*
X0138390Y0246390D01*
X0138988Y0246988D02*
X0214604Y0246988D01*
X0215203Y0247587D02*
X0139587Y0247587D01*
X0140185Y0248185D02*
X0215801Y0248185D01*
X0216400Y0248784D02*
X0140784Y0248784D01*
X0141382Y0249382D02*
X0216998Y0249382D01*
X0217597Y0249981D02*
X0141981Y0249981D01*
X0142579Y0250579D02*
X0218195Y0250579D01*
X0218794Y0251178D02*
X0143178Y0251178D01*
X0143776Y0251776D02*
X0219392Y0251776D01*
X0219991Y0252375D02*
X0144375Y0252375D01*
X0144973Y0252973D02*
X0220589Y0252973D01*
X0221188Y0253572D02*
X0145572Y0253572D01*
X0146170Y0254170D02*
X0221786Y0254170D01*
X0222385Y0254769D02*
X0146769Y0254769D01*
X0147367Y0255367D02*
X0222983Y0255367D01*
X0223582Y0255966D02*
X0147966Y0255966D01*
X0148564Y0256564D02*
X0223796Y0256564D01*
X0223759Y0257163D02*
X0149163Y0257163D01*
X0149761Y0257761D02*
X0223721Y0257761D01*
X0223684Y0258360D02*
X0150360Y0258360D01*
X0150958Y0258958D02*
X0223647Y0258958D01*
X0223609Y0259557D02*
X0151557Y0259557D01*
X0152155Y0260155D02*
X0223572Y0260155D01*
X0223534Y0260754D02*
X0152754Y0260754D01*
X0153352Y0261352D02*
X0223497Y0261352D01*
X0223460Y0261951D02*
X0153951Y0261951D01*
X0154549Y0262549D02*
X0223422Y0262549D01*
X0223385Y0263148D02*
X0217977Y0263148D01*
X0219166Y0263746D02*
X0222834Y0263746D01*
X0222236Y0264345D02*
X0219764Y0264345D01*
X0220363Y0264943D02*
X0221637Y0264943D01*
X0221329Y0265542D02*
X0220671Y0265542D01*
X0220919Y0266141D02*
X0221081Y0266141D01*
X0214023Y0263148D02*
X0207977Y0263148D01*
X0209166Y0263746D02*
X0212834Y0263746D01*
X0212236Y0264345D02*
X0209764Y0264345D01*
X0210363Y0264943D02*
X0211637Y0264943D01*
X0211329Y0265542D02*
X0210671Y0265542D01*
X0210919Y0266141D02*
X0211081Y0266141D01*
X0204023Y0263148D02*
X0197977Y0263148D01*
X0199166Y0263746D02*
X0202834Y0263746D01*
X0202236Y0264345D02*
X0199764Y0264345D01*
X0200363Y0264943D02*
X0201637Y0264943D01*
X0201329Y0265542D02*
X0200671Y0265542D01*
X0200919Y0266141D02*
X0201081Y0266141D01*
X0194023Y0263148D02*
X0187977Y0263148D01*
X0189166Y0263746D02*
X0192834Y0263746D01*
X0192236Y0264345D02*
X0189764Y0264345D01*
X0190363Y0264943D02*
X0191637Y0264943D01*
X0191329Y0265542D02*
X0190671Y0265542D01*
X0190919Y0266141D02*
X0191081Y0266141D01*
X0184023Y0263148D02*
X0155148Y0263148D01*
X0155746Y0263746D02*
X0182834Y0263746D01*
X0182236Y0264345D02*
X0156345Y0264345D01*
X0156943Y0264943D02*
X0181637Y0264943D01*
X0181329Y0265542D02*
X0157542Y0265542D01*
X0158141Y0266141D02*
X0181081Y0266141D01*
X0180833Y0266739D02*
X0158739Y0266739D01*
X0159338Y0267338D02*
X0180731Y0267338D01*
X0180731Y0267936D02*
X0159936Y0267936D01*
X0160535Y0268535D02*
X0180731Y0268535D01*
X0180731Y0269133D02*
X0161133Y0269133D01*
X0161732Y0269732D02*
X0180731Y0269732D01*
X0180731Y0270330D02*
X0162330Y0270330D01*
X0162929Y0270929D02*
X0180731Y0270929D01*
X0180731Y0271527D02*
X0163527Y0271527D01*
X0164126Y0272126D02*
X0180731Y0272126D01*
X0180731Y0272724D02*
X0164724Y0272724D01*
X0165323Y0273323D02*
X0180731Y0273323D01*
X0180731Y0273921D02*
X0165921Y0273921D01*
X0166520Y0274520D02*
X0180731Y0274520D01*
X0180774Y0275118D02*
X0167118Y0275118D01*
X0167717Y0275717D02*
X0181022Y0275717D01*
X0183270Y0242200D02*
X0131295Y0242200D01*
X0132740Y0241602D02*
X0182672Y0241602D01*
X0182100Y0241003D02*
X0169816Y0241003D01*
X0170748Y0240405D02*
X0182100Y0240405D01*
X0182100Y0239806D02*
X0171346Y0239806D01*
X0171945Y0239208D02*
X0182100Y0239208D01*
X0182100Y0238609D02*
X0172543Y0238609D01*
X0173142Y0238010D02*
X0182100Y0238010D01*
X0182100Y0237412D02*
X0173740Y0237412D01*
X0174339Y0236813D02*
X0182257Y0236813D01*
X0182855Y0236215D02*
X0174838Y0236215D01*
X0175086Y0235616D02*
X0183454Y0235616D01*
X0184052Y0235018D02*
X0175300Y0235018D01*
X0175300Y0234419D02*
X0184651Y0234419D01*
X0168600Y0227237D02*
X0168167Y0227237D01*
X0168291Y0226639D02*
X0168600Y0226639D01*
X0170900Y0222449D02*
X0171121Y0222449D01*
X0163709Y0226639D02*
X0159588Y0226639D01*
X0158990Y0226040D02*
X0163111Y0226040D01*
X0162512Y0225442D02*
X0158391Y0225442D01*
X0157793Y0224843D02*
X0161914Y0224843D01*
X0161315Y0224245D02*
X0157194Y0224245D01*
X0156596Y0223646D02*
X0161100Y0223646D01*
X0161100Y0223048D02*
X0155997Y0223048D01*
X0155399Y0222449D02*
X0161100Y0222449D01*
X0161100Y0221851D02*
X0154800Y0221851D01*
X0154202Y0221252D02*
X0161100Y0221252D01*
X0161100Y0220654D02*
X0153603Y0220654D01*
X0153005Y0220055D02*
X0161100Y0220055D01*
X0161614Y0219457D02*
X0152406Y0219457D01*
X0151808Y0218858D02*
X0162212Y0218858D01*
X0162811Y0218260D02*
X0151209Y0218260D01*
X0150611Y0217661D02*
X0162900Y0217661D01*
X0162900Y0217063D02*
X0150012Y0217063D01*
X0149414Y0216464D02*
X0162900Y0216464D01*
X0162900Y0215866D02*
X0148815Y0215866D01*
X0148217Y0215267D02*
X0162900Y0215267D01*
X0162900Y0214669D02*
X0147618Y0214669D01*
X0147020Y0214070D02*
X0162900Y0214070D01*
X0162900Y0213472D02*
X0146421Y0213472D01*
X0145823Y0212873D02*
X0162900Y0212873D01*
X0162900Y0212274D02*
X0145224Y0212274D01*
X0145746Y0211676D02*
X0144626Y0211676D01*
X0145148Y0211077D02*
X0144027Y0211077D01*
X0144549Y0210479D02*
X0143429Y0210479D01*
X0143951Y0209880D02*
X0142830Y0209880D01*
X0143352Y0209282D02*
X0142232Y0209282D01*
X0141633Y0208683D02*
X0143100Y0208683D01*
X0143100Y0209030D02*
X0143100Y0204970D01*
X0145970Y0202100D01*
X0150030Y0202100D01*
X0152900Y0204970D01*
X0152900Y0209030D01*
X0150030Y0211900D01*
X0145970Y0211900D01*
X0143100Y0209030D01*
X0143100Y0208085D02*
X0141035Y0208085D01*
X0140436Y0207486D02*
X0143100Y0207486D01*
X0143100Y0206888D02*
X0139838Y0206888D01*
X0139239Y0206289D02*
X0143100Y0206289D01*
X0143100Y0205691D02*
X0138641Y0205691D01*
X0138042Y0205092D02*
X0143100Y0205092D01*
X0143577Y0204494D02*
X0137444Y0204494D01*
X0136845Y0203895D02*
X0144175Y0203895D01*
X0144774Y0203297D02*
X0136247Y0203297D01*
X0135175Y0202698D02*
X0145372Y0202698D01*
X0150628Y0202698D02*
X0162900Y0202698D01*
X0162900Y0202100D02*
X0133595Y0202100D01*
X0132989Y0201501D02*
X0162900Y0201501D01*
X0162900Y0200903D02*
X0132013Y0200903D01*
X0133191Y0200304D02*
X0162900Y0200304D01*
X0162900Y0199706D02*
X0133790Y0199706D01*
X0134388Y0199107D02*
X0162900Y0199107D01*
X0162900Y0198509D02*
X0134698Y0198509D01*
X0134945Y0197910D02*
X0162900Y0197910D01*
X0162930Y0197312D02*
X0135193Y0197312D01*
X0135300Y0196713D02*
X0163178Y0196713D01*
X0163501Y0196115D02*
X0135300Y0196115D01*
X0135300Y0195516D02*
X0164100Y0195516D01*
X0164698Y0194918D02*
X0135288Y0194918D01*
X0135040Y0194319D02*
X0165297Y0194319D01*
X0165895Y0193721D02*
X0134793Y0193721D01*
X0134545Y0193122D02*
X0166494Y0193122D01*
X0167092Y0192524D02*
X0134019Y0192524D01*
X0133420Y0191925D02*
X0167691Y0191925D01*
X0168289Y0191327D02*
X0132567Y0191327D01*
X0126300Y0181750D02*
X0125700Y0181750D01*
X0125700Y0181152D02*
X0126300Y0181152D01*
X0126300Y0180553D02*
X0125700Y0180553D01*
X0125700Y0179955D02*
X0126300Y0179955D01*
X0126300Y0179356D02*
X0125700Y0179356D01*
X0125700Y0178758D02*
X0126300Y0178758D01*
X0126300Y0176962D02*
X0125700Y0176962D01*
X0125700Y0176364D02*
X0126300Y0176364D01*
X0126300Y0175765D02*
X0125700Y0175765D01*
X0125700Y0175167D02*
X0126300Y0175167D01*
X0126300Y0174568D02*
X0125700Y0174568D01*
X0125700Y0173970D02*
X0126300Y0173970D01*
X0119679Y0172174D02*
X0097100Y0172174D01*
X0097100Y0171576D02*
X0119080Y0171576D01*
X0118497Y0170977D02*
X0097100Y0170977D01*
X0097100Y0170379D02*
X0118249Y0170379D01*
X0118001Y0169780D02*
X0097100Y0169780D01*
X0097100Y0169182D02*
X0117753Y0169182D01*
X0117700Y0168583D02*
X0097100Y0168583D01*
X0097100Y0167985D02*
X0117700Y0167985D01*
X0117700Y0167386D02*
X0097100Y0167386D01*
X0097100Y0166788D02*
X0117765Y0166788D01*
X0118013Y0166189D02*
X0097100Y0166189D01*
X0097100Y0165591D02*
X0118261Y0165591D01*
X0118513Y0164992D02*
X0097100Y0164992D01*
X0097100Y0164394D02*
X0119111Y0164394D01*
X0119710Y0163795D02*
X0097100Y0163795D01*
X0097100Y0163197D02*
X0120747Y0163197D01*
X0126452Y0162598D02*
X0097100Y0162598D01*
X0097100Y0162000D02*
X0127051Y0162000D01*
X0127649Y0161401D02*
X0097100Y0161401D01*
X0097100Y0160803D02*
X0128248Y0160803D01*
X0128846Y0160204D02*
X0097100Y0160204D01*
X0097100Y0159605D02*
X0129445Y0159605D01*
X0130043Y0159007D02*
X0097100Y0159007D01*
X0097100Y0158408D02*
X0130642Y0158408D01*
X0131240Y0157810D02*
X0097100Y0157810D01*
X0097100Y0157211D02*
X0131839Y0157211D01*
X0132437Y0156613D02*
X0097100Y0156613D01*
X0097100Y0156014D02*
X0133036Y0156014D01*
X0133634Y0155416D02*
X0097100Y0155416D01*
X0097100Y0154817D02*
X0134233Y0154817D01*
X0134831Y0154219D02*
X0097100Y0154219D01*
X0097100Y0153620D02*
X0135430Y0153620D01*
X0136028Y0153022D02*
X0097100Y0153022D01*
X0097100Y0152423D02*
X0136627Y0152423D01*
X0137225Y0151825D02*
X0097100Y0151825D01*
X0097100Y0151226D02*
X0137824Y0151226D01*
X0138422Y0150628D02*
X0097100Y0150628D01*
X0097100Y0150029D02*
X0139026Y0150029D01*
X0142337Y0156613D02*
X0178600Y0156613D01*
X0178600Y0157211D02*
X0141738Y0157211D01*
X0141140Y0157810D02*
X0178600Y0157810D01*
X0178738Y0158408D02*
X0140541Y0158408D01*
X0139943Y0159007D02*
X0178986Y0159007D01*
X0179234Y0159605D02*
X0139344Y0159605D01*
X0138746Y0160204D02*
X0179567Y0160204D01*
X0180166Y0160803D02*
X0138147Y0160803D01*
X0137549Y0161401D02*
X0180764Y0161401D01*
X0183700Y0163197D02*
X0184300Y0163197D01*
X0184300Y0163795D02*
X0183700Y0163795D01*
X0183700Y0164394D02*
X0184300Y0164394D01*
X0184300Y0164992D02*
X0183700Y0164992D01*
X0183700Y0165591D02*
X0184300Y0165591D01*
X0184300Y0166189D02*
X0183700Y0166189D01*
X0183700Y0167985D02*
X0184300Y0167985D01*
X0184300Y0168583D02*
X0183700Y0168583D01*
X0183700Y0169182D02*
X0184300Y0169182D01*
X0184300Y0169780D02*
X0183700Y0169780D01*
X0183700Y0170379D02*
X0184300Y0170379D01*
X0184300Y0170977D02*
X0183700Y0170977D01*
X0181755Y0170977D02*
X0160493Y0170977D01*
X0159894Y0170379D02*
X0181156Y0170379D01*
X0178600Y0156014D02*
X0165868Y0156014D01*
X0166534Y0155416D02*
X0178811Y0155416D01*
X0179059Y0154817D02*
X0167132Y0154817D01*
X0167731Y0154219D02*
X0179307Y0154219D01*
X0179743Y0153620D02*
X0168329Y0153620D01*
X0168928Y0153022D02*
X0180341Y0153022D01*
X0180940Y0152423D02*
X0169526Y0152423D01*
X0170125Y0151825D02*
X0182383Y0151825D01*
X0176709Y0145241D02*
X0203106Y0145241D01*
X0201661Y0144643D02*
X0177307Y0144643D01*
X0177906Y0144044D02*
X0200420Y0144044D01*
X0199822Y0143446D02*
X0178504Y0143446D01*
X0179103Y0142847D02*
X0199223Y0142847D01*
X0198625Y0142249D02*
X0179701Y0142249D01*
X0180300Y0141650D02*
X0198310Y0141650D01*
X0198063Y0141052D02*
X0180898Y0141052D01*
X0181497Y0140453D02*
X0197815Y0140453D01*
X0197567Y0139855D02*
X0182095Y0139855D01*
X0182694Y0139256D02*
X0197400Y0139256D01*
X0197400Y0138658D02*
X0183292Y0138658D01*
X0183891Y0138059D02*
X0197400Y0138059D01*
X0197400Y0137461D02*
X0184489Y0137461D01*
X0185088Y0136862D02*
X0197400Y0136862D01*
X0197400Y0129081D02*
X0156300Y0129081D01*
X0156300Y0129300D02*
X0159900Y0129300D01*
X0159900Y0130615D01*
X0157615Y0132900D01*
X0156300Y0132900D01*
X0156300Y0129300D01*
X0155700Y0129300D01*
X0155700Y0132900D01*
X0154385Y0132900D01*
X0152100Y0130615D01*
X0152100Y0129300D01*
X0155700Y0129300D01*
X0155700Y0128700D01*
X0152100Y0128700D01*
X0152100Y0127385D01*
X0154385Y0125100D01*
X0155700Y0125100D01*
X0155700Y0128700D01*
X0156300Y0128700D01*
X0156300Y0129300D01*
X0156300Y0129680D02*
X0155700Y0129680D01*
X0155700Y0130278D02*
X0156300Y0130278D01*
X0156300Y0130877D02*
X0155700Y0130877D01*
X0155700Y0131475D02*
X0156300Y0131475D01*
X0156300Y0132074D02*
X0155700Y0132074D01*
X0155700Y0132672D02*
X0156300Y0132672D01*
X0157843Y0132672D02*
X0179378Y0132672D01*
X0179976Y0132074D02*
X0158441Y0132074D01*
X0159040Y0131475D02*
X0180575Y0131475D01*
X0181173Y0130877D02*
X0159638Y0130877D01*
X0159900Y0130278D02*
X0181772Y0130278D01*
X0182869Y0129680D02*
X0159900Y0129680D01*
X0159900Y0128700D02*
X0156300Y0128700D01*
X0156300Y0125100D01*
X0157615Y0125100D01*
X0159900Y0127385D01*
X0159900Y0128700D01*
X0159900Y0128483D02*
X0197400Y0128483D01*
X0197400Y0127884D02*
X0159900Y0127884D01*
X0159801Y0127286D02*
X0197400Y0127286D01*
X0197400Y0126687D02*
X0159203Y0126687D01*
X0158604Y0126089D02*
X0197590Y0126089D01*
X0197838Y0125490D02*
X0158006Y0125490D01*
X0156300Y0125490D02*
X0155700Y0125490D01*
X0155700Y0126089D02*
X0156300Y0126089D01*
X0156300Y0126687D02*
X0155700Y0126687D01*
X0155700Y0127286D02*
X0156300Y0127286D01*
X0156300Y0127884D02*
X0155700Y0127884D01*
X0155700Y0128483D02*
X0156300Y0128483D01*
X0155700Y0129081D02*
X0097100Y0129081D01*
X0097100Y0128483D02*
X0152100Y0128483D01*
X0152100Y0127884D02*
X0097100Y0127884D01*
X0097100Y0127286D02*
X0152199Y0127286D01*
X0152797Y0126687D02*
X0097100Y0126687D01*
X0097100Y0126089D02*
X0153396Y0126089D01*
X0153994Y0125490D02*
X0097100Y0125490D01*
X0097100Y0124892D02*
X0198086Y0124892D01*
X0198334Y0124293D02*
X0097100Y0124293D01*
X0097100Y0123695D02*
X0198681Y0123695D01*
X0199280Y0123096D02*
X0097100Y0123096D01*
X0097100Y0122498D02*
X0199878Y0122498D01*
X0200477Y0121899D02*
X0097100Y0121899D01*
X0097100Y0129680D02*
X0152100Y0129680D01*
X0152100Y0130278D02*
X0097100Y0130278D01*
X0097100Y0130877D02*
X0152362Y0130877D01*
X0152960Y0131475D02*
X0097100Y0131475D01*
X0097100Y0132074D02*
X0153559Y0132074D01*
X0154157Y0132672D02*
X0097100Y0132672D01*
X0097100Y0133271D02*
X0178779Y0133271D01*
X0178181Y0133870D02*
X0097100Y0133870D01*
X0097100Y0134468D02*
X0177582Y0134468D01*
X0176984Y0135067D02*
X0097100Y0135067D01*
X0097100Y0135665D02*
X0176385Y0135665D01*
X0175787Y0136264D02*
X0097100Y0136264D01*
X0097100Y0136862D02*
X0175188Y0136862D01*
X0174590Y0137461D02*
X0097100Y0137461D01*
X0097100Y0138059D02*
X0173991Y0138059D01*
X0173393Y0138658D02*
X0097100Y0138658D01*
X0097100Y0139256D02*
X0155814Y0139256D01*
X0155970Y0139100D02*
X0160030Y0139100D01*
X0162900Y0141970D01*
X0162900Y0146030D01*
X0160030Y0148900D01*
X0155970Y0148900D01*
X0153100Y0146030D01*
X0153100Y0141970D01*
X0155970Y0139100D01*
X0155216Y0139855D02*
X0097100Y0139855D01*
X0097100Y0140453D02*
X0154617Y0140453D01*
X0154019Y0141052D02*
X0097100Y0141052D01*
X0097100Y0141650D02*
X0153420Y0141650D01*
X0153100Y0142249D02*
X0097100Y0142249D01*
X0097100Y0142847D02*
X0153100Y0142847D01*
X0153100Y0143446D02*
X0097100Y0143446D01*
X0097100Y0144044D02*
X0153100Y0144044D01*
X0153100Y0144643D02*
X0097100Y0144643D01*
X0097100Y0145241D02*
X0153100Y0145241D01*
X0153100Y0145840D02*
X0097100Y0145840D01*
X0097100Y0146438D02*
X0153509Y0146438D01*
X0154107Y0147037D02*
X0097100Y0147037D01*
X0097100Y0147635D02*
X0154706Y0147635D01*
X0155304Y0148234D02*
X0097100Y0148234D01*
X0097100Y0148832D02*
X0155903Y0148832D01*
X0160097Y0148832D02*
X0163218Y0148832D01*
X0163816Y0148234D02*
X0160696Y0148234D01*
X0161294Y0147635D02*
X0164415Y0147635D01*
X0165013Y0147037D02*
X0161893Y0147037D01*
X0162491Y0146438D02*
X0165612Y0146438D01*
X0166211Y0145840D02*
X0162900Y0145840D01*
X0162900Y0145241D02*
X0166809Y0145241D01*
X0167408Y0144643D02*
X0162900Y0144643D01*
X0162900Y0144044D02*
X0168006Y0144044D01*
X0168605Y0143446D02*
X0162900Y0143446D01*
X0162900Y0142847D02*
X0169203Y0142847D01*
X0169802Y0142249D02*
X0162900Y0142249D01*
X0162580Y0141650D02*
X0170400Y0141650D01*
X0170999Y0141052D02*
X0161981Y0141052D01*
X0161383Y0140453D02*
X0171597Y0140453D01*
X0172196Y0139855D02*
X0160784Y0139855D01*
X0160186Y0139256D02*
X0172794Y0139256D01*
X0162619Y0149431D02*
X0097100Y0149431D01*
X0097100Y0178758D02*
X0118766Y0178758D01*
X0118919Y0179356D02*
X0097100Y0179356D01*
X0097100Y0179955D02*
X0119170Y0179955D01*
X0119540Y0180553D02*
X0097100Y0180553D01*
X0097100Y0181152D02*
X0120071Y0181152D01*
X0120889Y0181750D02*
X0097100Y0181750D01*
X0131966Y0211077D02*
X0134128Y0211077D01*
X0133529Y0210479D02*
X0133016Y0210479D01*
X0133171Y0211676D02*
X0134726Y0211676D01*
X0135325Y0212274D02*
X0133770Y0212274D01*
X0134368Y0212873D02*
X0135923Y0212873D01*
X0136522Y0213472D02*
X0134689Y0213472D01*
X0134937Y0214070D02*
X0137120Y0214070D01*
X0137719Y0214669D02*
X0135185Y0214669D01*
X0135300Y0215267D02*
X0138317Y0215267D01*
X0138916Y0215866D02*
X0135300Y0215866D01*
X0135300Y0216464D02*
X0139514Y0216464D01*
X0140113Y0217063D02*
X0135297Y0217063D01*
X0135049Y0217661D02*
X0140711Y0217661D01*
X0141310Y0218260D02*
X0134801Y0218260D01*
X0134553Y0218858D02*
X0141908Y0218858D01*
X0142507Y0219457D02*
X0134039Y0219457D01*
X0133440Y0220055D02*
X0143105Y0220055D01*
X0143704Y0220654D02*
X0132615Y0220654D01*
X0131170Y0221252D02*
X0144302Y0221252D01*
X0144901Y0221851D02*
X0131418Y0221851D01*
X0132863Y0222449D02*
X0145499Y0222449D01*
X0146098Y0223048D02*
X0133543Y0223048D01*
X0134142Y0223646D02*
X0146696Y0223646D01*
X0147295Y0224245D02*
X0134595Y0224245D01*
X0134843Y0224843D02*
X0147894Y0224843D01*
X0148492Y0225442D02*
X0135091Y0225442D01*
X0135300Y0226040D02*
X0149091Y0226040D01*
X0149689Y0226639D02*
X0135300Y0226639D01*
X0135300Y0227237D02*
X0150288Y0227237D01*
X0150886Y0227836D02*
X0135300Y0227836D01*
X0135143Y0228434D02*
X0151485Y0228434D01*
X0152083Y0229033D02*
X0134895Y0229033D01*
X0134647Y0229631D02*
X0152682Y0229631D01*
X0153280Y0230230D02*
X0134265Y0230230D01*
X0133667Y0230828D02*
X0153879Y0230828D01*
X0154477Y0231427D02*
X0133068Y0231427D01*
X0133119Y0232624D02*
X0155674Y0232624D01*
X0155076Y0232025D02*
X0131840Y0232025D01*
X0133718Y0233222D02*
X0156273Y0233222D01*
X0156700Y0233821D02*
X0134316Y0233821D01*
X0134668Y0234419D02*
X0156700Y0234419D01*
X0156700Y0235018D02*
X0134916Y0235018D01*
X0135164Y0235616D02*
X0156914Y0235616D01*
X0157162Y0236215D02*
X0135300Y0236215D01*
X0135300Y0236813D02*
X0157661Y0236813D01*
X0158260Y0237412D02*
X0135300Y0237412D01*
X0135300Y0238010D02*
X0158858Y0238010D01*
X0159457Y0238609D02*
X0135070Y0238609D01*
X0134822Y0239208D02*
X0160055Y0239208D01*
X0160654Y0239806D02*
X0134574Y0239806D01*
X0134091Y0240405D02*
X0161252Y0240405D01*
X0162184Y0241003D02*
X0133492Y0241003D01*
X0160187Y0227237D02*
X0163833Y0227237D01*
X0163235Y0227836D02*
X0160786Y0227836D01*
X0161384Y0228434D02*
X0162636Y0228434D01*
X0162038Y0229033D02*
X0161983Y0229033D01*
X0162900Y0211676D02*
X0150254Y0211676D01*
X0150852Y0211077D02*
X0162900Y0211077D01*
X0162900Y0210479D02*
X0151451Y0210479D01*
X0152049Y0209880D02*
X0162900Y0209880D01*
X0162900Y0209282D02*
X0152648Y0209282D01*
X0152900Y0208683D02*
X0162900Y0208683D01*
X0162900Y0208085D02*
X0152900Y0208085D01*
X0152900Y0207486D02*
X0162900Y0207486D01*
X0162900Y0206888D02*
X0152900Y0206888D01*
X0152900Y0206289D02*
X0162900Y0206289D01*
X0162900Y0205691D02*
X0152900Y0205691D01*
X0152900Y0205092D02*
X0162900Y0205092D01*
X0162900Y0204494D02*
X0152423Y0204494D01*
X0151825Y0203895D02*
X0162900Y0203895D01*
X0162900Y0203297D02*
X0151226Y0203297D01*
X0172868Y0195516D02*
X0181534Y0195516D01*
X0182133Y0194918D02*
X0173466Y0194918D01*
X0174065Y0194319D02*
X0182731Y0194319D01*
X0183330Y0193721D02*
X0174663Y0193721D01*
X0175262Y0193122D02*
X0183928Y0193122D01*
X0185247Y0192524D02*
X0175860Y0192524D01*
X0214700Y0184743D02*
X0215300Y0184743D01*
X0215300Y0184144D02*
X0214700Y0184144D01*
X0214700Y0183546D02*
X0215300Y0183546D01*
X0215300Y0182947D02*
X0214700Y0182947D01*
X0214700Y0182349D02*
X0215300Y0182349D01*
X0216864Y0182349D02*
X0241721Y0182349D01*
X0241123Y0182947D02*
X0217463Y0182947D01*
X0218061Y0183546D02*
X0240524Y0183546D01*
X0240100Y0184144D02*
X0218660Y0184144D01*
X0218900Y0184743D02*
X0240100Y0184743D01*
X0240100Y0185341D02*
X0218900Y0185341D01*
X0171018Y0103345D02*
X0158584Y0103345D01*
X0159183Y0102747D02*
X0171616Y0102747D01*
X0223666Y0088981D02*
X0229347Y0088981D01*
X0228963Y0088383D02*
X0225037Y0088383D01*
X0225635Y0087784D02*
X0228365Y0087784D01*
X0227766Y0087186D02*
X0226234Y0087186D01*
X0226618Y0086587D02*
X0227382Y0086587D01*
X0227134Y0085989D02*
X0226866Y0085989D01*
X0343977Y0263148D02*
X0359864Y0263148D01*
X0358758Y0263746D02*
X0345166Y0263746D01*
X0345764Y0264345D02*
X0358160Y0264345D01*
X0357561Y0264943D02*
X0346363Y0264943D01*
X0346671Y0265542D02*
X0357281Y0265542D01*
X0357034Y0266141D02*
X0346919Y0266141D01*
X0347167Y0266739D02*
X0356786Y0266739D01*
X0356700Y0267338D02*
X0347268Y0267338D01*
X0347268Y0267936D02*
X0356700Y0267936D01*
X0356700Y0268535D02*
X0347268Y0268535D01*
X0347268Y0269133D02*
X0356700Y0269133D01*
X0356700Y0269732D02*
X0347268Y0269732D01*
X0347268Y0270330D02*
X0356700Y0270330D01*
X0356700Y0270929D02*
X0347268Y0270929D01*
X0347268Y0271527D02*
X0356700Y0271527D01*
X0356700Y0272126D02*
X0347268Y0272126D01*
X0347268Y0272724D02*
X0356700Y0272724D01*
X0356700Y0273323D02*
X0347268Y0273323D01*
X0347268Y0273921D02*
X0356700Y0273921D01*
X0356700Y0274520D02*
X0347268Y0274520D01*
X0347226Y0275118D02*
X0356727Y0275118D01*
X0356974Y0275717D02*
X0346978Y0275717D01*
X0364136Y0263148D02*
X0369864Y0263148D01*
X0368758Y0263746D02*
X0365242Y0263746D01*
X0365840Y0264345D02*
X0368160Y0264345D01*
X0367561Y0264943D02*
X0366439Y0264943D01*
X0366719Y0265542D02*
X0367281Y0265542D01*
X0367034Y0266141D02*
X0366966Y0266141D01*
X0374136Y0263148D02*
X0379864Y0263148D01*
X0378758Y0263746D02*
X0375242Y0263746D01*
X0375840Y0264345D02*
X0378160Y0264345D01*
X0377561Y0264943D02*
X0376439Y0264943D01*
X0376719Y0265542D02*
X0377281Y0265542D01*
X0377034Y0266141D02*
X0376966Y0266141D01*
D21*
X0386000Y0249000D02*
X0393000Y0249000D01*
X0386000Y0249000D02*
X0374000Y0237000D01*
X0364000Y0237000D01*
X0332000Y0269000D01*
X0332000Y0271000D01*
X0316231Y0266769D02*
X0316231Y0265642D01*
X0337000Y0244874D01*
X0337000Y0243000D01*
X0345000Y0243000D01*
X0337000Y0243000D02*
X0326000Y0232000D01*
X0326000Y0222000D02*
X0326600Y0221600D01*
X0380823Y0221600D01*
X0385223Y0227000D01*
X0403000Y0227000D01*
X0403000Y0205000D02*
X0403000Y0184000D01*
X0406000Y0181000D01*
X0441000Y0181000D01*
X0441000Y0171000D02*
X0373000Y0171000D01*
X0362000Y0182000D01*
X0352000Y0182000D01*
X0337000Y0197000D01*
X0287000Y0245000D02*
X0272000Y0230000D01*
X0253000Y0225000D02*
X0253000Y0211000D01*
X0249000Y0207000D01*
X0253000Y0225000D02*
X0249000Y0229000D01*
X0249000Y0269000D01*
X0246000Y0271000D01*
X0226000Y0271000D02*
X0227000Y0255000D01*
X0204000Y0232000D01*
X0204000Y0203000D01*
X0203000Y0202000D01*
X0210000Y0208000D02*
X0221000Y0219000D01*
X0221000Y0223000D01*
X0166000Y0222000D02*
X0166000Y0198000D01*
X0182000Y0182000D01*
X0196000Y0182000D01*
X0287000Y0245000D02*
X0291000Y0245000D01*
X0316231Y0266769D02*
X0312000Y0271000D01*
D22*
X0403000Y0227000D03*
X0403000Y0205000D03*
X0337000Y0197000D03*
X0249000Y0207000D03*
X0203000Y0202000D03*
X0196000Y0182000D03*
X0203000Y0163000D03*
X0208000Y0151000D03*
X0232000Y0112000D03*
M02*
