%
M48
M72
T01C0.01378
T02C0.03200
T03C0.03937
T04C0.04000
T05C0.04400
T06C0.05200
%
T01
X208000Y151000
X203000Y163000
X196000Y182000
X203000Y202000
X249000Y207000
X337000Y197000
X403000Y205000
X403000Y227000
X232000Y112000
T02
X156000Y99000
X175000Y107000
X175000Y117000
X156000Y129000
X158000Y144000
X184000Y157000
X184000Y167000
X158000Y174000
X148000Y207000
X166000Y222000
X173500Y227000
X166000Y232000
X187000Y239000
X221000Y233000
X228500Y228000
X221000Y223000
X210000Y208000
X187000Y209000
X178000Y207000
X215000Y186000
X215000Y171000
X245000Y171000
X245000Y186000
X263000Y186000
X263000Y171000
X293000Y171000
X293000Y186000
X288000Y207000
X291000Y215000
X279500Y225000
X272000Y220000
X272000Y230000
X291000Y245000
X326000Y232000
X333500Y227000
X326000Y222000
X345000Y213000
X343000Y205000
X363000Y209000
X374000Y227000
X381500Y232000
X374000Y237000
X393000Y249000
X393000Y219000
X393000Y209000
X345000Y243000
X313000Y205000
X258000Y207000
X242000Y216000
X240000Y208000
X242000Y246000
X332000Y153000
X357000Y133000
X357000Y123000
X332000Y103000
T03
X272000Y81000
X262000Y81000
X252000Y81000
X242000Y81000
X232000Y81000
X222000Y81000
X226000Y271000
X216000Y271000
X206000Y271000
X196000Y271000
X186000Y271000
X236000Y271000
X246000Y271000
X256000Y271000
X272000Y271000
X282000Y271000
X292000Y271000
X302000Y271000
X312000Y271000
X322000Y271000
X332000Y271000
X342000Y271000
T04
X362000Y271000
X372000Y271000
X382000Y271000
X392000Y271000
X402000Y271000
X412000Y271000
X422000Y271000
X432000Y271000
X441000Y234000
X441000Y224000
X441000Y211000
X441000Y201000
X441000Y191000
X441000Y181000
X441000Y171000
X441000Y161000
X441000Y151000
X402000Y140000
X402000Y110000
X402000Y81000
X392000Y81000
X382000Y81000
X362000Y81000
X352000Y81000
X342000Y81000
X332000Y81000
X322000Y81000
X312000Y81000
X302000Y81000
X292000Y81000
X412000Y81000
X422000Y81000
X432000Y81000
X442000Y81000
X452000Y81000
X127000Y196000
X127000Y206000
X127000Y216000
X127000Y227000
X127000Y237000
X126000Y178000
X126000Y168000
T05
X312000Y173000
X352000Y173000
T06
X303300Y133000
X204700Y133000
M30
