G75*
%MOIN*%
%OFA0B0*%
%FSLAX25Y25*%
%IPPOS*%
%LPD*%
%AMOC8*
5,1,8,0,0,1.08239X$1,22.5*
%
%ADD10OC8,0.13200*%
%ADD11C,0.13200*%
%ADD12OC8,0.06000*%
%ADD13C,0.06737*%
%ADD14C,0.10800*%
%ADD15OC8,0.07000*%
%ADD16C,0.07000*%
%ADD17C,0.07400*%
%ADD18C,0.06800*%
%ADD19OC8,0.03778*%
D10*
X0402000Y0110000D03*
D11*
X0402000Y0140000D03*
D12*
X0156000Y0099000D03*
X0156000Y0129000D03*
X0158000Y0144000D03*
X0158000Y0174000D03*
X0148000Y0207000D03*
X0166000Y0222000D03*
X0173500Y0227000D03*
X0166000Y0232000D03*
X0187000Y0239000D03*
X0221000Y0233000D03*
X0228500Y0228000D03*
X0221000Y0223000D03*
X0210000Y0208000D03*
X0187000Y0209000D03*
X0178000Y0207000D03*
X0215000Y0186000D03*
X0215000Y0171000D03*
X0245000Y0171000D03*
X0245000Y0186000D03*
X0263000Y0186000D03*
X0263000Y0171000D03*
X0293000Y0171000D03*
X0293000Y0186000D03*
X0288000Y0207000D03*
X0291000Y0215000D03*
X0279500Y0225000D03*
X0272000Y0220000D03*
X0272000Y0230000D03*
X0291000Y0245000D03*
X0326000Y0232000D03*
X0333500Y0227000D03*
X0326000Y0222000D03*
X0345000Y0213000D03*
X0343000Y0205000D03*
X0363000Y0209000D03*
X0374000Y0227000D03*
X0381500Y0232000D03*
X0374000Y0237000D03*
X0393000Y0249000D03*
X0393000Y0219000D03*
X0393000Y0209000D03*
X0345000Y0243000D03*
X0313000Y0205000D03*
X0258000Y0207000D03*
X0242000Y0216000D03*
X0240000Y0208000D03*
X0242000Y0246000D03*
X0332000Y0153000D03*
X0357000Y0133000D03*
X0357000Y0123000D03*
X0332000Y0103000D03*
D13*
X0272000Y0083969D02*
X0272000Y0078031D01*
X0262000Y0078031D02*
X0262000Y0083969D01*
X0252000Y0083969D02*
X0252000Y0078031D01*
X0242000Y0078031D02*
X0242000Y0083969D01*
X0232000Y0083969D02*
X0232000Y0078031D01*
X0222000Y0078031D02*
X0222000Y0083969D01*
X0226000Y0268031D02*
X0226000Y0273969D01*
X0216000Y0273969D02*
X0216000Y0268031D01*
X0206000Y0268031D02*
X0206000Y0273969D01*
X0196000Y0273969D02*
X0196000Y0268031D01*
X0186000Y0268031D02*
X0186000Y0273969D01*
X0236000Y0273969D02*
X0236000Y0268031D01*
X0246000Y0268031D02*
X0246000Y0273969D01*
X0256000Y0273969D02*
X0256000Y0268031D01*
X0272000Y0268031D02*
X0272000Y0273969D01*
X0282000Y0273969D02*
X0282000Y0268031D01*
X0292000Y0268031D02*
X0292000Y0273969D01*
X0302000Y0273969D02*
X0302000Y0268031D01*
X0312000Y0268031D02*
X0312000Y0273969D01*
X0322000Y0273969D02*
X0322000Y0268031D01*
X0332000Y0268031D02*
X0332000Y0273969D01*
X0342000Y0273969D02*
X0342000Y0268031D01*
D14*
X0303300Y0138000D02*
X0303300Y0128000D01*
X0204700Y0128000D02*
X0204700Y0138000D01*
D15*
X0175000Y0117000D03*
X0184000Y0167000D03*
D16*
X0184000Y0157000D03*
X0175000Y0107000D03*
D17*
X0312000Y0173000D03*
X0352000Y0173000D03*
D18*
X0438000Y0171000D02*
X0444000Y0171000D01*
X0444000Y0181000D02*
X0438000Y0181000D01*
X0438000Y0191000D02*
X0444000Y0191000D01*
X0444000Y0201000D02*
X0438000Y0201000D01*
X0438000Y0211000D02*
X0444000Y0211000D01*
X0444000Y0224000D02*
X0438000Y0224000D01*
X0438000Y0234000D02*
X0444000Y0234000D01*
X0432000Y0268000D02*
X0432000Y0274000D01*
X0422000Y0274000D02*
X0422000Y0268000D01*
X0412000Y0268000D02*
X0412000Y0274000D01*
X0402000Y0274000D02*
X0402000Y0268000D01*
X0392000Y0268000D02*
X0392000Y0274000D01*
X0382000Y0274000D02*
X0382000Y0268000D01*
X0372000Y0268000D02*
X0372000Y0274000D01*
X0362000Y0274000D02*
X0362000Y0268000D01*
X0438000Y0161000D02*
X0444000Y0161000D01*
X0444000Y0151000D02*
X0438000Y0151000D01*
X0442000Y0084000D02*
X0442000Y0078000D01*
X0432000Y0078000D02*
X0432000Y0084000D01*
X0422000Y0084000D02*
X0422000Y0078000D01*
X0412000Y0078000D02*
X0412000Y0084000D01*
X0402000Y0084000D02*
X0402000Y0078000D01*
X0392000Y0078000D02*
X0392000Y0084000D01*
X0382000Y0084000D02*
X0382000Y0078000D01*
X0362000Y0078000D02*
X0362000Y0084000D01*
X0352000Y0084000D02*
X0352000Y0078000D01*
X0342000Y0078000D02*
X0342000Y0084000D01*
X0332000Y0084000D02*
X0332000Y0078000D01*
X0322000Y0078000D02*
X0322000Y0084000D01*
X0312000Y0084000D02*
X0312000Y0078000D01*
X0302000Y0078000D02*
X0302000Y0084000D01*
X0292000Y0084000D02*
X0292000Y0078000D01*
X0452000Y0078000D02*
X0452000Y0084000D01*
X0129000Y0168000D02*
X0123000Y0168000D01*
X0123000Y0178000D02*
X0129000Y0178000D01*
X0130000Y0196000D02*
X0124000Y0196000D01*
X0124000Y0206000D02*
X0130000Y0206000D01*
X0130000Y0216000D02*
X0124000Y0216000D01*
X0124000Y0227000D02*
X0130000Y0227000D01*
X0130000Y0237000D02*
X0124000Y0237000D01*
D19*
X0203000Y0202000D03*
X0196000Y0182000D03*
X0203000Y0163000D03*
X0208000Y0151000D03*
X0232000Y0112000D03*
X0337000Y0197000D03*
X0403000Y0205000D03*
X0403000Y0227000D03*
X0249000Y0207000D03*
M02*
