G04 EAGLE Gerber RS-274X export*
G75*
%MOMM*%
%FSLAX34Y34*%
%LPD*%
%INSoldermask Bottom*%
%IPNEG*%
%AMOC8*
5,1,8,0,0,1.08239X$1,22.5*%
G01*
%ADD10P,2.144431X8X112.500000*%
%ADD11P,2.144431X8X292.500000*%
%ADD12P,1.649562X8X202.500000*%
%ADD13P,1.649562X8X22.500000*%
%ADD14P,3.629037X8X202.500000*%
%ADD15C,3.352800*%
%ADD16C,2.743200*%
%ADD17P,1.924489X8X22.500000*%
%ADD18C,1.778000*%
%ADD19P,1.924489X8X292.500000*%
%ADD20C,1.879600*%
%ADD21P,1.649562X8X292.500000*%
%ADD22C,1.727200*%


D10*
X243840Y508000D03*
X269240Y508000D03*
X294640Y508000D03*
X320040Y508000D03*
X345440Y508000D03*
X370840Y508000D03*
X396240Y508000D03*
X421640Y508000D03*
D11*
X638810Y508000D03*
X613410Y508000D03*
X588010Y508000D03*
X562610Y508000D03*
X537210Y508000D03*
X511810Y508000D03*
X486410Y508000D03*
X461010Y508000D03*
X461010Y26670D03*
X435610Y26670D03*
X410210Y26670D03*
X384810Y26670D03*
X359410Y26670D03*
X334010Y26670D03*
D10*
X513080Y25400D03*
X538480Y25400D03*
X563880Y25400D03*
X589280Y25400D03*
X614680Y25400D03*
X640080Y25400D03*
D12*
X608330Y384810D03*
X532130Y384810D03*
D13*
X532130Y412750D03*
X608330Y412750D03*
X534670Y358140D03*
X610870Y358140D03*
D12*
X610870Y328930D03*
X534670Y328930D03*
D13*
X473710Y313690D03*
X461010Y332740D03*
X448310Y313690D03*
D12*
X412750Y313690D03*
X336550Y313690D03*
X397510Y292100D03*
X321310Y292100D03*
D13*
X473710Y237490D03*
X461010Y256540D03*
X448310Y237490D03*
D12*
X412750Y237490D03*
X336550Y237490D03*
X397510Y215900D03*
X321310Y215900D03*
D13*
X473710Y379730D03*
X461010Y398780D03*
X448310Y379730D03*
D12*
X412750Y379730D03*
X336550Y379730D03*
X397510Y358140D03*
X321310Y358140D03*
D13*
X473710Y163830D03*
X461010Y182880D03*
X448310Y163830D03*
D12*
X412750Y163830D03*
X336550Y163830D03*
X397510Y142240D03*
X321310Y142240D03*
D13*
X473710Y100330D03*
X461010Y119380D03*
X448310Y100330D03*
D12*
X412750Y100330D03*
X336550Y100330D03*
X397510Y78740D03*
X321310Y78740D03*
D14*
X117475Y104140D03*
D15*
X193675Y104140D03*
D16*
X36068Y240030D02*
X36068Y265430D01*
X286512Y265430D02*
X286512Y240030D01*
D17*
X198120Y497840D03*
D18*
X172720Y497840D03*
D13*
X170815Y424180D03*
X247015Y424180D03*
D19*
X207010Y334010D03*
D18*
X207010Y359410D03*
D13*
X237490Y171450D03*
X262890Y171450D03*
D20*
X200660Y30480D03*
X302260Y30480D03*
D21*
X285750Y171450D03*
X285750Y44450D03*
D13*
X198120Y461010D03*
X274320Y461010D03*
D22*
X544830Y245110D02*
X560070Y245110D01*
X560070Y219710D02*
X544830Y219710D01*
X544830Y194310D02*
X560070Y194310D01*
X560070Y143510D02*
X544830Y143510D01*
X544830Y118110D02*
X560070Y118110D01*
X560070Y92710D02*
X544830Y92710D01*
X544830Y168910D02*
X560070Y168910D01*
X146050Y435610D02*
X130810Y435610D01*
X130810Y461010D02*
X146050Y461010D01*
X146050Y486410D02*
X130810Y486410D01*
X130810Y381000D02*
X146050Y381000D01*
X146050Y406400D02*
X130810Y406400D01*
X130810Y326390D02*
X146050Y326390D01*
X146050Y351790D02*
X130810Y351790D01*
X50800Y147320D02*
X50800Y132080D01*
X25400Y132080D02*
X25400Y147320D01*
M02*
