M48
;GenerationSoftware,Autodesk,EAGLE,9.2.1*%
;CreationDate,2018-12-20T13:11:29Z*%
FMAT,2
ICI,OFF
METRIC,TZ,000.000
T4C0.813
T3C1.016
T2C1.118
T1C1.321
%
G90
M71
T1
X28651Y25273
X3607Y25273
T2
X30226Y3048
X20066Y3048
T3
X24384Y50800
X26924Y50800
X29464Y50800
X32004Y50800
X34544Y50800
X37084Y50800
X39624Y50800
X42164Y50800
X63881Y50800
X61341Y50800
X58801Y50800
X56261Y50800
X53721Y50800
X51181Y50800
X48641Y50800
X46101Y50800
X46101Y2667
X43561Y2667
X41021Y2667
X38481Y2667
X35941Y2667
X33401Y2667
X51308Y2540
X53848Y2540
X56388Y2540
X58928Y2540
X61468Y2540
X64008Y2540
X13843Y35179
X5080Y13970
X2540Y13970
X11747Y10414
X19368Y10414
X55245Y19431
X55245Y24511
X55245Y21971
X55245Y14351
X55245Y11811
X55245Y9271
X55245Y16891
X13843Y43561
X13843Y46101
X13843Y48641
X13843Y38100
X13843Y40640
X13843Y32639
T4
X60833Y38481
X53213Y38481
X53213Y41275
X60833Y41275
X53467Y35814
X61087Y35814
X61087Y32893
X53467Y32893
X47371Y31369
X46101Y33274
X44831Y31369
X41275Y31369
X33655Y31369
X39751Y29210
X32131Y29210
X47371Y23749
X46101Y25654
X44831Y23749
X41275Y23749
X33655Y23749
X32131Y7874
X41275Y37973
X33655Y37973
X46101Y39878
X47371Y37973
X19812Y49784
X17272Y49784
X17082Y42418
X39751Y35814
X20701Y33401
X20701Y35941
X23749Y17145
X26289Y17145
X32131Y21590
X39751Y21590
X28575Y17145
X28575Y4445
X19812Y46101
X27432Y46101
X32131Y35814
X47371Y16383
X44831Y37973
X46101Y18288
X44831Y16383
X41275Y16383
X33655Y16383
X39751Y14224
X32131Y14224
X47371Y10033
X46101Y11938
X44831Y10033
X41275Y10033
X33655Y10033
X39751Y7874
X24701Y42418
M30